<svg width="60" height="60" viewBox="0 0 60 60" fill="none" xmlns="http://www.w3.org/2000/svg">
<rect x="0.25" y="0.25" width="59.5" height="59.5" rx="29.75" stroke="black" stroke-width="0.5"/>
<path d="M35.0538 28.1362L31.9088 24.5837C31.6838 24.3242 31.4062 24.1156 31.0943 23.9718C30.7824 23.8281 30.4434 23.7524 30.1 23.75C29.0162 23.75 28.095 24.4925 27.7475 25.5312L26.9087 24.5837C26.6838 24.3242 26.4062 24.1156 26.0943 23.9718C25.7824 23.8281 25.4434 23.7524 25.1 23.75C23.72 23.75 22.6 24.9563 22.6 26.445V33.555C22.6 34.2738 22.8663 34.9613 23.3387 35.4675C23.5625 35.715 23.8358 35.9126 24.141 36.0474C24.4462 36.1823 24.7763 36.2513 25.1099 36.25C25.4436 36.2487 25.7732 36.1771 26.0773 36.0399C26.3814 35.9027 26.6532 35.703 26.875 35.4538L27.7575 34.495C27.8825 34.8575 28.08 35.19 28.3387 35.4675C28.5625 35.715 28.8358 35.9126 29.141 36.0474C29.4462 36.1823 29.7763 36.2513 30.1099 36.25C30.4436 36.2487 30.7732 36.1771 31.0773 36.0399C31.3814 35.9027 31.6532 35.703 31.875 35.4538L35.0538 32.0012V35C35.0538 35.3315 35.1854 35.6495 35.4199 35.8839C35.6543 36.1183 35.9722 36.25 36.3038 36.25C36.6353 36.25 36.9532 36.1183 37.1876 35.8839C37.4221 35.6495 37.5537 35.3315 37.5537 35V25C37.5537 24.6685 37.4221 24.3505 37.1876 24.1161C36.9532 23.8817 36.6353 23.75 36.3038 23.75C35.9722 23.75 35.6543 23.8817 35.4199 24.1161C35.1854 24.3505 35.0538 24.6685 35.0538 25V28.1362ZM30 42.5C23.0963 42.5 17.5 36.9037 17.5 30C17.5 23.0963 23.0963 17.5 30 17.5C36.9037 17.5 42.5 23.0963 42.5 30C42.5 36.9037 36.9037 42.5 30 42.5ZM24.665 33.5875V26.4763L27.3363 29.4925L27.3413 30.6788L24.665 33.585V33.5875ZM30.1975 33.5875V26.4763L33.4062 30.1L30.1975 33.585V33.5875Z" fill="black"/>
</svg>
