<svg width="222" height="58" viewBox="0 0 222 58" fill="none" xmlns="http://www.w3.org/2000/svg">
<rect x="57.2552" width="18.4001" height="58" fill="white"/>
<path d="M4.882 0H25.7123L49.3695 38.2492L38.7684 58L4.882 0Z" fill="white"/>
<path d="M12.5693 35.0698L24.3979 58.0001H0.740723L12.5693 35.0698Z" fill="white"/>
<path d="M125.939 2.67745V29.5296H122.382V9.50689L113.392 29.5296H110.89L101.861 9.46808V29.5296H98.3038V2.67745H102.134L112.141 24.8731L122.147 2.67745H125.939Z" fill="white"/>
<path d="M133.808 4.81165C133.131 4.81165 132.557 4.57883 132.088 4.11318C131.619 3.64754 131.385 3.07842 131.385 2.40582C131.385 1.73323 131.619 1.16411 132.088 0.698465C132.557 0.232822 133.131 0 133.808 0C134.46 0 135.007 0.232822 135.45 0.698465C135.919 1.16411 136.154 1.73323 136.154 2.40582C136.154 3.07842 135.919 3.64754 135.45 4.11318C135.007 4.57883 134.46 4.81165 133.808 4.81165ZM135.528 8.26517V29.5296H131.971V8.26517H135.528Z" fill="white"/>
<path d="M149.173 29.8788C147.532 29.8788 146.059 29.6072 144.757 29.0639C143.454 28.4948 142.424 27.7187 141.669 26.7357C140.913 25.7268 140.496 24.5756 140.418 23.2822H144.092C144.196 24.3428 144.691 25.2094 145.577 25.882C146.489 26.5546 147.675 26.8909 149.134 26.8909C150.489 26.8909 151.558 26.5934 152.34 25.9984C153.121 25.4034 153.512 24.6532 153.512 23.7478C153.512 22.8165 153.095 22.131 152.261 21.6912C151.427 21.2256 150.138 20.7729 148.392 20.3331C146.802 19.9192 145.499 19.5053 144.483 19.0914C143.493 18.6516 142.633 18.0178 141.903 17.19C141.2 16.3363 140.848 15.224 140.848 13.8529C140.848 12.7664 141.173 11.7704 141.825 10.865C142.476 9.9596 143.401 9.2482 144.6 8.73082C145.799 8.18756 147.167 7.91594 148.704 7.91594C151.076 7.91594 152.991 8.51093 154.45 9.70091C155.91 10.8909 156.691 12.5206 156.796 14.5902H153.239C153.16 13.4778 152.704 12.5853 151.87 11.9127C151.063 11.2401 149.968 10.9038 148.587 10.9038C147.31 10.9038 146.294 11.1754 145.538 11.7187C144.783 12.2619 144.405 12.9733 144.405 13.8529C144.405 14.5514 144.626 15.1334 145.069 15.5991C145.538 16.0388 146.112 16.401 146.789 16.6856C147.493 16.9443 148.457 17.2417 149.682 17.578C151.219 17.9919 152.47 18.4059 153.434 18.8198C154.398 19.2078 155.219 19.8028 155.897 20.6047C156.6 21.4067 156.965 22.4544 156.991 23.7478C156.991 24.9119 156.665 25.9596 156.014 26.8909C155.362 27.8222 154.437 28.5595 153.239 29.1027C152.066 29.6201 150.711 29.8788 149.173 29.8788Z" fill="white"/>
<path d="M181.009 8.26517V29.5296H177.452V26.3865C176.774 27.473 175.823 28.3266 174.598 28.9475C173.4 29.5425 172.071 29.84 170.612 29.84C168.944 29.84 167.445 29.5037 166.116 28.8311C164.787 28.1326 163.732 27.0979 162.95 25.7268C162.195 24.3557 161.817 22.6872 161.817 20.7211V8.26517H165.335V20.2555C165.335 22.3509 165.869 23.9677 166.937 25.1059C168.006 26.2183 169.465 26.7745 171.315 26.7745C173.217 26.7745 174.716 26.1924 175.81 25.0283C176.905 23.8642 177.452 22.1698 177.452 19.9451V8.26517H181.009Z" fill="white"/>
<path d="M190.572 11.7187C191.197 10.5028 192.083 9.55863 193.23 8.88603C194.402 8.21343 195.822 7.87713 197.49 7.87713V11.5247H196.552C192.565 11.5247 190.572 13.6718 190.572 17.9661V29.5296H187.015V8.26517H190.572V11.7187Z" fill="white"/>
<path d="M200.267 18.8198C200.267 16.6468 200.71 14.7454 201.596 13.1156C202.482 11.46 203.694 10.1795 205.231 9.27407C206.795 8.36865 208.528 7.91594 210.43 7.91594C212.306 7.91594 213.935 8.31691 215.316 9.11885C216.697 9.92079 217.726 10.9297 218.404 12.1455V8.26517H222V29.5296H218.404V25.5716C217.7 26.8133 216.645 27.8481 215.238 28.6759C213.857 29.4778 212.241 29.8788 210.391 29.8788C208.489 29.8788 206.769 29.4131 205.231 28.4819C203.694 27.5506 202.482 26.2442 201.596 24.5627C200.71 22.8812 200.267 20.9669 200.267 18.8198ZM218.404 18.8586C218.404 17.2547 218.078 15.8577 217.427 14.6678C216.775 13.4778 215.889 12.5724 214.769 11.9515C213.674 11.3048 212.463 10.9814 211.134 10.9814C209.805 10.9814 208.593 11.2919 207.498 11.9127C206.404 12.5336 205.531 13.439 204.88 14.629C204.228 15.8189 203.902 17.2159 203.902 18.8198C203.902 20.4495 204.228 21.8723 204.88 23.0882C205.531 24.2781 206.404 25.1965 207.498 25.8432C208.593 26.4641 209.805 26.7745 211.134 26.7745C212.463 26.7745 213.674 26.4641 214.769 25.8432C215.889 25.1965 216.775 24.2781 217.427 23.0882C218.078 21.8723 218.404 20.4624 218.404 18.8586Z" fill="white"/>
<path d="M116.117 36.9092L108.693 57.7312H105.728L98.3038 36.9092H101.042L107.225 54.8633L113.407 36.9092H116.117Z" fill="white"/>
<path d="M133.05 48.9184C133.05 49.4363 133.021 49.9839 132.965 50.5615H120.6C120.694 52.1747 121.212 53.4394 122.153 54.3555C123.112 55.2517 124.27 55.6998 125.625 55.6998C126.735 55.6998 127.658 55.4309 128.392 54.8932C129.144 54.3356 129.671 53.5987 129.972 52.6825H132.739C132.325 54.2559 131.497 55.5405 130.255 56.5363C129.013 57.5121 127.469 58.0001 125.625 58.0001C124.157 58.0001 122.84 57.6516 121.673 56.9545C120.525 56.2575 119.621 55.2716 118.963 53.997C118.304 52.7025 117.974 51.2088 117.974 49.5159C117.974 47.8231 118.294 46.3393 118.934 45.0647C119.574 43.7901 120.468 42.8142 121.616 42.1371C122.783 41.44 124.119 41.0915 125.625 41.0915C127.093 41.0915 128.392 41.4301 129.521 42.1072C130.65 42.7844 131.516 43.7204 132.118 44.9154C132.739 46.0904 133.05 47.4248 133.05 48.9184ZM130.396 48.3508C130.396 47.3152 130.18 46.429 129.747 45.6921C129.314 44.9353 128.721 44.3677 127.968 43.9893C127.234 43.591 126.415 43.3918 125.512 43.3918C124.213 43.3918 123.103 43.8299 122.181 44.7062C121.277 45.5825 120.76 46.7974 120.628 48.3508H130.396Z" fill="white"/>
<path d="M143.978 41.0616C145.86 41.0616 147.385 41.6691 148.552 42.8839C149.718 44.0789 150.302 45.8116 150.302 48.082V57.7312H147.761V48.4703C147.761 46.8372 147.375 45.5925 146.604 44.7361C145.832 43.8598 144.778 43.4217 143.442 43.4217C142.087 43.4217 141.005 43.8698 140.195 44.766C139.405 45.6622 139.01 46.9667 139.01 48.6795V57.7312H136.441V41.3604H139.01V43.6905C139.518 42.8541 140.205 42.2068 141.07 41.7487C141.955 41.2907 142.924 41.0616 143.978 41.0616Z" fill="white"/>
<path d="M157.632 43.6009V53.2502C157.632 54.0468 157.792 54.6144 158.112 54.953C158.432 55.2716 158.987 55.4309 159.778 55.4309H161.669V57.7312H159.354C157.924 57.7312 156.851 57.3827 156.136 56.6856C155.421 55.9886 155.063 54.8434 155.063 53.2502V43.6009H153.059V41.3604H155.063V37.2378H157.632V41.3604H161.669V43.6009H157.632Z" fill="white"/>
<path d="M178.502 41.3604V57.7312H175.933V55.3114C175.443 56.1479 174.756 56.8051 173.872 57.2831C173.006 57.7412 172.046 57.9702 170.992 57.9702C169.788 57.9702 168.706 57.7113 167.746 57.1935C166.786 56.6558 166.024 55.8591 165.459 54.8036C164.913 53.748 164.64 52.4635 164.64 50.9499V41.3604H167.181V50.5914C167.181 52.2046 167.567 53.4493 168.339 54.3256C169.11 55.182 170.164 55.6102 171.501 55.6102C172.874 55.6102 173.957 55.1621 174.747 54.2659C175.538 53.3696 175.933 52.0652 175.933 50.3524V41.3604H178.502Z" fill="white"/>
<path d="M185.408 44.0191C185.86 43.0831 186.5 42.3562 187.328 41.8384C188.175 41.3205 189.201 41.0616 190.405 41.0616V43.8698H189.728C186.848 43.8698 185.408 45.5228 185.408 48.8288V57.7312H182.839V41.3604H185.408V44.0191Z" fill="white"/>
<path d="M207.486 48.9184C207.486 49.4363 207.458 49.9839 207.401 50.5615H195.036C195.13 52.1747 195.648 53.4394 196.589 54.3555C197.549 55.2517 198.706 55.6998 200.061 55.6998C201.172 55.6998 202.094 55.4309 202.828 54.8932C203.581 54.3356 204.108 53.5987 204.409 52.6825H207.176C206.761 54.2559 205.933 55.5405 204.691 56.5363C203.449 57.5121 201.906 58.0001 200.061 58.0001C198.593 58.0001 197.276 57.6516 196.109 56.9545C194.961 56.2575 194.058 55.2716 193.399 53.997C192.74 52.7025 192.411 51.2088 192.411 49.5159C192.411 47.8231 192.731 46.3393 193.371 45.0647C194.011 43.7901 194.905 42.8142 196.053 42.1371C197.22 41.44 198.556 41.0915 200.061 41.0915C201.529 41.0915 202.828 41.4301 203.957 42.1072C205.086 42.7844 205.952 43.7204 206.554 44.9154C207.176 46.0904 207.486 47.4248 207.486 48.9184ZM204.832 48.3508C204.832 47.3152 204.616 46.429 204.183 45.6921C203.75 44.9353 203.157 44.3677 202.405 43.9893C201.671 43.591 200.852 43.3918 199.948 43.3918C198.65 43.3918 197.539 43.8299 196.617 44.7062C195.714 45.5825 195.196 46.7974 195.065 48.3508H204.832Z" fill="white"/>
<path d="M216.354 58.0001C215.168 58.0001 214.105 57.791 213.164 57.3727C212.223 56.9346 211.479 56.3371 210.934 55.5803C210.388 54.8036 210.087 53.9173 210.03 52.9215H212.684C212.759 53.7381 213.117 54.4053 213.757 54.9231C214.415 55.4409 215.272 55.6998 216.326 55.6998C217.304 55.6998 218.076 55.4708 218.641 55.0127C219.205 54.5546 219.487 53.9771 219.487 53.28C219.487 52.5631 219.186 52.0353 218.584 51.6967C217.982 51.3382 217.05 50.9897 215.789 50.6511C214.641 50.3325 213.7 50.0138 212.966 49.6952C212.251 49.3566 211.63 48.8687 211.103 48.2314C210.595 47.5741 210.341 46.7177 210.341 45.6622C210.341 44.8257 210.576 44.059 211.046 43.3619C211.517 42.6649 212.185 42.1172 213.051 41.7189C213.917 41.3006 214.905 41.0915 216.015 41.0915C217.728 41.0915 219.111 41.5496 220.165 42.4657C221.219 43.3818 221.784 44.6365 221.859 46.2298H219.29C219.233 45.3734 218.904 44.6863 218.302 44.1685C217.718 43.6507 216.928 43.3918 215.93 43.3918C215.008 43.3918 214.274 43.6009 213.728 44.0191C213.183 44.4374 212.91 44.9851 212.91 45.6622C212.91 46.1999 213.07 46.648 213.39 47.0065C213.728 47.3451 214.142 47.6239 214.632 47.843C215.14 48.0422 215.836 48.2712 216.721 48.5301C217.831 48.8487 218.735 49.1674 219.431 49.4861C220.127 49.7848 220.72 50.2429 221.21 50.8602C221.718 51.4776 221.981 52.2842 222 53.28C222 54.1762 221.765 54.9828 221.294 55.6998C220.824 56.4168 220.156 56.9844 219.29 57.4026C218.443 57.8009 217.464 58.0001 216.354 58.0001Z" fill="white"/>
</svg>
