<svg width="60" height="60" viewBox="0 0 60 60" fill="none" xmlns="http://www.w3.org/2000/svg">
<rect x="0.25" y="0.25" width="59.5" height="59.5" rx="29.75" stroke="black" stroke-width="0.5"/>
<path d="M30 42.7784C23.0963 42.7784 17.5 36.9956 17.5 29.8617C17.5 22.7292 23.0963 16.9451 30 16.9451C36.9037 16.9451 42.5 22.7292 42.5 29.8617C42.5 36.9956 36.9037 42.7784 30 42.7784ZM31.595 32.1635L32.0875 31.7657C32.5402 31.4001 32.9189 30.946 33.2018 30.4293C33.4846 29.9125 33.6663 29.3433 33.7363 28.754C33.8063 28.1647 33.7632 27.567 33.6097 26.9949C33.4561 26.4228 33.195 25.8875 32.8412 25.4197C32.4875 24.9519 32.048 24.5606 31.548 24.2683C31.0479 23.976 30.497 23.7883 29.9267 23.716C29.3565 23.6436 28.778 23.6881 28.2243 23.8468C27.6707 24.0055 27.1527 24.2753 26.7 24.6408L26.2075 25.0387C26.0754 25.1421 25.9646 25.2716 25.8814 25.4196C25.7982 25.5677 25.7443 25.7314 25.7229 25.9012C25.7015 26.071 25.7129 26.2435 25.7566 26.4086C25.8003 26.5738 25.8753 26.7283 25.9773 26.8633C26.0793 26.9982 26.2062 27.1108 26.3507 27.1946C26.4952 27.2784 26.6544 27.3317 26.819 27.3513C26.9836 27.3709 27.1504 27.3566 27.3096 27.309C27.4687 27.2615 27.6172 27.1817 27.7462 27.0743L28.2387 26.6765C28.6308 26.3621 29.1274 26.2211 29.6198 26.2844C30.1123 26.3477 30.5603 26.6102 30.8658 27.0142C31.1713 27.4183 31.3094 27.931 31.2497 28.4401C31.1901 28.9491 30.9375 29.413 30.5475 29.73L30.055 30.1278C29.9256 30.2323 29.8175 30.3621 29.7367 30.5098C29.6559 30.6575 29.604 30.8202 29.584 30.9886C29.5641 31.157 29.5764 31.3278 29.6203 31.4912C29.6642 31.6547 29.7389 31.8077 29.84 31.9413C29.9411 32.075 30.0667 32.1868 30.2096 32.2703C30.3526 32.3538 30.51 32.4074 30.673 32.428C30.8359 32.4486 31.0012 32.4359 31.1594 32.3905C31.3176 32.3451 31.4656 32.268 31.595 32.1635ZM30 36.3201C30.3315 36.3201 30.6495 36.184 30.8839 35.9417C31.1183 35.6995 31.25 35.371 31.25 35.0284C31.25 34.6858 31.1183 34.3573 30.8839 34.1151C30.6495 33.8728 30.3315 33.7367 30 33.7367C29.6685 33.7367 29.3505 33.8728 29.1161 34.1151C28.8817 34.3573 28.75 34.6858 28.75 35.0284C28.75 35.371 28.8817 35.6995 29.1161 35.9417C29.3505 36.184 29.6685 36.3201 30 36.3201Z" fill="black"/>
</svg>
