<svg width="47" height="48" viewBox="0 0 47 48" fill="none" xmlns="http://www.w3.org/2000/svg">
<path d="M23.4993 0.666748C10.596 0.666748 0.166016 11.0967 0.166016 24.0001C0.166016 36.9034 10.596 47.3334 23.4993 47.3334C36.4027 47.3334 46.8327 36.9034 46.8327 24.0001C46.8327 11.0967 36.4027 0.666748 23.4993 0.666748ZM33.5327 34.0334C32.6227 34.9434 31.1527 34.9434 30.2427 34.0334L23.4993 27.2901L16.756 34.0334C15.846 34.9434 14.376 34.9434 13.466 34.0334C12.556 33.1234 12.556 31.6534 13.466 30.7434L20.2093 24.0001L13.466 17.2567C12.556 16.3467 12.556 14.8767 13.466 13.9667C14.376 13.0567 15.846 13.0567 16.756 13.9667L23.4993 20.7101L30.2427 13.9667C31.1527 13.0567 32.6227 13.0567 33.5327 13.9667C34.4427 14.8767 34.4427 16.3467 33.5327 17.2567L26.7893 24.0001L33.5327 30.7434C34.4193 31.6301 34.4193 33.1234 33.5327 34.0334Z" fill="#D8514B"/>
</svg>
