<svg width="65" height="65" viewBox="0 0 65 65" fill="none" xmlns="http://www.w3.org/2000/svg">
<path opacity="0.4" d="M43.2734 3.17212C59.6164 9.11783 68.0441 27.1935 62.0899 43.5376C56.1446 59.8816 38.0701 68.3099 21.7271 62.3642C5.3841 56.4185 -3.04359 38.3428 2.91057 21.9987C8.86473 5.65465 26.9304 -2.77359 43.2734 3.18096V3.17212Z" fill="#B7B1CD"/>
<path opacity="0.4" d="M43.2734 3.17212C59.6164 9.11783 68.0441 27.1935 62.0899 43.5376C56.1446 59.8816 38.0701 68.3099 21.7271 62.3642C5.3841 56.4185 -3.04359 38.3428 2.91057 21.9987C8.86473 5.65465 26.9304 -2.77359 43.2734 3.18096V3.17212Z" stroke="#B7B1CD" stroke-miterlimit="10"/>
<path d="M41.4891 8.08453C55.12 13.0496 62.1519 28.1215 57.1872 41.7533C52.2225 55.3852 37.1515 62.4176 23.5206 57.4525C9.88962 52.4874 2.85772 37.4155 7.82246 23.7837C12.7872 10.1518 27.8581 3.11946 41.4891 8.08453Z" fill="white"/>
<path opacity="0.8" d="M39.0545 32.9758H37.6587V29.0621C37.6411 26.3057 35.3972 24.0793 32.641 24.0793C29.8848 24.0793 27.6409 26.3057 27.6232 29.0621V32.9758H26.2274C25.9183 32.9758 25.6709 33.2232 25.6709 33.5324V41.3511C25.6709 41.6603 25.9271 41.9076 26.2274 41.9076H39.0722C39.3813 41.9076 39.6287 41.6603 39.6287 41.3511V33.5324C39.6287 33.2232 39.3725 32.9758 39.0722 32.9758H39.0545ZM29.5667 29.0621C29.5667 29.0621 29.5667 29.0709 29.5667 29.0797C29.5756 27.4012 30.9537 26.0318 32.6321 26.0318C34.3106 26.0318 35.6888 27.4012 35.6976 29.0797C35.6976 29.0797 35.6976 29.0709 35.6976 29.0621V32.9758H29.5579V29.0621H29.5667ZM33.6834 38.8509H31.5809L32.2523 36.8807C31.8194 36.7305 31.5102 36.3241 31.5102 35.8382C31.5102 35.2198 32.0049 34.7251 32.6233 34.7251C33.2417 34.7251 33.7364 35.2198 33.7364 35.8382C33.7364 36.3241 33.4272 36.7305 32.9944 36.8807L33.6657 38.8509H33.6834Z" fill="#002152"/>
</svg>
