<svg width="65" height="65" viewBox="0 0 65 65" fill="none" xmlns="http://www.w3.org/2000/svg">
<path opacity="0.4" d="M58.2984 14.1324C68.274 28.3854 64.8104 48.0197 50.5671 57.996C36.315 67.9722 16.6819 64.5083 6.69752 50.2642C-3.27806 36.0111 0.185559 16.3768 14.4288 6.39174C28.6809 -3.58449 48.314 -0.120646 58.2984 14.1235V14.1324Z" fill="#B7B1CD"/>
<path opacity="0.4" d="M58.2984 14.1324C68.274 28.3854 64.8104 48.0197 50.5671 57.996C36.315 67.9722 16.6819 64.5083 6.69752 50.2642C-3.27806 36.0111 0.185559 16.3768 14.4288 6.39174C28.6809 -3.58449 48.314 -0.120646 58.2984 14.1235V14.1324Z" stroke="#B7B1CD" stroke-miterlimit="10"/>
<path d="M54.022 17.128C62.3453 29.0128 59.456 45.3954 47.5719 53.7193C35.6878 62.0431 19.2975 59.1536 10.983 47.2687C2.65975 35.3839 5.54903 19.0013 17.4331 10.6774C29.3172 2.3536 45.7076 5.24309 54.022 17.128Z" fill="white"/>
<g opacity="0.8">
<path d="M32.4185 31.8578L30.1919 34.0846L34.38 38.2819L41.4663 31.1951L39.8494 29.5427L34.4242 34.0492L32.4185 31.8578Z" fill="#002152"/>
<path d="M37.5434 40.0841H24.546V25.3981H26.0922V25.9813C26.0922 26.2906 26.3485 26.5469 26.6577 26.5469H26.7991C27.1083 26.5469 27.3646 26.2906 27.3646 25.9813V25.3981H29.0169V25.9813C29.0169 26.2906 29.2731 26.5469 29.5824 26.5469H29.7237C30.033 26.5469 30.2892 26.2906 30.2892 25.9813V25.3981H31.9415V25.9813C31.9415 26.2906 32.1978 26.5469 32.507 26.5469H32.6484C32.9576 26.5469 33.2139 26.2906 33.2139 25.9813V25.3981H34.8662V25.9813C34.8662 26.2906 35.1224 26.5469 35.4317 26.5469H35.573C35.8823 26.5469 36.1385 26.2906 36.1385 25.9813V25.3981H36.4743L37.5523 26.4585V29.6219L38.6832 28.6853V25.9813L36.9426 24.2671H36.1474V23.6927C36.1474 23.3835 35.8911 23.1272 35.5819 23.1272H35.4405C35.1313 23.1272 34.875 23.3835 34.875 23.6927V24.2671H33.2227V23.6927C33.2227 23.3835 32.9665 23.1272 32.6572 23.1272H32.5159C32.2066 23.1272 31.9504 23.3835 31.9504 23.6927V24.2671H30.2981V23.6927C30.2981 23.3835 30.0418 23.1272 29.7326 23.1272H29.5912C29.282 23.1272 29.0257 23.3835 29.0257 23.6927V24.2671H27.3734V23.6927C27.3734 23.3835 27.1172 23.1272 26.8079 23.1272H26.6666C26.3573 23.1272 26.1011 23.3835 26.1011 23.6927V24.2671H23.4238V41.2063H38.6744V35.9752L37.5434 37.1063V40.0753V40.0841Z" fill="#002152"/>
</g>
</svg>
