<svg width="65" height="65" viewBox="0 0 65 65" fill="none" xmlns="http://www.w3.org/2000/svg">
<path opacity="0.4" d="M64.0047 32.6216C64.0047 50.0219 49.9016 64.1172 32.5024 64.1172C15.1032 64.1172 1 50.0131 1 32.6216C1 15.2301 15.1032 1.11719 32.5024 1.11719C49.9016 1.11719 64.0047 15.2213 64.0047 32.6216Z" fill="#B7B1CD"/>
<path opacity="0.4" d="M64.0047 32.6216C64.0047 50.0219 49.9016 64.1172 32.5024 64.1172C15.1032 64.1172 1 50.0131 1 32.6216C1 15.2301 15.1032 1.11719 32.5024 1.11719C49.9016 1.11719 64.0047 15.2213 64.0047 32.6216Z" stroke="#B7B1CD" stroke-miterlimit="10"/>
<path d="M58.782 32.6213C58.782 47.1319 47.0206 58.8941 32.5021 58.8941C17.9836 58.8941 6.22217 47.1319 6.22217 32.6213C6.22217 18.1107 17.9836 6.3396 32.5021 6.3396C47.0206 6.3396 58.782 18.1018 58.782 32.6213Z" fill="white"/>
<g opacity="0.8">
<path d="M40.243 36.6693C41.4447 35.3525 42.1605 33.7089 42.1605 31.9414C42.1605 27.5847 37.8394 24.041 32.5021 24.041C27.1648 24.041 22.8438 27.5759 22.8438 31.9414C22.8438 36.307 27.1648 39.8418 32.5021 39.8418C33.6862 39.8418 34.8173 39.6651 35.8689 39.347L42.1605 41.1939L40.243 36.6693Z" fill="#002152"/>
</g>
</svg>
