<svg width="65" height="65" viewBox="0 0 65 65" fill="none" xmlns="http://www.w3.org/2000/svg">
<path opacity="0.4" d="M6.69752 14.8619C-3.27806 29.1149 0.185555 48.7492 14.4288 58.7254C28.6809 68.7017 48.314 65.2378 58.2984 50.9937C68.274 36.7406 64.8104 17.1063 50.5671 7.12123C36.315 -2.855 16.6819 0.608846 6.69752 14.853V14.8619Z" fill="#B7B1CD"/>
<path opacity="0.4" d="M6.69752 14.8619C-3.27806 29.1149 0.185555 48.7492 14.4288 58.7254C28.6809 68.7017 48.314 65.2378 58.2984 50.9937C68.274 36.7406 64.8104 17.1063 50.5671 7.12123C36.315 -2.855 16.6819 0.608846 6.69752 14.853V14.8619Z" stroke="#B7B1CD" stroke-miterlimit="10"/>
<path d="M10.9733 17.8575C2.64998 29.7423 5.53927 46.1249 17.4234 54.4488C29.3075 62.7726 45.6978 59.8831 54.0123 47.9982C62.3356 36.1133 59.4463 19.7308 47.5622 11.4069C35.6781 3.08309 19.2877 5.97258 10.9644 17.8575H10.9733Z" fill="white"/>
<g opacity="0.8">
<path d="M34.4966 31.4106V43.3539L37.5719 40.2881L39.8033 44.5861L41.4234 43.7517L39.2697 39.5992H43.4219L34.4966 31.4106Z" fill="#002152"/>
<path d="M43.6335 33.9724C43.6529 33.856 43.6723 33.7492 43.6917 33.6328C43.6917 33.5746 43.7111 33.5067 43.7208 33.4485C43.7305 33.3418 43.75 33.2253 43.7597 33.1186C43.7597 33.0313 43.7694 32.944 43.7791 32.8664C43.7791 32.779 43.7888 32.6917 43.7985 32.5947C43.7985 32.4104 43.8179 32.2357 43.8179 32.0514C43.8179 31.867 43.8179 31.6924 43.8082 31.5178C43.8082 31.411 43.7888 31.2946 43.7888 31.1879C43.7888 31.1297 43.7888 31.0715 43.7791 31.0133C43.7694 30.8677 43.75 30.7319 43.7306 30.5961C43.7306 30.5767 43.7306 30.5476 43.7306 30.5281C43.7112 30.3826 43.6917 30.2371 43.6626 30.0916C43.6626 30.0916 43.6626 30.0722 43.6626 30.0625C42.7798 25.1435 38.6955 21.3403 33.641 20.8843C33.641 20.8843 33.6313 20.8843 33.6216 20.8843C33.4664 20.8746 33.3112 20.8552 33.1559 20.8552C32.9813 20.8552 32.8067 20.8455 32.6321 20.8455C32.4574 20.8455 32.2828 20.8455 32.1082 20.8552C31.953 20.8552 31.7977 20.8746 31.6425 20.8843H31.6231C26.5687 21.3403 22.4843 25.1435 21.6015 30.0528C21.6015 30.0528 21.6015 30.0722 21.6015 30.0819C21.5724 30.2274 21.553 30.3729 21.5336 30.5185C21.5336 30.5379 21.5336 30.567 21.5336 30.5864C21.5142 30.7222 21.4948 30.8677 21.4851 31.0036C21.4851 31.0618 21.4851 31.12 21.4754 31.1782C21.4754 31.2849 21.456 31.4013 21.456 31.5081C21.456 31.6827 21.4463 31.8573 21.4463 32.0417C21.4463 32.226 21.4463 32.391 21.456 32.5656C21.456 32.682 21.4754 32.7984 21.4754 32.9149C21.4754 32.9634 21.4754 33.0216 21.4851 33.0701C21.4948 33.2156 21.5142 33.3612 21.5336 33.5067C21.5336 33.5261 21.5336 33.5455 21.5336 33.5552C21.553 33.7104 21.5821 33.8657 21.6112 34.0209C22.4358 38.61 26.0545 42.2289 30.653 43.0633C30.653 43.0633 30.7209 43.073 30.7597 43.0827C30.8664 43.1021 30.9731 43.1215 31.0701 43.1312C31.1381 43.1312 31.2157 43.1506 31.2836 43.1603C31.3806 43.17 31.4776 43.1797 31.5746 43.1894C31.6716 43.1894 31.7686 43.2088 31.8657 43.2088C31.9433 43.2088 32.0209 43.2185 32.0985 43.2282C32.2731 43.2282 32.4574 43.2476 32.6418 43.2476H32.6709V40.628C32.6709 40.628 32.6515 40.628 32.6418 40.628C32.1373 40.628 31.6522 40.5795 31.1672 40.5019C30.7985 39.3765 30.4589 37.892 30.2455 36.0583C31.0216 36.1069 31.8172 36.136 32.6321 36.136H32.6612V34.6418H32.6321C31.7395 34.6418 30.8955 34.6127 30.1097 34.5545C30.0612 33.7687 30.0224 32.9246 30.0224 32.032C30.0224 31.1394 30.0515 30.2953 30.1097 29.5094C30.8955 29.4609 31.7395 29.4221 32.6321 29.4221C33.5246 29.4221 34.3686 29.4512 35.1545 29.5094C35.1545 29.5579 35.1545 29.5967 35.1642 29.6453C35.3873 29.7229 35.6104 29.8587 35.7947 30.0237L36.7164 30.8677C36.7067 30.4602 36.6873 30.0527 36.6582 29.6453C38.4918 29.8587 39.9761 30.1983 41.1112 30.567C41.1985 31.0424 41.2373 31.5372 41.2373 32.0417C41.2373 32.5462 41.1888 33.0313 41.1112 33.5067C40.7619 33.6231 40.3738 33.7298 39.9567 33.8366L40.8298 34.6418L42.9059 36.5434C43.2552 35.7479 43.5074 34.9038 43.6723 34.0306C43.6723 34.0112 43.6723 33.9821 43.682 33.9627L43.6335 33.9724ZM29.4209 24.0569C29.1007 25.2599 28.8485 26.6376 28.6933 28.1511C27.1799 28.3064 25.8022 28.5586 24.5993 28.8788C25.4724 26.6861 27.2284 24.93 29.4209 24.0569ZM29.4209 40.0362C27.2284 39.163 25.4724 37.4069 24.5993 35.2143C25.8022 35.5344 27.1799 35.7867 28.6933 35.9419C28.8485 37.4555 29.1007 38.8331 29.4209 40.0362ZM28.5672 34.4284C26.7336 34.215 25.2493 33.8754 24.1239 33.5067C24.0366 33.0313 23.9978 32.5365 23.9978 32.0417C23.9978 31.5469 24.0463 31.0521 24.1239 30.567C25.2493 30.1983 26.7336 29.8587 28.5672 29.6453C28.5187 30.4214 28.4895 31.217 28.4895 32.032C28.4895 32.847 28.5187 33.6425 28.5672 34.4187V34.4284ZM32.5933 27.9377C31.7783 27.9377 30.9828 27.9668 30.2067 28.0153C30.4201 26.1816 30.7597 24.6972 31.1283 23.5717C31.6037 23.4844 32.0985 23.4456 32.603 23.4456C33.1074 23.4456 33.5925 23.4941 34.0679 23.5717C34.4365 24.6972 34.7761 26.1816 34.9895 28.025C34.2134 27.9765 33.4179 27.9474 32.603 27.9474L32.5933 27.9377ZM36.4933 28.1414C36.338 26.6279 36.0858 25.2502 35.7656 24.0472C37.9582 24.9203 39.7141 26.6764 40.5873 28.8691C39.3843 28.5489 38.0067 28.2967 36.4933 28.1414Z" fill="#002152"/>
</g>
</svg>
