<svg width="65" height="65" viewBox="0 0 65 65" fill="none" xmlns="http://www.w3.org/2000/svg">
<path opacity="0.4" d="M21.7271 2.90186C5.3841 8.84757 -3.04359 26.9232 2.91057 43.2673C8.85589 59.6114 26.9304 68.0396 43.2734 62.0939C59.6164 56.1482 68.0441 38.0725 62.0899 21.7285C56.1446 5.38439 38.0701 -3.04385 21.7271 2.91069V2.90186Z" fill="#B7B1CD"/>
<path opacity="0.4" d="M21.7271 2.90186C5.3841 8.84757 -3.04359 26.9232 2.91057 43.2673C8.85589 59.6114 26.9304 68.0396 43.2734 62.0939C59.6164 56.1482 68.0441 38.0725 62.0899 21.7285C56.1446 5.38439 38.0701 -3.04385 21.7271 2.91069V2.90186Z" stroke="#B7B1CD" stroke-miterlimit="10"/>
<path d="M23.5098 7.81426C9.87889 12.7793 2.84698 27.8512 7.81172 41.4831C12.7765 55.1149 27.8474 62.1473 41.4783 57.1822C55.1093 52.2172 62.1412 37.1453 57.1764 23.5134C52.2117 9.88157 37.1408 2.8492 23.5098 7.81426Z" fill="white"/>
<path opacity="0.8" d="M39.961 28.7435V25.2361H33.0527L30.5085 23.6636H22.6021V41.3328H39.9698C42.302 41.3328 42.408 37.958 42.408 36.9774V28.7523H39.9698L39.961 28.7435ZM24.7311 25.7927H29.899L32.4432 27.3741H37.8231V28.7523H26.1003V36.4915C26.1003 37.2866 25.6233 38.2407 24.8459 39.2037H24.7222V25.8016L24.7311 25.7927ZM41.1889 36.9774C41.1889 37.4986 41.1271 40.1137 39.9698 40.1137H25.6851C26.7452 38.8503 27.3371 37.587 27.3371 36.4915V29.9715H41.1977V36.9774H41.1889Z" fill="#002152"/>
</svg>
