<svg width="52" height="52" viewBox="0 0 52 52" fill="none" xmlns="http://www.w3.org/2000/svg">
<g clip-path="url(#clip0_5038_291)">
<path d="M16.25 22.75H35.75C36.181 22.75 36.5943 22.5788 36.899 22.274C37.2038 21.9693 37.375 21.556 37.375 21.125C37.3767 18.9709 36.7667 16.8607 35.616 15.0397C34.4653 13.2187 32.8212 11.7619 30.875 10.8387C31.7219 9.90693 32.28 8.74918 32.4814 7.50619C32.6827 6.26319 32.5187 4.98847 32.0092 3.83693C31.4998 2.6854 30.6668 1.70664 29.6115 1.01959C28.5563 0.332544 27.3242 -0.0332031 26.065 -0.0332031C24.8058 -0.0332031 23.5737 0.332544 22.5185 1.01959C21.4632 1.70664 20.6302 2.6854 20.1208 3.83693C19.6113 4.98847 19.4473 6.26319 19.6486 7.50619C19.85 8.74918 20.4081 9.90693 21.255 10.8387C19.2845 11.7432 17.6135 13.1919 16.4388 15.0143C15.2642 16.8367 14.6349 18.9569 14.625 21.125C14.625 21.556 14.7962 21.9693 15.101 22.274C15.4057 22.5788 15.819 22.75 16.25 22.75ZM22.75 6.49999C22.75 5.8572 22.9406 5.22885 23.2977 4.69439C23.6548 4.15993 24.1624 3.74337 24.7563 3.49738C25.3501 3.2514 26.0036 3.18704 26.634 3.31244C27.2645 3.43784 27.8436 3.74737 28.2981 4.20189C28.7526 4.65641 29.0621 5.23551 29.1876 5.86595C29.313 6.49639 29.2486 7.14985 29.0026 7.74371C28.7566 8.33757 28.3401 8.84515 27.8056 9.20227C27.2711 9.55938 26.6428 9.74999 26 9.74999C25.138 9.74999 24.3114 9.40758 23.7019 8.79809C23.0924 8.1886 22.75 7.36195 22.75 6.49999ZM26 13C27.8731 12.9996 29.6887 13.6464 31.1397 14.8309C32.5907 16.0153 33.5879 17.6648 33.9625 19.5H18.0375C18.4121 17.6648 19.4093 16.0153 20.8603 14.8309C22.3113 13.6464 24.1269 12.9996 26 13Z" fill="#002152"/>
<path d="M16.25 40.0887C17.0969 39.1569 17.655 37.9992 17.8564 36.7562C18.0577 35.5132 17.8937 34.2385 17.3842 33.0869C16.8748 31.9354 16.0418 30.9566 14.9865 30.2696C13.9313 29.5825 12.6992 29.2168 11.44 29.2168C10.1808 29.2168 8.94871 29.5825 7.89346 30.2696C6.83821 30.9566 6.00524 31.9354 5.49577 33.0869C4.98631 34.2385 4.82229 35.5132 5.02364 36.7562C5.22499 37.9992 5.78305 39.1569 6.63 40.0887C4.65948 40.9931 2.98848 42.4419 1.81384 44.2643C0.639214 46.0867 0.00988678 48.2069 0 50.375C0 50.806 0.171205 51.2193 0.475951 51.524C0.780698 51.8288 1.19402 52 1.625 52H14.625C15.056 52 15.4693 51.8288 15.774 51.524C16.0788 51.2193 16.25 50.806 16.25 50.375C16.25 49.944 16.0788 49.5307 15.774 49.2259C15.4693 48.9212 15.056 48.75 14.625 48.75H3.4125C3.81346 46.7754 4.93383 45.0202 6.55611 43.8251C8.17838 42.6301 10.1868 42.0805 12.1916 42.283C14.1963 42.4855 16.0542 43.4256 17.4048 44.921C18.7553 46.4163 19.502 48.3601 19.5 50.375C19.5 50.806 19.6712 51.2193 19.976 51.524C20.2807 51.8288 20.694 52 21.125 52C21.556 52 21.9693 51.8288 22.274 51.524C22.5788 51.2193 22.75 50.806 22.75 50.375C22.7517 48.2209 22.1417 46.1107 20.991 44.2897C19.8403 42.4687 18.1962 41.0119 16.25 40.0887ZM8.125 35.75C8.125 35.1072 8.31561 34.4788 8.67272 33.9444C9.02984 33.4099 9.53742 32.9934 10.1313 32.7474C10.7251 32.5014 11.3786 32.437 12.009 32.5624C12.6395 32.6878 13.2186 32.9974 13.6731 33.4519C14.1276 33.9064 14.4371 34.4855 14.5626 35.1159C14.688 35.7464 14.6236 36.3999 14.3776 36.9937C14.1316 37.5876 13.7151 38.0952 13.1806 38.4523C12.6461 38.8094 12.0178 39 11.375 39C10.513 39 9.6864 38.6576 9.0769 38.0481C8.46741 37.4386 8.125 36.6119 8.125 35.75Z" fill="#002152"/>
<path d="M45.5 40.0887C46.3469 39.1569 46.905 37.9992 47.1064 36.7562C47.3077 35.5132 47.1437 34.2385 46.6342 33.0869C46.1248 31.9354 45.2918 30.9566 44.2365 30.2696C43.1813 29.5825 41.9492 29.2168 40.69 29.2168C39.4308 29.2168 38.1987 29.5825 37.1435 30.2696C36.0882 30.9566 35.2552 31.9354 34.7458 33.0869C34.2363 34.2385 34.0723 35.5132 34.2736 36.7562C34.475 37.9992 35.0331 39.1569 35.88 40.0887C33.9095 40.9931 32.2385 42.4419 31.0638 44.2643C29.8892 46.0867 29.2599 48.2069 29.25 50.375C29.25 50.806 29.4212 51.2193 29.726 51.524C30.0307 51.8288 30.444 52 30.875 52H50.375C50.806 52 51.2193 51.8288 51.524 51.524C51.8288 51.2193 52 50.806 52 50.375C52.0017 48.2209 51.3917 46.1107 50.241 44.2897C49.0903 42.4687 47.4462 41.0119 45.5 40.0887ZM37.375 35.75C37.375 35.1072 37.5656 34.4788 37.9227 33.9444C38.2798 33.4099 38.7874 32.9934 39.3813 32.7474C39.9751 32.5014 40.6286 32.437 41.259 32.5624C41.8895 32.6878 42.4686 32.9974 42.9231 33.4519C43.3776 33.9064 43.6871 34.4855 43.8126 35.1159C43.938 35.7464 43.8736 36.3999 43.6276 36.9937C43.3816 37.5876 42.9651 38.0952 42.4306 38.4523C41.8961 38.8094 41.2678 39 40.625 39C39.763 39 38.9364 38.6576 38.3269 38.0481C37.7174 37.4386 37.375 36.6119 37.375 35.75ZM32.6625 48.75C33.0355 46.9133 34.0319 45.262 35.4831 44.0759C36.9342 42.8898 38.7508 42.2418 40.625 42.2418C42.4992 42.2418 44.3158 42.8898 45.7669 44.0759C47.2181 45.262 48.2145 46.9133 48.5875 48.75H32.6625Z" fill="#002152"/>
<path d="M22.75 37.375C22.4272 37.3769 22.1112 37.2826 21.8423 37.1042C21.5733 36.9257 21.3635 36.6712 21.2398 36.3732C21.116 36.0751 21.0838 35.7469 21.1473 35.4304C21.2108 35.1139 21.3671 34.8235 21.5963 34.5962L24.375 31.8337V27.625C24.375 27.194 24.5462 26.7807 24.851 26.4759C25.1557 26.1712 25.569 26 26 26C26.431 26 26.8443 26.1712 27.149 26.4759C27.4538 26.7807 27.625 27.194 27.625 27.625C27.625 32.9225 27.7712 33.02 27.1537 33.6537C23.6112 37.1962 23.6275 37.375 22.75 37.375Z" fill="#002152"/>
<path d="M29.25 37.375C28.3725 37.375 28.3237 37.1312 24.8463 33.6537C24.5403 33.3477 24.3684 32.9327 24.3684 32.5C24.3684 32.0673 24.5403 31.6522 24.8463 31.3462C25.1522 31.0402 25.5673 30.8683 26 30.8683C26.4327 30.8683 26.8478 31.0402 27.1537 31.3462L30.4037 34.5962C30.6329 34.8235 30.7892 35.1139 30.8527 35.4304C30.9162 35.7468 30.884 36.0751 30.7602 36.3731C30.6365 36.6712 30.4267 36.9257 30.1577 37.1042C29.8888 37.2826 29.5728 37.3769 29.25 37.375Z" fill="#002152"/>
</g>
<defs>
<clipPath id="clip0_5038_291">
<rect width="52" height="52" fill="white"/>
</clipPath>
</defs>
</svg>
