<svg width="63" height="64" viewBox="0 0 63 64" fill="none" xmlns="http://www.w3.org/2000/svg">
<rect x="0.5" y="0.923462" width="62" height="62" rx="31" fill="white" stroke="#F4F4F4"/>
<g clip-path="url(#clip0_5066_14859)">
<path d="M29.4953 25.4087C29.4953 25.1619 29.3973 24.9252 29.2227 24.7506C29.0482 24.5761 28.8115 24.478 28.5646 24.478H24.8419C24.5951 24.478 24.3584 24.5761 24.1838 24.7506C24.0093 24.9252 23.9112 25.1619 23.9112 25.4087V29.1315C23.9112 29.3783 24.0093 29.615 24.1838 29.7895C24.3584 29.9641 24.5951 30.0621 24.8419 30.0621H28.5646C28.8115 30.0621 29.0482 29.9641 29.2227 29.7895C29.3973 29.615 29.4953 29.3783 29.4953 29.1315V25.4087ZM27.634 28.2008H25.7726V26.3394H27.634V28.2008Z" fill="#7C54FA"/>
<path d="M36.9408 25.4087C36.9408 25.1619 36.8427 24.9252 36.6682 24.7506C36.4937 24.5761 36.2569 24.478 36.0101 24.478H32.2874C32.0405 24.478 31.8038 24.5761 31.6293 24.7506C31.4547 24.9252 31.3567 25.1619 31.3567 25.4087V29.1315C31.3567 29.3783 31.4547 29.615 31.6293 29.7895C31.8038 29.9641 32.0405 30.0621 32.2874 30.0621H36.0101C36.2569 30.0621 36.4937 29.9641 36.6682 29.7895C36.8427 29.615 36.9408 29.3783 36.9408 29.1315V25.4087ZM35.0794 28.2008H33.2181V26.3394H35.0794V28.2008Z" fill="#7C54FA"/>
<path d="M28.5646 31.9235H24.8419C24.5951 31.9235 24.3584 32.0216 24.1838 32.1961C24.0093 32.3706 23.9112 32.6074 23.9112 32.8542V36.5769C23.9112 36.8237 24.0093 37.0605 24.1838 37.235C24.3584 37.4095 24.5951 37.5076 24.8419 37.5076H28.5646C28.8115 37.5076 29.0482 37.4095 29.2227 37.235C29.3973 37.0605 29.4953 36.8237 29.4953 36.5769V32.8542C29.4953 32.6074 29.3973 32.3706 29.2227 32.1961C29.0482 32.0216 28.8115 31.9235 28.5646 31.9235ZM27.634 35.6462H25.7726V33.7849H27.634V35.6462Z" fill="#7C54FA"/>
<path d="M36.0101 31.9235H32.2874C32.0405 31.9235 31.8038 32.0216 31.6293 32.1961C31.4547 32.3706 31.3567 32.6074 31.3567 32.8542V36.5769C31.3567 36.8237 31.4547 37.0605 31.6293 37.235C31.8038 37.4095 32.0405 37.5076 32.2874 37.5076H36.0101C36.2569 37.5076 36.4937 37.4095 36.6682 37.235C36.8427 37.0605 36.9408 36.8237 36.9408 36.5769V32.8542C36.9408 32.6074 36.8427 32.3706 36.6682 32.1961C36.4937 32.0216 36.2569 31.9235 36.0101 31.9235ZM35.0794 35.6462H33.2181V33.7849H35.0794V35.6462Z" fill="#7C54FA"/>
<path d="M41.5942 44.953H40.6635V43.3244C40.6635 43.0775 40.5655 42.8408 40.3909 42.6663C40.2164 42.4917 39.9797 42.3937 39.7328 42.3937C39.486 42.3937 39.2493 42.4917 39.0747 42.6663C38.9002 42.8408 38.8021 43.0775 38.8021 43.3244V44.953H36.0101V40.2996C36.0101 40.0528 35.9121 39.8161 35.7375 39.6415C35.563 39.467 35.3263 39.369 35.0794 39.369H25.7726C25.5258 39.369 25.289 39.467 25.1145 39.6415C24.94 39.8161 24.8419 40.0528 24.8419 40.2996V44.953H22.0499V23.5474C22.0499 23.3005 22.1479 23.0638 22.3225 22.8893C22.497 22.7147 22.7337 22.6167 22.9806 22.6167H37.8715C38.1183 22.6167 38.355 22.7147 38.5296 22.8893C38.7041 23.0638 38.8021 23.3005 38.8021 23.5474V30.3879C38.8021 30.6347 38.9002 30.8714 39.0747 31.046C39.2493 31.2205 39.486 31.3186 39.7328 31.3186C39.9797 31.3186 40.2164 31.2205 40.3909 31.046C40.5655 30.8714 40.6635 30.6347 40.6635 30.3879V23.5474C40.6635 22.8069 40.3694 22.0967 39.8457 21.5731C39.3221 21.0495 38.612 20.7553 37.8715 20.7553V19.8246C37.8715 19.0841 37.5773 18.374 37.0537 17.8504C36.5301 17.3268 35.8199 17.0326 35.0794 17.0326H25.7726C25.0321 17.0326 24.3219 17.3268 23.7983 17.8504C23.2747 18.374 22.9806 19.0841 22.9806 19.8246V20.7553C22.2401 20.7553 21.5299 21.0495 21.0063 21.5731C20.4827 22.0967 20.1885 22.8069 20.1885 23.5474V44.953H19.2578C19.011 44.953 18.7743 45.0511 18.5997 45.2256C18.4252 45.4002 18.3271 45.6369 18.3271 45.8837C18.3271 46.1306 18.4252 46.3673 18.5997 46.5418C18.7743 46.7164 19.011 46.8144 19.2578 46.8144H41.5942C41.841 46.8144 42.0777 46.7164 42.2523 46.5418C42.4268 46.3673 42.5249 46.1306 42.5249 45.8837C42.5249 45.6369 42.4268 45.4002 42.2523 45.2256C42.0777 45.0511 41.841 44.953 41.5942 44.953ZM24.8419 19.8246C24.8419 19.5778 24.94 19.3411 25.1145 19.1665C25.289 18.992 25.5258 18.894 25.7726 18.894H35.0794C35.3263 18.894 35.563 18.992 35.7375 19.1665C35.9121 19.3411 36.0101 19.5778 36.0101 19.8246V20.7553H24.8419V19.8246ZM26.7033 44.953V41.2303H34.1487V44.953H26.7033Z" fill="#7C54FA"/>
<path d="M40.859 46.4608C40.2726 45.6976 35.0794 38.9501 35.0794 35.6462C35.0794 33.9184 35.7658 32.2613 36.9876 31.0396C38.2093 29.8178 39.8664 29.1315 41.5942 29.1315C43.322 29.1315 44.9791 29.8178 46.2008 31.0396C47.4226 32.2613 48.109 33.9184 48.109 35.6462C48.109 38.9501 42.9158 45.6976 42.3294 46.4608C42.2424 46.5728 42.131 46.6636 42.0035 46.726C41.8761 46.7884 41.7361 46.8208 41.5942 46.8208C41.4523 46.8208 41.3123 46.7884 41.1849 46.726C41.0574 46.6636 40.9459 46.5728 40.859 46.4608ZM41.5942 30.9928C40.36 30.9928 39.1764 31.4831 38.3037 32.3558C37.4311 33.2285 36.9408 34.4121 36.9408 35.6462C36.9408 37.4331 39.5467 41.5747 41.5942 44.3388C43.6417 41.5468 46.2476 37.4331 46.2476 35.6462C46.2476 34.4121 45.7573 33.2285 44.8847 32.3558C44.012 31.4831 42.8284 30.9928 41.5942 30.9928Z" fill="#7C54FA"/>
<path d="M41.5942 38.4383C41.042 38.4383 40.5022 38.2745 40.043 37.9677C39.5839 37.6609 39.226 37.2249 39.0147 36.7147C38.8034 36.2045 38.7481 35.6431 38.8558 35.1015C38.9635 34.5599 39.2294 34.0624 39.6199 33.672C40.0104 33.2815 40.5079 33.0156 41.0495 32.9078C41.5911 32.8001 42.1525 32.8554 42.6627 33.0667C43.1728 33.278 43.6089 33.6359 43.9157 34.0951C44.2225 34.5542 44.3862 35.094 44.3862 35.6462C44.3862 36.3867 44.0921 37.0969 43.5685 37.6205C43.0449 38.1441 42.3347 38.4383 41.5942 38.4383ZM41.5942 34.7155C41.4101 34.7155 41.2302 34.7701 41.0771 34.8724C40.9241 34.9747 40.8048 35.12 40.7344 35.2901C40.6639 35.4601 40.6455 35.6473 40.6814 35.8278C40.7173 36.0083 40.8059 36.1742 40.9361 36.3043C41.0663 36.4345 41.2321 36.5231 41.4126 36.559C41.5932 36.5949 41.7803 36.5765 41.9503 36.5061C42.1204 36.4356 42.2658 36.3163 42.368 36.1633C42.4703 36.0102 42.5249 35.8303 42.5249 35.6462C42.5249 35.3994 42.4268 35.1627 42.2523 34.9881C42.0777 34.8136 41.841 34.7155 41.5942 34.7155Z" fill="#7C54FA"/>
</g>
<defs>
<clipPath id="clip0_5066_14859">
<rect width="29.7818" height="29.7818" fill="white" transform="translate(18.3271 17.0326)"/>
</clipPath>
</defs>
</svg>
