<svg width="63" height="63" viewBox="0 0 63 63" fill="none" xmlns="http://www.w3.org/2000/svg">
<rect x="0.5" y="0.5" width="62" height="62" rx="31" fill="white" stroke="#F4F4F4"/>
<g clip-path="url(#clip0_5066_14848)">
<path d="M29.6388 30.5694H25.916C25.6692 30.5694 25.4325 30.4713 25.2579 30.2968C25.0834 30.1222 24.9854 29.8855 24.9854 29.6387C24.9854 29.3919 25.0834 29.1551 25.2579 28.9806C25.4325 28.8061 25.6692 28.708 25.916 28.708H29.6388C29.8856 28.708 30.1223 28.8061 30.2969 28.9806C30.4714 29.1551 30.5694 29.3919 30.5694 29.6387C30.5694 29.8855 30.4714 30.1222 30.2969 30.2968C30.1223 30.4713 29.8856 30.5694 29.6388 30.5694Z" fill="#7C54FA"/>
<path d="M29.6388 38.0148H25.916C25.6692 38.0148 25.4325 37.9168 25.2579 37.7422C25.0834 37.5677 24.9854 37.331 24.9854 37.0841C24.9854 36.8373 25.0834 36.6006 25.2579 36.426C25.4325 36.2515 25.6692 36.1534 25.916 36.1534H29.6388C29.8856 36.1534 30.1223 36.2515 30.2969 36.426C30.4714 36.6006 30.5694 36.8373 30.5694 37.0841C30.5694 37.331 30.4714 37.5677 30.2969 37.7422C30.1223 37.9168 29.8856 38.0148 29.6388 38.0148Z" fill="#7C54FA"/>
<path d="M40.8067 34.292H37.084C36.8372 34.292 36.6004 34.194 36.4259 34.0194C36.2514 33.8449 36.1533 33.6082 36.1533 33.3613C36.1533 33.1145 36.2514 32.8778 36.4259 32.7033C36.6004 32.5287 36.8372 32.4307 37.084 32.4307H40.8067C41.0536 32.4307 41.2903 32.5287 41.4648 32.7033C41.6394 32.8778 41.7374 33.1145 41.7374 33.3613C41.7374 33.6082 41.6394 33.8449 41.4648 34.0194C41.2903 34.194 41.0536 34.292 40.8067 34.292Z" fill="#7C54FA"/>
<path d="M40.8068 30.5694H33.3613C33.1145 30.5694 32.8778 30.4713 32.7033 30.2968C32.5287 30.1222 32.4307 29.8855 32.4307 29.6387C32.4307 29.3919 32.5287 29.1551 32.7033 28.9806C32.8778 28.8061 33.1145 28.708 33.3613 28.708H40.8068C41.0536 28.708 41.2904 28.8061 41.4649 28.9806C41.6394 29.1551 41.7375 29.3919 41.7375 29.6387C41.7375 29.8855 41.6394 30.1222 41.4649 30.2968C41.2904 30.4713 41.0536 30.5694 40.8068 30.5694Z" fill="#7C54FA"/>
<path d="M40.8068 38.0148H33.3613C33.1145 38.0148 32.8778 37.9168 32.7033 37.7422C32.5287 37.5677 32.4307 37.331 32.4307 37.0841C32.4307 36.8373 32.5287 36.6006 32.7033 36.426C32.8778 36.2515 33.1145 36.1534 33.3613 36.1534H40.8068C41.0536 36.1534 41.2904 36.2515 41.4649 36.426C41.6394 36.6006 41.7375 36.8373 41.7375 37.0841C41.7375 37.331 41.6394 37.5677 41.4649 37.7422C41.2904 37.9168 41.0536 38.0148 40.8068 38.0148Z" fill="#7C54FA"/>
<path d="M33.3615 34.292H25.916C25.6692 34.292 25.4325 34.194 25.2579 34.0194C25.0834 33.8449 24.9854 33.6082 24.9854 33.3613C24.9854 33.1145 25.0834 32.8778 25.2579 32.7033C25.4325 32.5287 25.6692 32.4307 25.916 32.4307H33.3615C33.6083 32.4307 33.845 32.5287 34.0196 32.7033C34.1941 32.8778 34.2922 33.1145 34.2922 33.3613C34.2922 33.6082 34.1941 33.8449 34.0196 34.0194C33.845 34.194 33.6083 34.292 33.3615 34.292Z" fill="#7C54FA"/>
<path d="M42.6684 24.0546H41.7378V23.1239C41.7378 22.3834 41.4436 21.6732 40.92 21.1496C40.3964 20.626 39.6862 20.3319 38.9457 20.3319H27.3122L24.7994 16.9814C24.7127 16.8658 24.6003 16.772 24.471 16.7074C24.3418 16.6428 24.1993 16.6091 24.0548 16.6091C23.9103 16.6091 23.7678 16.6428 23.6386 16.7074C23.5094 16.772 23.397 16.8658 23.3103 16.9814L20.7974 20.3319H20.3321C19.5916 20.3319 18.8814 20.626 18.3578 21.1496C17.8342 21.6732 17.54 22.3834 17.54 23.1239V36.1535C17.54 36.8939 17.8342 37.6041 18.3578 38.1277C18.8814 38.6513 19.5916 38.9455 20.3321 38.9455H21.2628V39.8762C21.2628 40.6167 21.5569 41.3268 22.0805 41.8505C22.6041 42.3741 23.3143 42.6682 24.0548 42.6682H31.5003C31.7471 42.6682 31.9838 42.5702 32.1584 42.3956C32.3329 42.2211 32.4309 41.9844 32.4309 41.7375C32.4309 41.4907 32.3329 41.254 32.1584 41.0794C31.9838 40.9049 31.7471 40.8069 31.5003 40.8069H24.0548C23.808 40.8069 23.5713 40.7088 23.3967 40.5343C23.2222 40.3597 23.1241 40.123 23.1241 39.8762V26.8466C23.1241 26.5998 23.2222 26.3631 23.3967 26.1885C23.5713 26.014 23.808 25.9159 24.0548 25.9159H42.6684C42.9153 25.9159 43.152 26.014 43.3265 26.1885C43.5011 26.3631 43.5991 26.5998 43.5991 26.8466V39.8762C43.5991 40.123 43.5011 40.3597 43.3265 40.5343C43.152 40.7088 42.9153 40.8069 42.6684 40.8069H40.8071C40.6626 40.8069 40.5201 40.8405 40.3909 40.9051C40.2616 40.9697 40.1492 41.0635 40.0625 41.1791L38.015 43.906L35.9675 41.1791C35.8194 40.9817 35.599 40.8511 35.3546 40.8162C35.1103 40.7813 34.862 40.8449 34.6646 40.993C34.4671 41.1411 34.3366 41.3616 34.3017 41.6059C34.2668 41.8503 34.3303 42.0985 34.4784 42.2959L37.2705 46.0187C37.3572 46.1343 37.4696 46.2281 37.5988 46.2927C37.7281 46.3573 37.8706 46.3909 38.015 46.3909C38.1595 46.3909 38.302 46.3573 38.4313 46.2927C38.5605 46.2281 38.6729 46.1343 38.7596 46.0187L41.2724 42.6682H42.6684C43.4089 42.6682 44.1191 42.3741 44.6427 41.8505C45.1663 41.3268 45.4605 40.6167 45.4605 39.8762V26.8466C45.4605 26.1061 45.1663 25.396 44.6427 24.8724C44.1191 24.3487 43.4089 24.0546 42.6684 24.0546ZM21.2628 26.8466V37.0841H20.3321C20.0853 37.0841 19.8485 36.9861 19.674 36.8115C19.4995 36.637 19.4014 36.4003 19.4014 36.1535V23.1239C19.4014 22.8771 19.4995 22.6403 19.674 22.4658C19.8485 22.2913 20.0853 22.1932 20.3321 22.1932C21.3558 22.1932 21.6816 22.2584 22.0073 21.8209L24.0548 19.0941L26.1023 21.8209C26.189 21.9365 26.3014 22.0304 26.4306 22.095C26.5599 22.1596 26.7024 22.1932 26.8469 22.1932H38.9457C39.1926 22.1932 39.4293 22.2913 39.6038 22.4658C39.7783 22.6403 39.8764 22.8771 39.8764 23.1239V24.0546H24.0548C23.3143 24.0546 22.6041 24.3487 22.0805 24.8724C21.5569 25.396 21.2628 26.1061 21.2628 26.8466Z" fill="#7C54FA"/>
</g>
<defs>
<clipPath id="clip0_5066_14848">
<rect width="29.7818" height="29.7818" fill="white" transform="translate(16.6094 16.6091)"/>
</clipPath>
</defs>
</svg>
