<svg width="55" height="55" viewBox="0 0 55 55" fill="none" xmlns="http://www.w3.org/2000/svg">
<rect x="1.5" y="1.5" width="52" height="52" rx="26" fill="#DF5B50"/>
<rect x="1.5" y="1.5" width="52" height="52" rx="26" stroke="#BF0F00" stroke-width="3"/>
<path d="M36.5855 37.3475C37.2844 36.6275 37.2839 35.4822 36.5844 34.7627L29.7994 27.784L37.1357 20.2372C37.8351 19.5177 37.8355 18.3724 37.1366 17.6524C36.4084 16.9023 35.2045 16.9019 34.4758 17.6515L27.2125 25.1232L20.5233 18.2429C19.7946 17.4934 18.5907 17.4939 17.8625 18.244C17.1637 18.9641 17.1641 20.1093 17.8636 20.8288L24.6258 27.7841L18.4157 34.1724C17.7163 34.8919 17.7159 36.0371 18.4148 36.7571L18.7736 36.4089L18.4148 36.7571C19.143 37.5072 20.3469 37.5077 21.0756 36.7581L27.2127 30.4449L33.9247 37.3486C34.6534 38.0982 35.8574 38.0977 36.5855 37.3475Z" fill="white" stroke="white"/>
</svg>
