<svg width="45" height="39" viewBox="0 0 45 39" fill="none" xmlns="http://www.w3.org/2000/svg">
<g clip-path="url(#clip0_5017_1251)">
<path d="M9.96387 12.1809C13.4158 15.5619 15.515 20.238 15.7261 25.0178C15.9372 29.7977 14.2591 34.6348 11.1185 38.2956C14.7741 37.4574 17.9051 34.6248 19.0954 31.1321C20.2857 27.6401 19.7904 23.7073 18.1236 20.4084C16.4562 17.1095 13.5403 14.0138 9.96387 12.1803V12.1809Z" fill="#002152"/>
<path d="M21.1556 38.9828C25.834 34.5049 23.801 23.1411 20.2104 18.7959C31.9115 26.9074 28.1064 39.534 21.1556 38.9828Z" fill="#002152"/>
<path d="M44.9971 28.5926C45.1398 19.0972 39.8048 11.1894 32.2037 7.49976C37.1453 8.54278 42.8119 11.8961 44.8828 13.3565C38.129 5.00631 27.1671 -0.365292 16.3064 0.0193851C13.6152 0.11486 9.23961 0.808167 8.44837 2.84035L9.06812 3.91111C8.22311 3.7951 4.13503 3.72738 2.34597 4.54392C-1.2548 6.18809 -0.247921 10.3069 2.27126 11.9216C0.631613 5.42262 30.3688 12.7931 34.1405 33.272C35.9935 29.8848 35.44 20.5693 33.7805 16.636C42.2635 20.6609 44.9977 28.5926 44.9977 28.5926H44.9971ZM15.1688 4.04378C14.4161 3.84006 14.3697 3.36491 12.816 3.4354C14.587 2.35742 17.0898 2.44623 19.2892 3.36935C17.7695 3.27776 16.6817 4.45233 15.1688 4.04378Z" fill="#002152"/>
</g>
<defs>
<clipPath id="clip0_5017_1251">
<rect width="45" height="39" fill="white"/>
</clipPath>
</defs>
</svg>
