<svg width="190" height="67" viewBox="0 0 190 67" fill="none" xmlns="http://www.w3.org/2000/svg">
<g clip-path="url(#clip0_5402_1178)">
<path d="M132.442 21.1208C138.063 26.8426 141.482 34.7559 141.826 42.8449C142.17 50.934 139.437 59.1197 134.322 65.3149C140.275 63.8965 145.374 59.1028 147.313 53.1922C149.251 47.2826 148.445 40.6271 145.73 35.0443C143.015 29.4616 138.266 24.2226 132.442 21.1199V21.1208Z" fill="white"/>
<path d="M150.668 66.4779C158.287 58.8999 154.976 39.6689 149.129 32.3154C168.185 46.0426 161.988 67.4107 150.668 66.4779Z" fill="white"/>
<path d="M189.495 48.8945C189.728 32.8255 181.039 19.4431 168.66 13.199C176.708 14.9641 185.936 20.6389 189.309 23.1104C178.31 8.97929 160.458 -0.111106 142.77 0.539886C138.388 0.701459 131.262 1.87475 129.973 5.31382L130.982 7.12589C129.606 6.92956 122.948 6.81495 120.035 8.19678C114.171 10.9792 115.81 17.9494 119.913 20.6821C117.243 9.68382 165.672 22.1569 171.814 56.8135C174.832 51.0814 173.931 35.3167 171.228 28.6603C185.043 35.4717 189.496 48.8945 189.496 48.8945H189.495ZM140.918 7.3504C139.692 7.00565 139.616 6.20154 137.086 6.32084C139.97 4.49656 144.046 4.64686 147.628 6.20905C145.153 6.05405 143.382 8.04179 140.918 7.3504Z" fill="white"/>
</g>
<path d="M2.94085 61.815H10.0424V64.1765H0.5V49.605H9.94196V51.9665H2.94085V55.6687H9.25893V58.0303H2.94085V61.815Z" fill="white"/>
<path d="M22.0759 49.605H24.5268V64.1765H22.0357L14.9342 53.8744V64.1765H12.4933V49.605H14.9743L22.0759 59.9072V49.605Z" fill="white"/>
<path d="M37.6551 49.605V51.9665H33.3761V64.1765H30.9252V51.9665H26.6261V49.605H37.6551Z" fill="white"/>
<path d="M42.1953 61.815H49.2969V64.1765H39.7545V49.605H49.1964V51.9665H42.1953V55.6687H48.5134V58.0303H42.1953V61.815Z" fill="white"/>
<path d="M59.7031 64.1765L56.0469 58.7522H54.1886V64.1765H51.7478V49.605H57.644C58.9699 49.605 60.0781 50.045 60.9688 50.925C61.8661 51.805 62.3147 52.905 62.3147 54.225C62.3147 55.325 61.99 56.2737 61.3404 57.0712C60.6975 57.8687 59.8571 58.3844 58.8192 58.6181L62.6462 64.1765H59.7031ZM54.1886 51.9665V56.5556H57.6038C58.2333 56.5556 58.7556 56.3356 59.1708 55.8956C59.5926 55.4487 59.8036 54.8987 59.8036 54.2456C59.8036 53.5925 59.5926 53.0494 59.1708 52.6162C58.7556 52.1831 58.2333 51.9665 57.6038 51.9665H54.1886Z" fill="white"/>
<path d="M70.6719 49.605C71.5558 49.605 72.3594 49.8112 73.0826 50.2237C73.8125 50.6294 74.385 51.1965 74.8002 51.9253C75.2154 52.654 75.423 53.4653 75.423 54.359C75.423 55.7065 74.9676 56.8306 74.0569 57.7312C73.1462 58.6319 72.0179 59.0822 70.6719 59.0822H67.0859V64.1765H64.6451V49.605H70.6719ZM70.6317 56.7206C71.2812 56.7206 71.8237 56.4972 72.2589 56.0503C72.6942 55.5965 72.9118 55.0328 72.9118 54.359C72.9118 53.6715 72.6942 53.1009 72.2589 52.6472C71.8237 52.1934 71.2812 51.9665 70.6317 51.9665H67.0859V56.7206H70.6317Z" fill="white"/>
<path d="M85.4375 64.1765L81.7812 58.7522H79.923V64.1765H77.4821V49.605H83.3783C84.7042 49.605 85.8125 50.045 86.7031 50.925C87.6004 51.805 88.0491 52.905 88.0491 54.225C88.0491 55.325 87.7243 56.2737 87.0748 57.0712C86.4319 57.8687 85.5915 58.3844 84.5536 58.6181L88.3806 64.1765H85.4375ZM79.923 51.9665V56.5556H83.3382C83.9676 56.5556 84.49 56.3356 84.9051 55.8956C85.327 55.4487 85.5379 54.8987 85.5379 54.2456C85.5379 53.5925 85.327 53.0494 84.9051 52.6162C84.49 52.1831 83.9676 51.9665 83.3382 51.9665H79.923Z" fill="white"/>
<path d="M90.3795 64.1765V49.605H92.8203V64.1765H90.3795Z" fill="white"/>
<path d="M100.675 64.4344C99.6038 64.4344 98.5491 64.2281 97.5112 63.8156C96.4732 63.3962 95.606 62.8394 94.9096 62.145L96.1853 60.2269C96.7545 60.8112 97.4375 61.2822 98.2344 61.6397C99.0379 61.9903 99.8516 62.1656 100.675 62.1656C101.499 62.1656 102.192 61.9834 102.754 61.619C103.317 61.2547 103.598 60.7837 103.598 60.2062C103.598 59.9794 103.551 59.7697 103.458 59.5772C103.364 59.3778 103.223 59.2059 103.036 59.0615C102.848 58.9172 102.661 58.7934 102.473 58.6903C102.286 58.5803 102.041 58.4806 101.74 58.3912C101.445 58.295 101.201 58.2228 101.007 58.1747C100.819 58.1197 100.571 58.0578 100.263 57.989C99.5804 57.824 98.9609 57.6247 98.4051 57.3909C97.8493 57.1503 97.3371 56.8547 96.8683 56.504C96.3996 56.1534 96.0346 55.7272 95.7734 55.2253C95.5123 54.7165 95.3817 54.1528 95.3817 53.534C95.3817 52.2828 95.8705 51.2722 96.8482 50.5022C97.8259 49.7322 99.0949 49.3472 100.655 49.3472C101.653 49.3472 102.57 49.5122 103.407 49.8422C104.244 50.1722 104.931 50.6122 105.467 51.1622L104.311 53.07C103.91 52.6437 103.371 52.2931 102.694 52.0181C102.025 51.7431 101.331 51.6056 100.615 51.6056C99.8248 51.6056 99.1752 51.7775 98.6663 52.1212C98.1641 52.465 97.9129 52.9084 97.9129 53.4515C97.9129 54.4484 98.9275 55.1565 100.956 55.5759C101.211 55.6309 101.449 55.6894 101.67 55.7512C101.891 55.8131 102.185 55.9094 102.554 56.04C102.922 56.1706 103.253 56.3115 103.548 56.4628C103.843 56.614 104.154 56.8134 104.482 57.0609C104.817 57.3015 105.095 57.5628 105.316 57.8447C105.544 58.1197 105.731 58.4531 105.878 58.845C106.026 59.2369 106.099 59.6562 106.099 60.1031C106.099 61.375 105.584 62.4165 104.552 63.2278C103.521 64.0322 102.229 64.4344 100.675 64.4344Z" fill="white"/>
<path d="M110.619 61.815H117.721V64.1765H108.179V49.605H117.621V51.9665H110.619V55.6687H116.938V58.0303H110.619V61.815Z" fill="white"/>
<path d="M124.983 64.4344C123.912 64.4344 122.857 64.2281 121.819 63.8156C120.781 63.3962 119.914 62.8394 119.218 62.145L120.493 60.2269C121.062 60.8112 121.746 61.2822 122.542 61.6397C123.346 61.9903 124.16 62.1656 124.983 62.1656C125.807 62.1656 126.5 61.9834 127.062 61.619C127.625 61.2547 127.906 60.7837 127.906 60.2062C127.906 59.9794 127.859 59.7697 127.766 59.5772C127.672 59.3778 127.531 59.2059 127.344 59.0615C127.156 58.9172 126.969 58.7934 126.781 58.6903C126.594 58.5803 126.349 58.4806 126.048 58.3912C125.753 58.295 125.509 58.2228 125.315 58.1747C125.127 58.1197 124.879 58.0578 124.571 57.989C123.888 57.824 123.269 57.6247 122.713 57.3909C122.157 57.1503 121.645 56.8547 121.176 56.504C120.708 56.1534 120.343 55.7272 120.081 55.2253C119.82 54.7165 119.69 54.1528 119.69 53.534C119.69 52.2828 120.179 51.2722 121.156 50.5022C122.134 49.7322 123.403 49.3472 124.963 49.3472C125.961 49.3472 126.878 49.5122 127.715 49.8422C128.552 50.1722 129.239 50.6122 129.775 51.1622L128.619 53.07C128.218 52.6437 127.679 52.2931 127.002 52.0181C126.333 51.7431 125.64 51.6056 124.923 51.6056C124.133 51.6056 123.483 51.7775 122.974 52.1212C122.472 52.465 122.221 52.9084 122.221 53.4515C122.221 54.4484 123.235 55.1565 125.265 55.5759C125.519 55.6309 125.757 55.6894 125.978 55.7512C126.199 55.8131 126.493 55.9094 126.862 56.04C127.23 56.1706 127.561 56.3115 127.856 56.4628C128.151 56.614 128.462 56.8134 128.79 57.0609C129.125 57.3015 129.403 57.5628 129.624 57.8447C129.852 58.1197 130.039 58.4531 130.186 58.845C130.334 59.2369 130.407 59.6562 130.407 60.1031C130.407 61.375 129.892 62.4165 128.86 63.2278C127.829 64.0322 126.537 64.4344 124.983 64.4344Z" fill="white"/>
<path d="M20.5649 15.5008H24.1201L13.9922 42.2734H10.5932L0.5 15.5008H4.12452L12.3621 37.6503L20.5649 15.5008Z" fill="white"/>
<path d="M27.7446 42.2734V15.5008H31.0049V42.2734H27.7446Z" fill="white"/>
<path d="M50.9311 42.2734L43.6127 31.6439H40.0229V42.2734H36.7625V15.5008H46.6996C48.8732 15.5008 50.6883 16.2776 52.1451 17.8313C53.6134 19.385 54.3475 21.3239 54.3475 23.6482C54.3475 25.8082 53.6885 27.6397 52.3705 29.1429C51.0641 30.6334 49.4108 31.4545 47.4106 31.606L54.8678 42.2734H50.9311ZM40.0229 18.8355V28.5366H46.6302C47.8789 28.5366 48.9194 28.0755 49.7518 27.1534C50.5843 26.2313 51.0005 25.0755 51.0005 23.686C51.0005 22.2966 50.5843 21.1408 49.7518 20.2187C48.9194 19.2966 47.8789 18.8355 46.6302 18.8355H40.0229Z" fill="white"/>
<path d="M75.0714 15.5008V18.8355H67.2154V42.2734H63.9898V18.8355H56.1338V15.5008H75.0714Z" fill="white"/>
<path d="M79.0081 42.2734V15.5008H82.2684V42.2734H79.0081Z" fill="white"/>
<path d="M99.5239 42.7471C97.7203 42.7471 96.0266 42.3934 94.4427 41.686C92.8587 40.966 91.5003 39.9934 90.3672 38.7682C89.2342 37.5429 88.3382 36.0776 87.6792 34.3724C87.0318 32.6545 86.708 30.8229 86.708 28.8776C86.708 26.2882 87.263 23.9387 88.3729 21.8292C89.4828 19.7071 91.0147 18.046 92.9686 16.846C94.934 15.6334 97.1191 15.0271 99.5239 15.0271C101.929 15.0271 104.108 15.6334 106.062 16.846C108.027 18.046 109.565 19.7071 110.675 21.8292C111.796 23.9387 112.357 26.2882 112.357 28.8776C112.357 31.4671 111.796 33.8229 110.675 35.945C109.565 38.0671 108.027 39.7345 106.062 40.9471C104.108 42.1471 101.929 42.7471 99.5239 42.7471ZM94.6854 37.9534C96.1422 38.8629 97.755 39.3176 99.5239 39.3176C101.293 39.3176 102.9 38.8629 104.345 37.9534C105.802 37.0439 106.941 35.7934 107.761 34.2018C108.594 32.5976 109.01 30.8229 109.01 28.8776C109.01 26.9324 108.594 25.1639 107.761 23.5724C106.941 21.9682 105.802 20.7176 104.345 19.8208C102.9 18.9113 101.293 18.4566 99.5239 18.4566C98.1944 18.4566 96.9399 18.7218 95.7607 19.2524C94.593 19.7829 93.5929 20.5092 92.7605 21.4313C91.928 22.3534 91.269 23.4587 90.7835 24.7471C90.2979 26.0355 90.0551 27.4124 90.0551 28.8776C90.0551 30.8229 90.4655 32.5976 91.2864 34.2018C92.1072 35.7934 93.2403 37.0439 94.6854 37.9534Z" fill="white"/>
<defs>
<clipPath id="clip0_5402_1178">
<rect width="73.2857" height="66" fill="white" transform="translate(116.214 0.50708)"/>
</clipPath>
</defs>
</svg>
