<svg width="52" height="52" viewBox="0 0 52 52" fill="none" xmlns="http://www.w3.org/2000/svg">
<g clip-path="url(#clip0_5302_1212)">
<path d="M50.5211 43.3387L41.2911 34.125C40.6822 33.5197 39.8585 33.1799 38.9999 33.1799C38.1413 33.1799 37.3176 33.5197 36.7086 34.125L36.5624 34.2712L34.3686 32.0775C37.0359 28.9214 38.6317 24.9997 38.9257 20.878C39.2197 16.7563 38.1968 12.6477 36.0045 9.14505C33.8123 5.64236 30.564 2.92662 26.7283 1.38962C22.8926 -0.147374 18.6678 -0.426171 14.6634 0.593455C10.659 1.61308 7.08204 3.87841 4.4485 7.06265C1.81497 10.2469 0.261031 14.1854 0.0108752 18.31C-0.239281 22.4346 0.827276 26.532 3.05668 30.0112C5.28608 33.4904 8.56307 36.1714 12.4149 37.6675C12.6168 37.7634 12.8364 37.8167 13.0598 37.8239C13.2832 37.8311 13.5057 37.7922 13.7134 37.7094C13.9211 37.6268 14.1095 37.5021 14.2668 37.3433C14.4242 37.1844 14.547 36.9948 14.6277 36.7864C14.7084 36.5779 14.7452 36.355 14.7359 36.1316C14.7265 35.9083 14.6711 35.6893 14.5733 35.4883C14.4754 35.2873 14.3371 35.1087 14.167 34.9636C13.997 34.8185 13.7988 34.71 13.5849 34.645C9.81197 33.1777 6.72258 30.3549 4.9216 26.7294C3.12061 23.1039 2.73771 18.9367 3.84788 15.0437C4.95805 11.1507 7.48133 7.8122 10.9237 5.68192C14.3661 3.55164 18.4796 2.78295 22.459 3.52635C26.4383 4.26975 29.9969 6.4717 32.4381 9.70108C34.8792 12.9305 36.027 16.9547 35.6568 20.986C35.2866 25.0172 33.4251 28.7651 30.4366 31.4959C27.4482 34.2267 23.5481 35.7438 19.4999 35.75C19.0689 35.75 18.6556 35.9212 18.3508 36.2259C18.0461 36.5307 17.8749 36.944 17.8749 37.375C17.8749 37.806 18.0461 38.2193 18.3508 38.524C18.6556 38.8288 19.0689 39 19.4999 39C24.1107 39.0064 28.5718 37.3638 32.0774 34.3687L34.2711 36.5625L34.1249 36.7087C33.5196 37.3177 33.1798 38.1414 33.1798 39C33.1798 39.8586 33.5196 40.6823 34.1249 41.2912L43.3386 50.5212C44.3073 51.3902 45.5721 51.8549 46.8729 51.8197C48.1737 51.7845 49.4116 51.252 50.3318 50.3318C51.2519 49.4117 51.7844 48.1738 51.8196 46.873C51.8548 45.5722 51.3901 44.3073 50.5211 43.3387ZM46.9299 48.75C46.6909 48.7509 46.4542 48.704 46.2337 48.6119C46.0132 48.5198 45.8134 48.3844 45.6461 48.2137L36.4161 39L38.9999 36.4162L48.2136 45.6462C48.4669 45.9007 48.6392 46.2245 48.7089 46.5767C48.7786 46.9289 48.7426 47.2938 48.6054 47.6256C48.4681 47.9574 48.2358 48.2412 47.9377 48.4412C47.6396 48.6413 47.2889 48.7487 46.9299 48.75Z" fill="#7C54FA"/>
<path d="M19.4999 17.875C19.0689 17.875 18.6556 17.7038 18.3508 17.399C18.0461 17.0943 17.8749 16.681 17.8749 16.25C17.8749 15.819 18.0461 15.4057 18.3508 15.1009C18.6556 14.7962 19.0689 14.625 19.4999 14.625H22.7499C23.1809 14.625 23.5942 14.4538 23.8989 14.149C24.2037 13.8443 24.3749 13.431 24.3749 13C24.3749 12.569 24.2037 12.1557 23.8989 11.8509C23.5942 11.5462 23.1809 11.375 22.7499 11.375H21.1249C21.1249 10.944 20.9537 10.5307 20.6489 10.2259C20.3442 9.92119 19.9309 9.74999 19.4999 9.74999C19.0689 9.74999 18.6556 9.92119 18.3508 10.2259C18.0461 10.5307 17.8749 10.944 17.8749 11.375V11.6675C16.8002 12.0575 15.8967 12.8127 15.3224 13.8013C14.7481 14.7899 14.5395 15.9489 14.7331 17.0757C14.9267 18.2024 15.5102 19.2253 16.3815 19.9655C17.2529 20.7057 18.3566 21.1161 19.4999 21.125C19.9309 21.125 20.3442 21.2962 20.6489 21.6009C20.9537 21.9057 21.1249 22.319 21.1249 22.75C21.1249 23.181 20.9537 23.5943 20.6489 23.899C20.3442 24.2038 19.9309 24.375 19.4999 24.375H16.2499C15.8189 24.375 15.4056 24.5462 15.1008 24.8509C14.7961 25.1557 14.6249 25.569 14.6249 26C14.6249 26.431 14.7961 26.8443 15.1008 27.149C15.4056 27.4538 15.8189 27.625 16.2499 27.625H17.8749C17.8749 28.056 18.0461 28.4693 18.3508 28.774C18.6556 29.0788 19.0689 29.25 19.4999 29.25C19.9309 29.25 20.3442 29.0788 20.6489 28.774C20.9537 28.4693 21.1249 28.056 21.1249 27.625V27.3325C22.1996 26.9425 23.1031 26.1872 23.6774 25.1986C24.2517 24.2101 24.4603 23.0511 24.2667 21.9243C24.0731 20.7975 23.4896 19.7746 22.6183 19.0344C21.7469 18.2943 20.6432 17.8839 19.4999 17.875Z" fill="#7C54FA"/>
</g>
<defs>
<clipPath id="clip0_5302_1212">
<rect width="52" height="52" fill="white"/>
</clipPath>
</defs>
</svg>
