<svg width="110" height="110" viewBox="0 0 110 110" fill="none" xmlns="http://www.w3.org/2000/svg">
<rect x="0.5" y="0.5" width="109" height="109" rx="54.5" fill="white" stroke="#F4F4F4"/>
<g clip-path="url(#clip0_5053_5033)">
<path d="M64.75 29H45.25C43.0951 29 41.0285 29.856 39.5048 31.3798C37.981 32.9035 37.125 34.9701 37.125 37.125V61.5C37.125 61.931 37.2962 62.3443 37.601 62.649C37.9057 62.9538 38.319 63.125 38.75 63.125C39.181 63.125 39.5943 62.9538 39.899 62.649C40.2038 62.3443 40.375 61.931 40.375 61.5V37.125C40.3778 36.1192 40.6917 35.1389 41.2735 34.3185C41.8554 33.4981 42.6767 32.8778 43.625 32.5425V33.875C43.625 35.1679 44.1386 36.4079 45.0529 37.3221C45.9671 38.2364 47.2071 38.75 48.5 38.75H61.5C62.7929 38.75 64.0329 38.2364 64.9471 37.3221C65.8614 36.4079 66.375 35.1679 66.375 33.875V32.5425C67.3233 32.8778 68.1446 33.4981 68.7265 34.3185C69.3083 35.1389 69.6222 36.1192 69.625 37.125V72.875C69.625 74.1679 69.1114 75.4079 68.1971 76.3221C67.2829 77.2364 66.0429 77.75 64.75 77.75H45.25C43.9571 77.75 42.7171 77.2364 41.8029 76.3221C40.8886 75.4079 40.375 74.1679 40.375 72.875V68C40.375 67.569 40.2038 67.1557 39.899 66.851C39.5943 66.5462 39.181 66.375 38.75 66.375C38.319 66.375 37.9057 66.5462 37.601 66.851C37.2962 67.1557 37.125 67.569 37.125 68V72.875C37.125 75.0299 37.981 77.0965 39.5048 78.6202C41.0285 80.144 43.0951 81 45.25 81H64.75C66.9049 81 68.9715 80.144 70.4952 78.6202C72.019 77.0965 72.875 75.0299 72.875 72.875V37.125C72.875 34.9701 72.019 32.9035 70.4952 31.3798C68.9715 29.856 66.9049 29 64.75 29ZM63.125 33.875C63.125 34.306 62.9538 34.7193 62.649 35.024C62.3443 35.3288 61.931 35.5 61.5 35.5H48.5C48.069 35.5 47.6557 35.3288 47.351 35.024C47.0462 34.7193 46.875 34.306 46.875 33.875V32.25H63.125V33.875Z" fill="#7C54FA"/>
<path fill-rule="evenodd" clip-rule="evenodd" d="M50.12 53.2971C51.56 56.1271 53.88 58.4371 56.71 59.8871L58.91 57.6871C59.18 57.4171 59.58 57.3271 59.93 57.4471C61.05 57.8171 62.26 58.0171 63.5 58.0171C64.05 58.0171 64.5 58.4671 64.5 59.0171V62.5071C64.5 63.0571 64.05 63.5071 63.5 63.5071C54.11 63.5071 46.5 55.8971 46.5 46.5071C46.5 45.9571 46.95 45.5071 47.5 45.5071H51C51.55 45.5071 52 45.9571 52 46.5071C52 47.7571 52.2 48.9571 52.57 50.0771C52.68 50.4271 52.6 50.8171 52.32 51.0971L50.12 53.2971Z" fill="#7C54FA"/>
<path d="M63.125 74.5H46.875C46.444 74.5 46.0307 74.3288 45.726 74.024C45.4212 73.7193 45.25 73.306 45.25 72.875C45.25 72.444 45.4212 72.0307 45.726 71.726C46.0307 71.4212 46.444 71.25 46.875 71.25H63.125C63.556 71.25 63.9693 71.4212 64.274 71.726C64.5788 72.0307 64.75 72.444 64.75 72.875C64.75 73.306 64.5788 73.7193 64.274 74.024C63.9693 74.3288 63.556 74.5 63.125 74.5Z" fill="#7C54FA"/>
</g>
<defs>
<clipPath id="clip0_5053_5033">
<rect width="52" height="52" fill="white" transform="translate(29 29)"/>
</clipPath>
</defs>
</svg>
