<svg width="52" height="52" viewBox="0 0 52 52" fill="none" xmlns="http://www.w3.org/2000/svg">
<g clip-path="url(#clip0_5302_1217)">
<path d="M17.4038 50.9925C14.0214 49.9856 10.8979 48.2563 8.24929 45.924C5.60067 43.5917 3.49009 40.7121 2.06342 37.4842C0.636748 34.2563 -0.0719779 30.7571 -0.0137743 27.2285C0.0444293 23.6999 0.868174 20.2259 2.40052 17.0468C3.93287 13.8678 6.13728 11.0593 8.86138 8.81566C11.5855 6.572 14.7643 4.94663 18.1781 4.05189C21.5919 3.15715 25.1593 3.01438 28.6337 3.63346C32.1081 4.25253 35.4067 5.61867 38.3013 7.63747C38.4887 7.75375 38.6504 7.90695 38.7767 8.08773C38.9029 8.26851 38.9911 8.4731 39.0357 8.68904C39.0804 8.90498 39.0807 9.12775 39.0365 9.34378C38.9923 9.55982 38.9046 9.7646 38.7787 9.94566C38.6529 10.1267 38.4915 10.2803 38.3044 10.397C38.1173 10.5137 37.9084 10.5911 37.6904 10.6244C37.4724 10.6578 37.25 10.6465 37.0365 10.5911C36.8231 10.5358 36.6231 10.4376 36.4488 10.3025C33.9402 8.54919 31.0805 7.36196 28.0678 6.82294C25.055 6.28392 21.9611 6.40598 19.0002 7.18067C16.0393 7.95536 13.282 9.36419 10.9193 11.3096C8.55658 13.2551 6.6448 15.6907 5.31628 18.4479C3.98776 21.2052 3.27422 24.2181 3.22504 27.2783C3.17587 30.3385 3.79224 33.3729 5.03149 36.1714C6.27075 38.9698 8.10328 41.4656 10.4023 43.486C12.7013 45.5064 15.4118 47.003 18.3463 47.8725C18.7601 47.9974 19.1072 48.2817 19.3114 48.6626C19.5156 49.0435 19.5601 49.49 19.4351 49.9037C19.3101 50.3175 19.0259 50.6646 18.645 50.8688C18.264 51.073 17.8176 51.1174 17.4038 50.9925Z" fill="#7C54FA"/>
<path d="M24.3751 52C23.9441 52 23.5308 51.8288 23.226 51.524C22.9213 51.2193 22.7501 50.8059 22.7501 50.375C22.7501 49.944 22.9213 49.5307 23.226 49.2259C23.5308 48.9212 23.9441 48.75 24.3751 48.75C28.2342 48.7477 32.019 47.6884 35.3186 45.6871C38.6182 43.6857 41.3065 40.8187 43.0917 37.3973C44.8769 33.9759 45.6908 30.1309 45.4451 26.2796C45.1993 22.4283 43.9032 18.7179 41.6976 15.5512C41.5625 15.3769 41.4643 15.177 41.4089 14.9635C41.3536 14.7501 41.3422 14.5276 41.3756 14.3096C41.409 14.0917 41.4864 13.8828 41.6031 13.6957C41.7198 13.5086 41.8733 13.3472 42.0544 13.2213C42.2355 13.0955 42.4402 13.0078 42.6563 12.9636C42.8723 12.9194 43.0951 12.9197 43.311 12.9643C43.527 13.009 43.7315 13.0971 43.9123 13.2234C44.0931 13.3496 44.2463 13.5114 44.3626 13.6987C46.9062 17.3526 48.4005 21.6333 48.6833 26.0763C48.9662 30.5193 48.0268 34.955 45.9671 38.9019C43.9074 42.8488 40.8061 46.1562 36.9997 48.4653C33.1932 50.7743 28.8271 51.9968 24.3751 52Z" fill="#7C54FA"/>
<path d="M24.3751 43.875C21.1611 43.875 18.0194 42.9219 15.3471 41.1363C12.6748 39.3508 10.592 36.8129 9.36205 33.8436C8.13213 30.8743 7.81032 27.6069 8.43733 24.4548C9.06434 21.3026 10.612 18.4071 12.8846 16.1345C15.1572 13.8619 18.0527 12.3142 21.2049 11.6872C24.3571 11.0602 27.6244 11.382 30.5937 12.6119C33.563 13.8418 36.1009 15.9247 37.8865 18.597C39.672 21.2692 40.6251 24.411 40.6251 27.625C40.6251 31.9347 38.913 36.068 35.8656 39.1155C32.8181 42.1629 28.6849 43.875 24.3751 43.875ZM24.3751 14.625C21.8039 14.625 19.2905 15.3874 17.1527 16.8159C15.0148 18.2443 13.3486 20.2746 12.3647 22.6501C11.3807 25.0255 11.1233 27.6394 11.6249 30.1611C12.1265 32.6829 13.3646 34.9993 15.1827 36.8174C17.0008 38.6354 19.3172 39.8736 21.8389 40.3752C24.3607 40.8768 26.9745 40.6193 29.35 39.6354C31.7254 38.6515 33.7557 36.9852 35.1842 34.8474C36.6127 32.7095 37.3751 30.1961 37.3751 27.625C37.3751 24.1772 36.0055 20.8706 33.5675 18.4326C31.1295 15.9946 27.8229 14.625 24.3751 14.625Z" fill="#7C54FA"/>
<path d="M24.3751 35.75C22.7681 35.75 21.1972 35.2734 19.8611 34.3807C18.5249 33.4879 17.4835 32.2189 16.8686 30.7343C16.2536 29.2496 16.0927 27.616 16.4062 26.0399C16.7197 24.4638 17.4936 23.016 18.6299 21.8797C19.7662 20.7434 21.2139 19.9696 22.79 19.6561C24.3661 19.3426 25.9998 19.5035 27.4844 20.1184C28.969 20.7334 30.238 21.7748 31.1308 23.111C32.0236 24.4471 32.5001 26.018 32.5001 27.625C32.5001 29.7799 31.6441 31.8465 30.1203 33.3702C28.5966 34.8939 26.53 35.75 24.3751 35.75ZM24.3751 22.75C23.4109 22.75 22.4684 23.0359 21.6667 23.5716C20.865 24.1072 20.2402 24.8686 19.8712 25.7594C19.5022 26.6502 19.4057 27.6304 19.5938 28.576C19.7819 29.5217 20.2462 30.3903 20.9279 31.0721C21.6097 31.7539 22.4784 32.2182 23.424 32.4063C24.3697 32.5944 25.3499 32.4979 26.2407 32.1289C27.1315 31.7599 27.8928 31.1351 28.4285 30.3334C28.9642 29.5317 29.2501 28.5892 29.2501 27.625C29.2501 26.332 28.7365 25.0921 27.8222 24.1778C26.908 23.2636 25.668 22.75 24.3751 22.75Z" fill="#7C54FA"/>
<path d="M50.7651 8.12497L47.1251 7.24747L49.9688 4.40372C50.1204 4.2522 50.2405 4.07233 50.3225 3.87437C50.4045 3.67641 50.4467 3.46424 50.4467 3.24997C50.4467 3.0357 50.4045 2.82352 50.3225 2.62556C50.2405 2.4276 50.1204 2.24773 49.9688 2.09622C49.8173 1.9447 49.6375 1.82452 49.4395 1.74252C49.2415 1.66052 49.0294 1.61832 48.8151 1.61832C48.6008 1.61832 48.3887 1.66052 48.1907 1.74252C47.9927 1.82452 47.8129 1.9447 47.6613 2.09622L44.7526 4.87497L43.8751 1.23497C43.8125 0.944546 43.6714 0.676852 43.4673 0.46099C43.2632 0.245128 43.0038 0.0893606 42.7173 0.0106223C42.4308 -0.0681159 42.1282 -0.0668108 41.8424 0.0143957C41.5567 0.0956022 41.2986 0.253602 41.0963 0.471217L36.2213 5.34622C36.0707 5.49806 35.9516 5.67813 35.8707 5.87612C35.7898 6.0741 35.7489 6.28611 35.7501 6.49997V13.9587L23.2213 26.4712C22.9153 26.7772 22.7434 27.1922 22.7434 27.625C22.7434 28.0577 22.9153 28.4727 23.2213 28.7787C23.5273 29.0847 23.9424 29.2566 24.3751 29.2566C24.8078 29.2566 25.2229 29.0847 25.5288 28.7787L38.0413 16.25H45.5001C45.714 16.2512 45.926 16.2102 46.1239 16.1293C46.3219 16.0485 46.502 15.9293 46.6538 15.7787L51.5288 10.9037C51.7465 10.7015 51.9045 10.4434 51.9857 10.1576C52.0669 9.87184 52.0682 9.56926 51.9894 9.28279C51.9107 8.99631 51.7549 8.73691 51.5391 8.53277C51.3232 8.32864 51.0555 8.18759 50.7651 8.12497ZM39.0001 7.16622L41.3726 4.87497L42.0713 7.68622L39.0001 10.7087V7.16622ZM44.8338 13H41.2913L44.3788 9.92872L47.1251 10.6275L44.8338 13Z" fill="#7C54FA"/>
</g>
<defs>
<clipPath id="clip0_5302_1217">
<rect width="52" height="52" fill="white"/>
</clipPath>
</defs>
</svg>
