<svg width="52" height="52" viewBox="0 0 52 52" fill="none" xmlns="http://www.w3.org/2000/svg">
<path d="M22.75 24.375H16.25C15.819 24.375 15.4057 24.2038 15.101 23.899C14.7962 23.5943 14.625 23.181 14.625 22.75C14.625 22.319 14.7962 21.9057 15.101 21.601C15.4057 21.2962 15.819 21.125 16.25 21.125H22.75C23.181 21.125 23.5943 21.2962 23.899 21.601C24.2038 21.9057 24.375 22.319 24.375 22.75C24.375 23.181 24.2038 23.5943 23.899 23.899C23.5943 24.2038 23.181 24.375 22.75 24.375Z" fill="#7C54FA"/>
<path d="M22.75 37.375H16.25C15.819 37.375 15.4057 37.2038 15.101 36.899C14.7962 36.5943 14.625 36.181 14.625 35.75C14.625 35.319 14.7962 34.9057 15.101 34.601C15.4057 34.2962 15.819 34.125 16.25 34.125H22.75C23.181 34.125 23.5943 34.2962 23.899 34.601C24.2038 34.9057 24.375 35.319 24.375 35.75C24.375 36.181 24.2038 36.5943 23.899 36.899C23.5943 37.2038 23.181 37.375 22.75 37.375Z" fill="#7C54FA"/>
<path d="M42.25 30.875H35.75C35.319 30.875 34.9057 30.7038 34.601 30.399C34.2962 30.0943 34.125 29.681 34.125 29.25C34.125 28.819 34.2962 28.4057 34.601 28.101C34.9057 27.7962 35.319 27.625 35.75 27.625H42.25C42.681 27.625 43.0943 27.7962 43.399 28.101C43.7038 28.4057 43.875 28.819 43.875 29.25C43.875 29.681 43.7038 30.0943 43.399 30.399C43.0943 30.7038 42.681 30.875 42.25 30.875Z" fill="#7C54FA"/>
<path d="M42.25 24.375H29.25C28.819 24.375 28.4057 24.2038 28.101 23.899C27.7962 23.5943 27.625 23.181 27.625 22.75C27.625 22.319 27.7962 21.9057 28.101 21.601C28.4057 21.2962 28.819 21.125 29.25 21.125H42.25C42.681 21.125 43.0943 21.2962 43.399 21.601C43.7038 21.9057 43.875 22.319 43.875 22.75C43.875 23.181 43.7038 23.5943 43.399 23.899C43.0943 24.2038 42.681 24.375 42.25 24.375Z" fill="#7C54FA"/>
<path d="M42.25 37.375H29.25C28.819 37.375 28.4057 37.2038 28.101 36.899C27.7962 36.5943 27.625 36.181 27.625 35.75C27.625 35.319 27.7962 34.9057 28.101 34.601C28.4057 34.2962 28.819 34.125 29.25 34.125H42.25C42.681 34.125 43.0943 34.2962 43.399 34.601C43.7038 34.9057 43.875 35.319 43.875 35.75C43.875 36.181 43.7038 36.5943 43.399 36.899C43.0943 37.2038 42.681 37.375 42.25 37.375Z" fill="#7C54FA"/>
<path d="M29.25 30.875H16.25C15.819 30.875 15.4057 30.7038 15.101 30.399C14.7962 30.0943 14.625 29.681 14.625 29.25C14.625 28.819 14.7962 28.4057 15.101 28.101C15.4057 27.7962 15.819 27.625 16.25 27.625H29.25C29.681 27.625 30.0943 27.7962 30.399 28.101C30.7038 28.4057 30.875 28.819 30.875 29.25C30.875 29.681 30.7038 30.0943 30.399 30.399C30.0943 30.7038 29.681 30.875 29.25 30.875Z" fill="#7C54FA"/>
<path d="M45.5 13H43.875V11.375C43.875 10.0821 43.3614 8.84209 42.4471 7.92785C41.5329 7.01361 40.2929 6.5 39 6.5H18.6875L14.3 0.65C14.1486 0.448181 13.9524 0.284376 13.7267 0.171556C13.5011 0.0587358 13.2523 0 13 0C12.7477 0 12.4989 0.0587358 12.2733 0.171556C12.0476 0.284376 11.8514 0.448181 11.7 0.65L7.3125 6.5H6.5C5.20707 6.5 3.96709 7.01361 3.05285 7.92785C2.13861 8.84209 1.625 10.0821 1.625 11.375V34.125C1.625 35.4179 2.13861 36.6579 3.05285 37.5721C3.96709 38.4864 5.20707 39 6.5 39H8.125V40.625C8.125 41.9179 8.63861 43.1579 9.55285 44.0721C10.4671 44.9864 11.7071 45.5 13 45.5H26C26.431 45.5 26.8443 45.3288 27.149 45.024C27.4538 44.7193 27.625 44.306 27.625 43.875C27.625 43.444 27.4538 43.0307 27.149 42.726C26.8443 42.4212 26.431 42.25 26 42.25H13C12.569 42.25 12.1557 42.0788 11.851 41.774C11.5462 41.4693 11.375 41.056 11.375 40.625V17.875C11.375 17.444 11.5462 17.0307 11.851 16.726C12.1557 16.4212 12.569 16.25 13 16.25H45.5C45.931 16.25 46.3443 16.4212 46.649 16.726C46.9538 17.0307 47.125 17.444 47.125 17.875V40.625C47.125 41.056 46.9538 41.4693 46.649 41.774C46.3443 42.0788 45.931 42.25 45.5 42.25H42.25C41.9977 42.25 41.7489 42.3087 41.5233 42.4216C41.2976 42.5344 41.1014 42.6982 40.95 42.9L37.375 47.6613L33.8 42.9C33.5414 42.5552 33.1565 42.3273 32.7298 42.2663C32.3032 42.2054 31.8698 42.3164 31.525 42.575C31.1802 42.8336 30.9523 43.2185 30.8913 43.6452C30.8304 44.0718 30.9414 44.5052 31.2 44.85L36.075 51.35C36.2264 51.5518 36.4226 51.7156 36.6483 51.8284C36.8739 51.9413 37.1227 52 37.375 52C37.6273 52 37.8761 51.9413 38.1017 51.8284C38.3274 51.7156 38.5236 51.5518 38.675 51.35L43.0625 45.5H45.5C46.7929 45.5 48.0329 44.9864 48.9471 44.0721C49.8614 43.1579 50.375 41.9179 50.375 40.625V17.875C50.375 16.5821 49.8614 15.3421 48.9471 14.4279C48.0329 13.5136 46.7929 13 45.5 13ZM8.125 17.875V35.75H6.5C6.06902 35.75 5.6557 35.5788 5.35095 35.274C5.0462 34.9693 4.875 34.556 4.875 34.125V11.375C4.875 10.944 5.0462 10.5307 5.35095 10.226C5.6557 9.92121 6.06902 9.75 6.5 9.75C8.2875 9.75 8.85625 9.86375 9.425 9.1L13 4.33875L16.575 9.1C16.7264 9.30182 16.9226 9.46562 17.1483 9.57844C17.3739 9.69126 17.6227 9.75 17.875 9.75H39C39.431 9.75 39.8443 9.92121 40.149 10.226C40.4538 10.5307 40.625 10.944 40.625 11.375V13H13C11.7071 13 10.4671 13.5136 9.55285 14.4279C8.63861 15.3421 8.125 16.5821 8.125 17.875Z" fill="#7C54FA"/>
</svg>
