<svg width="50" height="52" viewBox="0 0 50 52" fill="none" xmlns="http://www.w3.org/2000/svg">
<path d="M21.75 24.375H15.25C14.819 24.375 14.4057 24.2038 14.101 23.899C13.7962 23.5943 13.625 23.181 13.625 22.75C13.625 22.319 13.7962 21.9057 14.101 21.601C14.4057 21.2962 14.819 21.125 15.25 21.125H21.75C22.181 21.125 22.5943 21.2962 22.899 21.601C23.2038 21.9057 23.375 22.319 23.375 22.75C23.375 23.181 23.2038 23.5943 22.899 23.899C22.5943 24.2038 22.181 24.375 21.75 24.375Z" fill="#002152"/>
<path d="M21.75 37.375H15.25C14.819 37.375 14.4057 37.2038 14.101 36.899C13.7962 36.5943 13.625 36.181 13.625 35.75C13.625 35.319 13.7962 34.9057 14.101 34.601C14.4057 34.2962 14.819 34.125 15.25 34.125H21.75C22.181 34.125 22.5943 34.2962 22.899 34.601C23.2038 34.9057 23.375 35.319 23.375 35.75C23.375 36.181 23.2038 36.5943 22.899 36.899C22.5943 37.2038 22.181 37.375 21.75 37.375Z" fill="#002152"/>
<path d="M41.25 30.875H34.75C34.319 30.875 33.9057 30.7038 33.601 30.399C33.2962 30.0943 33.125 29.681 33.125 29.25C33.125 28.819 33.2962 28.4057 33.601 28.101C33.9057 27.7962 34.319 27.625 34.75 27.625H41.25C41.681 27.625 42.0943 27.7962 42.399 28.101C42.7038 28.4057 42.875 28.819 42.875 29.25C42.875 29.681 42.7038 30.0943 42.399 30.399C42.0943 30.7038 41.681 30.875 41.25 30.875Z" fill="#002152"/>
<path d="M41.25 24.375H28.25C27.819 24.375 27.4057 24.2038 27.101 23.899C26.7962 23.5943 26.625 23.181 26.625 22.75C26.625 22.319 26.7962 21.9057 27.101 21.601C27.4057 21.2962 27.819 21.125 28.25 21.125H41.25C41.681 21.125 42.0943 21.2962 42.399 21.601C42.7038 21.9057 42.875 22.319 42.875 22.75C42.875 23.181 42.7038 23.5943 42.399 23.899C42.0943 24.2038 41.681 24.375 41.25 24.375Z" fill="#002152"/>
<path d="M41.25 37.375H28.25C27.819 37.375 27.4057 37.2038 27.101 36.899C26.7962 36.5943 26.625 36.181 26.625 35.75C26.625 35.319 26.7962 34.9057 27.101 34.601C27.4057 34.2962 27.819 34.125 28.25 34.125H41.25C41.681 34.125 42.0943 34.2962 42.399 34.601C42.7038 34.9057 42.875 35.319 42.875 35.75C42.875 36.181 42.7038 36.5943 42.399 36.899C42.0943 37.2038 41.681 37.375 41.25 37.375Z" fill="#002152"/>
<path d="M28.25 30.875H15.25C14.819 30.875 14.4057 30.7038 14.101 30.399C13.7962 30.0943 13.625 29.681 13.625 29.25C13.625 28.819 13.7962 28.4057 14.101 28.101C14.4057 27.7962 14.819 27.625 15.25 27.625H28.25C28.681 27.625 29.0943 27.7962 29.399 28.101C29.7038 28.4057 29.875 28.819 29.875 29.25C29.875 29.681 29.7038 30.0943 29.399 30.399C29.0943 30.7038 28.681 30.875 28.25 30.875Z" fill="#002152"/>
<path d="M44.5 13H42.875V11.375C42.875 10.0821 42.3614 8.84209 41.4471 7.92785C40.5329 7.01361 39.2929 6.5 38 6.5H17.6875L13.3 0.65C13.1486 0.448181 12.9524 0.284376 12.7267 0.171556C12.5011 0.0587358 12.2523 0 12 0C11.7477 0 11.4989 0.0587358 11.2733 0.171556C11.0476 0.284376 10.8514 0.448181 10.7 0.65L6.3125 6.5H5.5C4.20707 6.5 2.96709 7.01361 2.05285 7.92785C1.13861 8.84209 0.625 10.0821 0.625 11.375V34.125C0.625 35.4179 1.13861 36.6579 2.05285 37.5721C2.96709 38.4864 4.20707 39 5.5 39H7.125V40.625C7.125 41.9179 7.63861 43.1579 8.55285 44.0721C9.46709 44.9864 10.7071 45.5 12 45.5H25C25.431 45.5 25.8443 45.3288 26.149 45.024C26.4538 44.7193 26.625 44.306 26.625 43.875C26.625 43.444 26.4538 43.0307 26.149 42.726C25.8443 42.4212 25.431 42.25 25 42.25H12C11.569 42.25 11.1557 42.0788 10.851 41.774C10.5462 41.4693 10.375 41.056 10.375 40.625V17.875C10.375 17.444 10.5462 17.0307 10.851 16.726C11.1557 16.4212 11.569 16.25 12 16.25H44.5C44.931 16.25 45.3443 16.4212 45.649 16.726C45.9538 17.0307 46.125 17.444 46.125 17.875V40.625C46.125 41.056 45.9538 41.4693 45.649 41.774C45.3443 42.0788 44.931 42.25 44.5 42.25H41.25C40.9977 42.25 40.7489 42.3087 40.5233 42.4216C40.2976 42.5344 40.1014 42.6982 39.95 42.9L36.375 47.6613L32.8 42.9C32.5414 42.5552 32.1565 42.3273 31.7298 42.2663C31.3032 42.2054 30.8698 42.3164 30.525 42.575C30.1802 42.8336 29.9523 43.2185 29.8913 43.6452C29.8304 44.0718 29.9414 44.5052 30.2 44.85L35.075 51.35C35.2264 51.5518 35.4226 51.7156 35.6483 51.8284C35.8739 51.9413 36.1227 52 36.375 52C36.6273 52 36.8761 51.9413 37.1017 51.8284C37.3274 51.7156 37.5236 51.5518 37.675 51.35L42.0625 45.5H44.5C45.7929 45.5 47.0329 44.9864 47.9471 44.0721C48.8614 43.1579 49.375 41.9179 49.375 40.625V17.875C49.375 16.5821 48.8614 15.3421 47.9471 14.4279C47.0329 13.5136 45.7929 13 44.5 13ZM7.125 17.875V35.75H5.5C5.06902 35.75 4.6557 35.5788 4.35095 35.274C4.0462 34.9693 3.875 34.556 3.875 34.125V11.375C3.875 10.944 4.0462 10.5307 4.35095 10.226C4.6557 9.92121 5.06902 9.75 5.5 9.75C7.2875 9.75 7.85625 9.86375 8.425 9.1L12 4.33875L15.575 9.1C15.7264 9.30182 15.9226 9.46562 16.1483 9.57844C16.3739 9.69126 16.6227 9.75 16.875 9.75H38C38.431 9.75 38.8443 9.92121 39.149 10.226C39.4538 10.5307 39.625 10.944 39.625 11.375V13H12C10.7071 13 9.46709 13.5136 8.55285 14.4279C7.63861 15.3421 7.125 16.5821 7.125 17.875Z" fill="#002152"/>
</svg>
