<svg width="52" height="52" viewBox="0 0 52 52" fill="none" xmlns="http://www.w3.org/2000/svg">
<g clip-path="url(#clip0_5038_302)">
<path d="M45.5 52H39C38.6288 52.0108 38.2651 51.8942 37.9694 51.6695C37.6738 51.4447 37.464 51.1255 37.375 50.765L35.75 44.265C35.6897 44.0217 35.6866 43.7677 35.7408 43.523C35.795 43.2782 35.9051 43.0493 36.0624 42.8542C36.2198 42.6591 36.4201 42.503 36.6479 42.3982C36.8756 42.2934 37.1244 42.2426 37.375 42.25H47.125C47.3756 42.2426 47.6244 42.2934 47.8521 42.3982C48.0799 42.503 48.2802 42.6591 48.4376 42.8542C48.595 43.0493 48.705 43.2782 48.7592 43.523C48.8134 43.7677 48.8103 44.0217 48.75 44.265L47.125 50.765C47.036 51.1255 46.8263 51.4447 46.5306 51.6695C46.2349 51.8942 45.8712 52.0108 45.5 52ZM40.2675 48.75H44.2325L45.045 45.5H39.455L40.2675 48.75Z" fill="#002152"/>
<path d="M37.375 21.125H35.5225C35.3616 20.5551 35.1267 20.0088 34.8237 19.5L36.14 18.1838C36.4062 17.8729 36.5453 17.473 36.5295 17.064C36.5137 16.6551 36.3442 16.2671 36.0548 15.9777C35.7654 15.6883 35.3774 15.5188 34.9685 15.503C34.5595 15.4872 34.1596 15.6263 33.8488 15.8925L32.5325 17.2087C32.0237 16.9058 31.4774 16.6709 30.9075 16.51V14.625C30.9075 14.194 30.7363 13.7807 30.4315 13.476C30.1268 13.1712 29.7135 13 29.2825 13C28.8515 13 28.4382 13.1712 28.1335 13.476C27.8287 13.7807 27.6575 14.194 27.6575 14.625V16.4775C27.0876 16.6384 26.5413 16.8733 26.0325 17.1763L24.7162 15.86C24.4054 15.5938 24.0055 15.4547 23.5965 15.4705C23.1876 15.4863 22.7996 15.6558 22.5102 15.9452C22.2208 16.2346 22.0513 16.6226 22.0355 17.0315C22.0197 17.4405 22.1588 17.8404 22.425 18.1512L23.7412 19.4675C23.4383 19.9763 23.2034 20.5226 23.0425 21.0925H21.125C20.694 21.0925 20.2807 21.2637 19.976 21.5685C19.6712 21.8732 19.5 22.2865 19.5 22.7175C19.5 23.1485 19.6712 23.5618 19.976 23.8665C20.2807 24.1713 20.694 24.3425 21.125 24.3425H22.9775C23.1384 24.9124 23.3733 25.4587 23.6763 25.9675L22.36 27.2838C22.0938 27.5946 21.9547 27.9945 21.9705 28.4035C21.9863 28.8124 22.1558 29.2004 22.4452 29.4898C22.7346 29.7792 23.1226 29.9487 23.5315 29.9645C23.9405 29.9803 24.3404 29.8412 24.6512 29.575L25.9675 28.2587C26.4763 28.5617 27.0226 28.7966 27.5925 28.9575V30.875C27.5925 31.306 27.7637 31.7193 28.0685 32.024C28.3732 32.3288 28.7865 32.5 29.2175 32.5C29.6485 32.5 30.0618 32.3288 30.3665 32.024C30.6713 31.7193 30.8425 31.306 30.8425 30.875V29.0225C31.4124 28.8616 31.9587 28.6267 32.4675 28.3237L33.7838 29.64C34.0946 29.9062 34.4945 30.0453 34.9035 30.0295C35.3124 30.0137 35.7004 29.8442 35.9898 29.5548C36.2792 29.2654 36.4487 28.8774 36.4645 28.4685C36.4803 28.0595 36.3412 27.6596 36.075 27.3488L34.8237 26C35.1267 25.4912 35.3616 24.9449 35.5225 24.375H37.375C37.806 24.375 38.2193 24.2038 38.524 23.899C38.8288 23.5943 39 23.181 39 22.75C39 22.319 38.8288 21.9057 38.524 21.601C38.2193 21.2962 37.806 21.125 37.375 21.125ZM29.25 26C28.6072 26 27.9789 25.8094 27.4444 25.4523C26.9099 25.0952 26.4934 24.5876 26.2474 23.9937C26.0014 23.3999 25.937 22.7464 26.0624 22.116C26.1878 21.4855 26.4974 20.9064 26.9519 20.4519C27.4064 19.9974 27.9855 19.6878 28.616 19.5624C29.2464 19.437 29.8999 19.5014 30.4937 19.7474C31.0876 19.9934 31.5952 20.4099 31.9523 20.9444C32.3094 21.4789 32.5 22.1072 32.5 22.75C32.5 23.612 32.1576 24.4386 31.5481 25.0481C30.9386 25.6576 30.112 26 29.25 26Z" fill="#002152"/>
<path d="M47.125 0H16.25C15.819 0 15.4057 0.171205 15.101 0.475951C14.7962 0.780698 14.625 1.19402 14.625 1.625C14.625 2.05598 14.7962 2.4693 15.101 2.77405C15.4057 3.0788 15.819 3.25 16.25 3.25H47.125C47.556 3.25 47.9693 3.4212 48.274 3.72595C48.5788 4.0307 48.75 4.44402 48.75 4.875V40.625C48.75 41.056 48.5788 41.4693 48.274 41.774C47.9693 42.0788 47.556 42.25 47.125 42.25L6.5 42.25C6.06902 42.25 5.6557 42.0788 5.35095 41.774C5.0462 41.4693 4.875 41.056 4.875 40.625V32.5H8.125V37.375C8.125 37.806 8.29621 38.2193 8.60095 38.524C8.9057 38.8288 9.31902 39 9.75 39H43.875C44.306 39 44.7193 38.8288 45.024 38.524C45.3288 38.2193 45.5 37.806 45.5 37.375V8.125C45.5 7.69402 45.3288 7.2807 45.024 6.97595C44.7193 6.67121 44.306 6.5 43.875 6.5H9.75C9.31902 6.5 8.9057 6.67121 8.60095 6.97595C8.29621 7.2807 8.125 7.69402 8.125 8.125V13H4.875V4.875C4.875 4.44402 5.0462 4.0307 5.35095 3.72595C5.6557 3.4212 6.06902 3.25 6.5 3.25H9.75C10.181 3.25 10.5943 3.0788 10.899 2.77405C11.2038 2.4693 11.375 2.05598 11.375 1.625C11.375 1.19402 11.2038 0.780698 10.899 0.475951C10.5943 0.171205 10.181 0 9.75 0H6.5C5.20707 0 3.96709 0.513615 3.05285 1.42785C2.13861 2.34209 1.625 3.58207 1.625 4.875V13C1.19402 13 0.780698 13.1712 0.475951 13.476C0.171205 13.7807 0 14.194 0 14.625C0 15.056 0.171205 15.4693 0.475951 15.774C0.780698 16.0788 1.19402 16.25 1.625 16.25V29.25C1.19402 29.25 0.780698 29.4212 0.475951 29.726C0.171205 30.0307 0 30.444 0 30.875C0 31.306 0.171205 31.7193 0.475951 32.024C0.780698 32.3288 1.19402 32.5 1.625 32.5V40.625C1.63156 41.6833 1.98234 42.7107 2.62435 43.5521C3.26636 44.3934 4.16472 45.003 5.18375 45.2887L6.5 50.765C6.58897 51.1255 6.79875 51.4447 7.09442 51.6695C7.39008 51.8942 7.75379 52.0108 8.125 52H14.625C14.9962 52.0108 15.3599 51.8942 15.6556 51.6695C15.9513 51.4447 16.161 51.1255 16.25 50.765L17.5175 45.5H47.125C48.4179 45.5 49.6579 44.9864 50.5721 44.0721C51.4864 43.1579 52 41.9179 52 40.625V4.875C52 3.58207 51.4864 2.34209 50.5721 1.42785C49.6579 0.513615 48.4179 0 47.125 0ZM11.375 9.75H42.25V35.75H11.375V32.5C11.806 32.5 12.2193 32.3288 12.524 32.024C12.8288 31.7193 13 31.306 13 30.875C13 30.444 12.8288 30.0307 12.524 29.726C12.2193 29.4212 11.806 29.25 11.375 29.25V16.25C11.806 16.25 12.2193 16.0788 12.524 15.774C12.8288 15.4693 13 15.056 13 14.625C13 14.194 12.8288 13.7807 12.524 13.476C12.2193 13.1712 11.806 13 11.375 13V9.75ZM4.875 16.25H8.125V29.25H4.875V16.25ZM13.3575 48.75H9.3925L8.58 45.5H14.17L13.3575 48.75Z" fill="#002152"/>
</g>
<defs>
<clipPath id="clip0_5038_302">
<rect width="52" height="52" fill="white"/>
</clipPath>
</defs>
</svg>
