<svg width="50" height="52" viewBox="0 0 50 52" fill="none" xmlns="http://www.w3.org/2000/svg">
<path d="M47.75 29.25C48.181 29.25 48.5943 29.0788 48.899 28.774C49.2038 28.4693 49.375 28.056 49.375 27.625V4.875C49.375 3.58207 48.8614 2.34209 47.9471 1.42785C47.0329 0.513615 45.7929 0 44.5 0H5.5C4.20707 0 2.96709 0.513615 2.05285 1.42785C1.13861 2.34209 0.625 3.58207 0.625 4.875V37.375C0.625 38.6679 1.13861 39.9079 2.05285 40.8221C2.96709 41.7364 4.20707 42.25 5.5 42.25H16.7288C16.286 44.7964 14.9492 47.1012 12.9587 48.75H10.375C9.94402 48.75 9.5307 48.9212 9.22595 49.226C8.92121 49.5307 8.75 49.944 8.75 50.375C8.75 50.806 8.92121 51.2193 9.22595 51.524C9.5307 51.8288 9.94402 52 10.375 52H39.95C40.381 52 40.7943 51.8288 41.099 51.524C41.4038 51.2193 41.575 50.806 41.575 50.375C41.575 49.944 41.4038 49.5307 41.099 49.226C40.7943 48.9212 40.381 48.75 39.95 48.75H37.0412C35.0464 47.105 33.7085 44.7984 33.2713 42.25H44.5C45.7929 42.25 47.0329 41.7364 47.9471 40.8221C48.8614 39.9079 49.375 38.6679 49.375 37.375V34.125C49.375 33.694 49.2038 33.2807 48.899 32.976C48.5943 32.6712 48.181 32.5 47.75 32.5H3.875V4.875C3.875 4.44402 4.0462 4.0307 4.35095 3.72595C4.6557 3.4212 5.06902 3.25 5.5 3.25H44.5C44.931 3.25 45.3443 3.4212 45.649 3.72595C45.9538 4.0307 46.125 4.44402 46.125 4.875V27.625C46.125 28.056 46.2962 28.4693 46.601 28.774C46.9057 29.0788 47.319 29.25 47.75 29.25ZM32.6213 48.75H17.3787C18.8137 46.8547 19.7168 44.6109 19.995 42.25H30.005C30.2832 44.6109 31.1863 46.8547 32.6213 48.75ZM46.125 35.75V37.375C46.125 37.806 45.9538 38.2193 45.649 38.524C45.3443 38.8288 44.931 39 44.5 39H5.5C5.06902 39 4.6557 38.8288 4.35095 38.524C4.0462 38.2193 3.875 37.806 3.875 37.375V35.75H46.125Z" fill="#002152"/>
<path d="M13.625 29.25H10.375C9.51305 29.25 8.6864 28.9076 8.0769 28.2981C7.46741 27.6886 7.125 26.862 7.125 26V19.5C7.125 18.638 7.46741 17.8114 8.0769 17.2019C8.6864 16.5924 9.51305 16.25 10.375 16.25H13.625C14.487 16.25 15.3136 16.5924 15.9231 17.2019C16.5326 17.8114 16.875 18.638 16.875 19.5V26C16.875 26.862 16.5326 27.6886 15.9231 28.2981C15.3136 28.9076 14.487 29.25 13.625 29.25ZM10.375 19.5V26H13.625V19.5H10.375Z" fill="#002152"/>
<path d="M26.625 29.25H23.375C22.513 29.25 21.6864 28.9076 21.0769 28.2981C20.4674 27.6886 20.125 26.862 20.125 26V14.625C20.125 13.763 20.4674 12.9364 21.0769 12.3269C21.6864 11.7174 22.513 11.375 23.375 11.375H26.625C27.487 11.375 28.3136 11.7174 28.9231 12.3269C29.5326 12.9364 29.875 13.763 29.875 14.625V26C29.875 26.862 29.5326 27.6886 28.9231 28.2981C28.3136 28.9076 27.487 29.25 26.625 29.25ZM23.375 14.625V26H26.625V14.625H23.375Z" fill="#002152"/>
<path d="M39.625 29.25H36.375C35.513 29.25 34.6864 28.9076 34.0769 28.2981C33.4674 27.6886 33.125 26.862 33.125 26V9.75C33.125 8.88805 33.4674 8.0614 34.0769 7.4519C34.6864 6.84241 35.513 6.5 36.375 6.5H39.625C40.487 6.5 41.3136 6.84241 41.9231 7.4519C42.5326 8.0614 42.875 8.88805 42.875 9.75V26C42.875 26.862 42.5326 27.6886 41.9231 28.2981C41.3136 28.9076 40.487 29.25 39.625 29.25ZM36.375 9.75V26H39.625V9.75H36.375Z" fill="#002152"/>
</svg>
