<svg width="100" height="34" viewBox="0 0 100 34" fill="none" xmlns="http://www.w3.org/2000/svg">
<g clip-path="url(#clip0_5402_889)">
<path d="M69.8103 10.6191C72.7847 13.5667 74.5936 17.6433 74.7755 21.8104C74.9574 25.9774 73.5114 30.1943 70.8052 33.3858C73.9552 32.6551 76.6531 30.1856 77.6787 27.1408C78.7044 24.0964 78.2776 20.6678 76.8414 17.7919C75.4046 14.9159 72.892 12.2171 69.8103 10.6187V10.6191Z" fill="white"/>
<path d="M79.454 33.9851C83.4852 30.0813 81.7335 20.1744 78.6395 16.3862C88.7221 23.4578 85.4433 34.4656 79.454 33.9851Z" fill="white"/>
<path d="M99.9979 24.9269C100.121 16.6489 95.5238 9.7549 88.974 6.53826C93.2321 7.44755 98.1149 10.3709 99.8993 11.6441C94.0797 4.36447 84.6341 -0.318459 75.2757 0.0168998C72.9567 0.100135 69.1864 0.704555 68.5046 2.4762L69.0386 3.40969C68.3105 3.30855 64.7879 3.24951 63.2463 3.96136C60.1436 5.39474 61.0112 8.98546 63.1819 10.3932C61.769 4.72741 87.3929 11.153 90.6429 29.0064C92.2396 26.0535 91.7627 17.9322 90.3327 14.5032C97.6423 18.0121 99.9983 24.9269 99.9983 24.9269H99.9979ZM74.2954 3.52535C73.6468 3.34775 73.6068 2.93351 72.2681 2.99497C73.7941 2.05519 75.9507 2.13261 77.8458 2.93738C76.5364 2.85753 75.599 3.88151 74.2954 3.52535Z" fill="white"/>
</g>
<path d="M1.29145 31.5827H5.04889V32.7993H0V25.2927H4.99575V26.5093H1.29145V28.4165H4.63435V29.633H1.29145V31.5827Z" fill="white"/>
<path d="M11.4158 25.2927H12.7126V32.7993H11.3946L7.63712 27.4921V32.7993H6.34566V25.2927H7.65838L11.4158 30.5999V25.2927Z" fill="white"/>
<path d="M19.6588 25.2927V26.5093H17.3948V32.7993H16.098V26.5093H13.8233V25.2927H19.6588Z" fill="white"/>
<path d="M22.061 31.5827H25.8185V32.7993H20.7696V25.2927H25.7653V26.5093H22.061V28.4165H25.4039V29.633H22.061V31.5827Z" fill="white"/>
<path d="M31.3244 32.7993L29.3899 30.0049H28.4067V32.7993H27.1152V25.2927H30.2349C30.9364 25.2927 31.5228 25.5194 31.994 25.9727C32.4688 26.4261 32.7062 26.9927 32.7062 27.6727C32.7062 28.2394 32.5344 28.7281 32.1907 29.139C31.8506 29.5498 31.4059 29.8154 30.8567 29.9358L32.8816 32.7993H31.3244ZM28.4067 26.5093V28.8733H30.2136C30.5467 28.8733 30.8231 28.76 31.0427 28.5333C31.2659 28.3031 31.3776 28.0198 31.3776 27.6833C31.3776 27.3469 31.2659 27.0671 31.0427 26.844C30.8231 26.6208 30.5467 26.5093 30.2136 26.5093H28.4067Z" fill="white"/>
<path d="M37.128 25.2927C37.5957 25.2927 38.0208 25.399 38.4035 25.6115C38.7897 25.8204 39.0926 26.1126 39.3123 26.488C39.532 26.8635 39.6418 27.2814 39.6418 27.7418C39.6418 28.436 39.4009 29.015 38.919 29.479C38.4371 29.9429 37.8401 30.1749 37.128 30.1749H35.2307V32.7993H33.9392V25.2927H37.128ZM37.1067 28.9583C37.4504 28.9583 37.7374 28.8432 37.9677 28.613C38.198 28.3793 38.3131 28.0889 38.3131 27.7418C38.3131 27.3876 38.198 27.0937 37.9677 26.8599C37.7374 26.6262 37.4504 26.5093 37.1067 26.5093H35.2307V28.9583H37.1067Z" fill="white"/>
<path d="M44.9405 32.7993L43.006 30.0049H42.0227V32.7993H40.7313V25.2927H43.851C44.5525 25.2927 45.1389 25.5194 45.6101 25.9727C46.0849 26.4261 46.3223 26.9927 46.3223 27.6727C46.3223 28.2394 46.1504 28.7281 45.8068 29.139C45.4666 29.5498 45.022 29.8154 44.4728 29.9358L46.4977 32.7993H44.9405ZM42.0227 26.5093V28.8733H43.8297C44.1628 28.8733 44.4391 28.76 44.6588 28.5333C44.882 28.3031 44.9936 28.0198 44.9936 27.6833C44.9936 27.3469 44.882 27.0671 44.6588 26.844C44.4391 26.6208 44.1628 26.5093 43.8297 26.5093H42.0227Z" fill="white"/>
<path d="M47.5553 32.7993V25.2927H48.8467V32.7993H47.5553Z" fill="white"/>
<path d="M53.0028 32.9321C52.4359 32.9321 51.8778 32.8258 51.3287 32.6133C50.7795 32.3973 50.3206 32.1104 49.9522 31.7527L50.6271 30.7646C50.9283 31.0656 51.2897 31.3082 51.7113 31.4924C52.1365 31.673 52.567 31.7633 53.0028 31.7633C53.4386 31.7633 53.8053 31.6695 54.1029 31.4818C54.4005 31.2941 54.5493 31.0515 54.5493 30.754C54.5493 30.6371 54.5245 30.5291 54.4749 30.4299C54.4253 30.3272 54.3509 30.2387 54.2517 30.1643C54.1525 30.0899 54.0533 30.0262 53.9541 29.973C53.8549 29.9164 53.7256 29.865 53.5661 29.819C53.4102 29.7694 53.2809 29.7322 53.1781 29.7074C53.0789 29.6791 52.9478 29.6472 52.7849 29.6118C52.4235 29.5268 52.0957 29.4241 51.8017 29.3037C51.5076 29.1797 51.2365 29.0274 50.9885 28.8468C50.7405 28.6662 50.5474 28.4466 50.4092 28.188C50.271 27.926 50.202 27.6355 50.202 27.3168C50.202 26.6722 50.4606 26.1516 50.9779 25.7549C51.4952 25.3582 52.1666 25.1599 52.9921 25.1599C53.5201 25.1599 54.0055 25.2449 54.4483 25.4149C54.8912 25.5849 55.2544 25.8116 55.5378 26.0949L54.9267 27.0777C54.7141 26.8581 54.4289 26.6775 54.071 26.5358C53.7167 26.3942 53.35 26.3233 52.9709 26.3233C52.5528 26.3233 52.2091 26.4119 51.9398 26.589C51.6741 26.7661 51.5412 26.9945 51.5412 27.2743C51.5412 27.7878 52.078 28.1526 53.1516 28.3687C53.2862 28.397 53.412 28.4271 53.5289 28.459C53.6458 28.4908 53.8017 28.5404 53.9966 28.6077C54.1915 28.675 54.3669 28.7476 54.5227 28.8255C54.6786 28.9035 54.8434 29.0062 55.017 29.1337C55.1942 29.2576 55.3412 29.3922 55.4581 29.5374C55.5786 29.6791 55.6778 29.8508 55.7557 30.0527C55.8337 30.2546 55.8727 30.4706 55.8727 30.7008C55.8727 31.3561 55.5998 31.8926 55.0542 32.3105C54.5086 32.7249 53.8248 32.9321 53.0028 32.9321Z" fill="white"/>
<path d="M58.2642 31.5827H62.0217V32.7993H56.9728V25.2927H61.9685V26.5093H58.2642V28.4165H61.6071V29.633H58.2642V31.5827Z" fill="white"/>
<path d="M65.8642 32.9321C65.2973 32.9321 64.7392 32.8258 64.19 32.6133C63.6409 32.3973 63.182 32.1104 62.8136 31.7527L63.4885 30.7646C63.7897 31.0656 64.1511 31.3082 64.5727 31.4924C64.9979 31.673 65.4284 31.7633 65.8642 31.7633C66.3 31.7633 66.6667 31.6695 66.9643 31.4818C67.2619 31.2941 67.4107 31.0515 67.4107 30.754C67.4107 30.6371 67.3859 30.5291 67.3363 30.4299C67.2867 30.3272 67.2123 30.2387 67.1131 30.1643C67.0139 30.0899 66.9147 30.0262 66.8155 29.973C66.7163 29.9164 66.5869 29.865 66.4275 29.819C66.2716 29.7694 66.1423 29.7322 66.0395 29.7074C65.9403 29.6791 65.8092 29.6472 65.6463 29.6118C65.2849 29.5268 64.9571 29.4241 64.6631 29.3037C64.369 29.1797 64.0979 29.0274 63.8499 28.8468C63.6019 28.6662 63.4088 28.4466 63.2706 28.188C63.1324 27.926 63.0634 27.6355 63.0634 27.3168C63.0634 26.6722 63.322 26.1516 63.8393 25.7549C64.3566 25.3582 65.028 25.1599 65.8535 25.1599C66.3814 25.1599 66.8669 25.2449 67.3097 25.4149C67.7526 25.5849 68.1158 25.8116 68.3992 26.0949L67.7881 27.0777C67.5755 26.8581 67.2902 26.6775 66.9324 26.5358C66.5781 26.3942 66.2114 26.3233 65.8323 26.3233C65.4142 26.3233 65.0705 26.4119 64.8012 26.589C64.5355 26.7661 64.4026 26.9945 64.4026 27.2743C64.4026 27.7878 64.9394 28.1526 66.013 28.3687C66.1476 28.397 66.2734 28.4271 66.3903 28.459C66.5072 28.4908 66.6631 28.5404 66.858 28.6077C67.0529 28.675 67.2282 28.7476 67.3841 28.8255C67.54 28.9035 67.7048 29.0062 67.8784 29.1337C68.0556 29.2576 68.2026 29.3922 68.3195 29.5374C68.44 29.6791 68.5392 29.8508 68.6171 30.0527C68.6951 30.2546 68.7341 30.4706 68.7341 30.7008C68.7341 31.3561 68.4612 31.8926 67.9156 32.3105C67.37 32.7249 66.6861 32.9321 65.8642 32.9321Z" fill="white"/>
<path d="M10.6164 7.724H12.4974L7.13874 21.516H5.34029L0 7.724H1.91773L6.27622 19.1343L10.6164 7.724Z" fill="white"/>
<path d="M14.4151 21.516V7.724H16.1402V21.516H14.4151Z" fill="white"/>
<path d="M26.6831 21.516L22.8109 16.0402H20.9116V21.516H19.1865V7.724H24.4442C25.5943 7.724 26.5547 8.12419 27.3254 8.92457C28.1023 9.72496 28.4907 10.7238 28.4907 11.9211C28.4907 13.0339 28.1421 13.9774 27.4447 14.7518C26.7535 15.5196 25.8787 15.9426 24.8204 16.0207L28.766 21.516H26.6831ZM20.9116 9.44189V14.4394H24.4075C25.0682 14.4394 25.6187 14.2019 26.0592 13.7269C26.4996 13.2518 26.7198 12.6564 26.7198 11.9407C26.7198 11.2249 26.4996 10.6295 26.0592 10.1544C25.6187 9.67941 25.0682 9.44189 24.4075 9.44189H20.9116Z" fill="white"/>
<path d="M39.4558 7.724V9.44189H35.2992V21.516H33.5925V9.44189H29.4359V7.724H39.4558Z" fill="white"/>
<path d="M41.5387 21.516V7.724H43.2637V21.516H41.5387Z" fill="white"/>
<path d="M52.3936 21.76C51.4393 21.76 50.5432 21.5778 49.7051 21.2134C48.8671 20.8425 48.1483 20.3414 47.5488 19.7102C46.9493 19.079 46.4752 18.3242 46.1266 17.4457C45.784 16.5607 45.6127 15.6172 45.6127 14.6151C45.6127 13.2811 45.9063 12.0708 46.4936 10.9841C47.0808 9.89089 47.8914 9.0352 48.9252 8.41701C49.9651 7.79232 51.1212 7.47998 52.3936 7.47998C53.666 7.47998 54.8191 7.79232 55.8529 8.41701C56.8928 9.0352 57.7064 9.89089 58.2936 10.9841C58.887 12.0708 59.1837 13.2811 59.1837 14.6151C59.1837 15.9491 58.887 17.1627 58.2936 18.2559C57.7064 19.3491 56.8928 20.208 55.8529 20.8327C54.8191 21.4509 53.666 21.76 52.3936 21.76ZM49.8336 19.2905C50.6043 19.759 51.4577 19.9933 52.3936 19.9933C53.3295 19.9933 54.1798 19.759 54.9445 19.2905C55.7152 18.822 56.3178 18.1778 56.7521 17.3579C57.1925 16.5315 57.4128 15.6172 57.4128 14.6151C57.4128 13.613 57.1925 12.702 56.7521 11.8821C56.3178 11.0557 55.7152 10.4115 54.9445 9.94945C54.1798 9.48094 53.3295 9.24668 52.3936 9.24668C51.6901 9.24668 51.0264 9.38333 50.4025 9.65663C49.7846 9.92993 49.2555 10.3041 48.8151 10.7791C48.3746 11.2541 48.0259 11.8235 47.769 12.4873C47.5121 13.151 47.3836 13.8603 47.3836 14.6151C47.3836 15.6172 47.6008 16.5315 48.0351 17.3579C48.4694 18.1778 49.0689 18.822 49.8336 19.2905Z" fill="white"/>
<defs>
<clipPath id="clip0_5402_889">
<rect width="38.7755" height="34" fill="white" transform="translate(61.2245)"/>
</clipPath>
</defs>
</svg>
