<svg width="24" height="24" viewBox="0 0 24 24" fill="none" xmlns="http://www.w3.org/2000/svg">
<path d="M12 7H18C18.2652 7 18.5196 7.10536 18.7071 7.29289C18.8946 7.48043 19 7.73478 19 8C19 8.26522 18.8946 8.51957 18.7071 8.70711C18.5196 8.89464 18.2652 9 18 9H12C11.7348 9 11.4804 8.89464 11.2929 8.70711C11.1054 8.51957 11 8.26522 11 8C11 7.73478 11.1054 7.48043 11.2929 7.29289C11.4804 7.10536 11.7348 7 12 7V7ZM10 15H18C18.2652 15 18.5196 15.1054 18.7071 15.2929C18.8946 15.4804 19 15.7348 19 16C19 16.2652 18.8946 16.5196 18.7071 16.7071C18.5196 16.8946 18.2652 17 18 17H10C9.73478 17 9.48043 16.8946 9.29289 16.7071C9.10536 16.5196 9 16.2652 9 16C9 15.7348 9.10536 15.4804 9.29289 15.2929C9.48043 15.1054 9.73478 15 10 15ZM6 11H18C18.2652 11 18.5196 11.1054 18.7071 11.2929C18.8946 11.4804 19 11.7348 19 12C19 12.2652 18.8946 12.5196 18.7071 12.7071C18.5196 12.8946 18.2652 13 18 13H6C5.73478 13 5.48043 12.8946 5.29289 12.7071C5.10536 12.5196 5 12.2652 5 12C5 11.7348 5.10536 11.4804 5.29289 11.2929C5.48043 11.1054 5.73478 11 6 11Z" fill="white"/>
</svg>
