<svg width="161" height="42" viewBox="0 0 161 42" fill="none" xmlns="http://www.w3.org/2000/svg">
<rect x="40.9243" width="13.3242" height="42" fill="white"/>
<path d="M2.99885 0H18.0828L35.2139 27.6977L27.5373 42L2.99885 0Z" fill="white"/>
<path d="M8.56555 25.3953L17.1311 41.9999H0L8.56555 25.3953Z" fill="white"/>
<path d="M90.6607 1.93884V21.3835H88.085V6.8843L81.5749 21.3835H79.7633L73.2249 6.8562V21.3835H70.6492V1.93884H73.423L80.6691 18.0116L87.9152 1.93884H90.6607Z" fill="white"/>
<path d="M96.3593 3.4843C95.8687 3.4843 95.4535 3.3157 95.1139 2.97851C94.7742 2.64132 94.6044 2.2292 94.6044 1.74215C94.6044 1.2551 94.7742 0.842975 95.1139 0.505785C95.4535 0.168595 95.8687 0 96.3593 0C96.8311 0 97.2273 0.168595 97.5481 0.505785C97.8878 0.842975 98.0576 1.2551 98.0576 1.74215C98.0576 2.2292 97.8878 2.64132 97.5481 2.97851C97.2273 3.3157 96.8311 3.4843 96.3593 3.4843ZM97.6047 5.98512V21.3835H95.029V5.98512H97.6047Z" fill="white"/>
<path d="M107.486 21.6364C106.297 21.6364 105.231 21.4397 104.287 21.0463C103.344 20.6342 102.598 20.0722 102.051 19.3603C101.504 18.6298 101.202 17.7961 101.145 16.8595H103.806C103.882 17.6275 104.24 18.2551 104.882 18.7421C105.542 19.2292 106.401 19.4727 107.457 19.4727C108.439 19.4727 109.212 19.2573 109.778 18.8264C110.345 18.3956 110.628 17.8523 110.628 17.1967C110.628 16.5223 110.326 16.0259 109.722 15.7074C109.118 15.3702 108.184 15.0424 106.92 14.724C105.769 14.4242 104.825 14.1245 104.089 13.8248C103.372 13.5063 102.749 13.0474 102.221 12.4479C101.712 11.8298 101.457 11.0242 101.457 10.0314C101.457 9.24463 101.693 8.52342 102.164 7.86777C102.636 7.21212 103.306 6.69697 104.174 6.32231C105.042 5.92893 106.033 5.73223 107.146 5.73223C108.863 5.73223 110.25 6.16309 111.307 7.02479C112.364 7.8865 112.93 9.06667 113.005 10.5653H110.429C110.373 9.75978 110.043 9.1135 109.439 8.62645C108.854 8.13939 108.061 7.89587 107.061 7.89587C106.137 7.89587 105.401 8.09256 104.853 8.48595C104.306 8.87934 104.033 9.39449 104.033 10.0314C104.033 10.5372 104.193 10.9587 104.514 11.2959C104.853 11.6143 105.269 11.8766 105.759 12.0826C106.269 12.27 106.967 12.4854 107.854 12.7289C108.967 13.0287 109.873 13.3284 110.571 13.6281C111.269 13.9091 111.864 14.3399 112.354 14.9207C112.864 15.5014 113.128 16.2601 113.147 17.1967C113.147 18.0397 112.911 18.7983 112.439 19.4727C111.967 20.1471 111.298 20.681 110.429 21.0744C109.58 21.449 108.599 21.6364 107.486 21.6364Z" fill="white"/>
<path d="M130.539 5.98512V21.3835H127.963V19.1074C127.473 19.8942 126.784 20.5124 125.897 20.962C125.029 21.3928 124.067 21.6083 123.01 21.6083C121.802 21.6083 120.717 21.3647 119.755 20.8777C118.792 20.3719 118.028 19.6226 117.462 18.6298C116.915 17.6369 116.641 16.4287 116.641 15.005V5.98512H119.189V14.6678C119.189 16.1851 119.576 17.3559 120.349 18.1802C121.123 18.9857 122.18 19.3884 123.519 19.3884C124.897 19.3884 125.982 18.9669 126.774 18.124C127.567 17.281 127.963 16.054 127.963 14.443V5.98512H130.539Z" fill="white"/>
<path d="M137.464 8.48595C137.917 7.60551 138.558 6.92176 139.388 6.43471C140.238 5.94766 141.266 5.70413 142.474 5.70413V8.34546H141.794C138.907 8.34546 137.464 9.90028 137.464 13.0099V21.3835H134.888V5.98512H137.464V8.48595Z" fill="white"/>
<path d="M144.485 13.6281C144.485 12.0545 144.805 10.6777 145.447 9.49752C146.089 8.29862 146.966 7.37135 148.079 6.7157C149.212 6.06005 150.466 5.73223 151.844 5.73223C153.203 5.73223 154.382 6.02259 155.382 6.60331C156.382 7.18402 157.128 7.9146 157.618 8.79504V5.98512H160.222V21.3835H157.618V18.5174C157.109 19.4165 156.344 20.1658 155.325 20.7653C154.325 21.346 153.155 21.6364 151.816 21.6364C150.438 21.6364 149.193 21.2992 148.079 20.6248C146.966 19.9504 146.089 19.0044 145.447 17.7868C144.805 16.5691 144.485 15.1829 144.485 13.6281ZM157.618 13.6562C157.618 12.4948 157.382 11.4832 156.911 10.6215C156.439 9.75978 155.797 9.10413 154.986 8.65455C154.193 8.18623 153.316 7.95207 152.353 7.95207C151.391 7.95207 150.514 8.17686 149.721 8.62645C148.929 9.07603 148.296 9.73168 147.825 10.5934C147.353 11.4551 147.117 12.4667 147.117 13.6281C147.117 14.8083 147.353 15.8386 147.825 16.719C148.296 17.5807 148.929 18.2457 149.721 18.7141C150.514 19.1636 151.391 19.3884 152.353 19.3884C153.316 19.3884 154.193 19.1636 154.986 18.7141C155.797 18.2457 156.439 17.5807 156.911 16.719C157.382 15.8386 157.618 14.8176 157.618 13.6562Z" fill="white"/>
<path d="M83.5487 26.7273L78.1722 41.8053H76.0257L70.6492 26.7273H72.6321L77.1091 39.7286L81.5861 26.7273H83.5487Z" fill="white"/>
<path d="M95.8099 35.4237C95.8099 35.7986 95.7895 36.1952 95.7486 36.6135H86.7946C86.8628 37.7816 87.2375 38.6974 87.919 39.3608C88.614 40.0098 89.4522 40.3343 90.4334 40.3343C91.2375 40.3343 91.9053 40.1396 92.4369 39.7502C92.982 39.3464 93.3636 38.8128 93.5817 38.1494H95.5851C95.2852 39.2887 94.6856 40.2189 93.7861 40.94C92.8866 41.6467 91.769 42 90.4334 42C89.3704 42 88.4164 41.7476 87.5714 41.2429C86.7401 40.7381 86.0859 40.0242 85.6089 39.1012C85.1319 38.1638 84.8934 37.0822 84.8934 35.8563C84.8934 34.6305 85.1251 33.556 85.5885 32.633C86.0518 31.71 86.6992 31.0034 87.5306 30.513C88.3755 30.0083 89.3432 29.7559 90.4334 29.7559C91.4965 29.7559 92.4368 30.0011 93.2546 30.4914C94.0723 30.9817 94.6992 31.6596 95.1353 32.5249C95.5851 33.3758 95.8099 34.342 95.8099 35.4237ZM93.8883 35.0126C93.8883 34.2627 93.7316 33.6209 93.4181 33.0873C93.1047 32.5393 92.6754 32.1283 92.1302 31.8543C91.5987 31.5658 91.0059 31.4216 90.3517 31.4216C89.4113 31.4216 88.6072 31.7389 87.9394 32.3734C87.2852 33.008 86.9105 33.8877 86.8151 35.0126H93.8883Z" fill="white"/>
<path d="M103.724 29.7342C105.087 29.7342 106.191 30.1741 107.035 31.0538C107.88 31.9192 108.303 33.1739 108.303 34.8179V41.8053H106.463V35.0992C106.463 33.9166 106.184 33.0152 105.625 32.3951C105.066 31.7605 104.303 31.4432 103.335 31.4432C102.354 31.4432 101.57 31.7677 100.984 32.4167C100.412 33.0657 100.126 34.0103 100.126 35.2506V41.8053H98.2655V29.9506H100.126V31.6379C100.494 31.0322 100.991 30.5635 101.618 30.2318C102.259 29.9001 102.961 29.7342 103.724 29.7342Z" fill="white"/>
<path d="M113.611 31.573V38.5604C113.611 39.1373 113.727 39.5483 113.958 39.7935C114.19 40.0242 114.592 40.1396 115.165 40.1396H116.534V41.8053H114.858C113.822 41.8053 113.045 41.5529 112.527 41.0482C112.01 40.5434 111.751 39.7142 111.751 38.5604V31.573H110.299V29.9506H111.751V26.9653H113.611V29.9506H116.534V31.573H113.611Z" fill="white"/>
<path d="M128.724 29.9506V41.8053H126.863V40.0531C126.509 40.6588 126.011 41.1347 125.371 41.4808C124.744 41.8125 124.049 41.9784 123.286 41.9784C122.413 41.9784 121.63 41.7909 120.935 41.4159C120.24 41.0265 119.688 40.4497 119.279 39.6853C118.884 38.921 118.686 37.9908 118.686 36.8947V29.9506H120.526V36.6351C120.526 37.8033 120.805 38.7046 121.364 39.3392C121.923 39.9593 122.686 40.2694 123.654 40.2694C124.649 40.2694 125.432 39.9449 126.005 39.2959C126.577 38.6469 126.863 37.7023 126.863 36.462V29.9506H128.724Z" fill="white"/>
<path d="M133.725 31.8759C134.052 31.1981 134.515 30.6717 135.115 30.2967C135.728 29.9217 136.471 29.7342 137.343 29.7342V31.7677H136.853C134.767 31.7677 133.725 32.9647 133.725 35.3588V41.8053H131.865V29.9506H133.725V31.8759Z" fill="white"/>
<path d="M149.712 35.4237C149.712 35.7986 149.692 36.1952 149.651 36.6135H140.697C140.765 37.7816 141.14 38.6974 141.821 39.3608C142.516 40.0098 143.354 40.3343 144.336 40.3343C145.14 40.3343 145.808 40.1396 146.339 39.7502C146.884 39.3464 147.266 38.8128 147.484 38.1494H149.487C149.187 39.2887 148.588 40.2189 147.688 40.94C146.789 41.6467 145.671 42 144.336 42C143.273 42 142.319 41.7476 141.474 41.2429C140.642 40.7381 139.988 40.0242 139.511 39.1012C139.034 38.1638 138.796 37.0822 138.796 35.8563C138.796 34.6305 139.027 33.556 139.491 32.633C139.954 31.71 140.601 31.0034 141.433 30.513C142.278 30.0083 143.245 29.7559 144.336 29.7559C145.399 29.7559 146.339 30.0011 147.157 30.4914C147.975 30.9817 148.601 31.6596 149.038 32.5249C149.487 33.3758 149.712 34.342 149.712 35.4237ZM147.791 35.0126C147.791 34.2627 147.634 33.6209 147.32 33.0873C147.007 32.5393 146.578 32.1283 146.032 31.8543C145.501 31.5658 144.908 31.4216 144.254 31.4216C143.314 31.4216 142.509 31.7389 141.842 32.3734C141.187 33.008 140.813 33.8877 140.717 35.0126H147.791Z" fill="white"/>
<path d="M156.134 42C155.275 42 154.505 41.8486 153.824 41.5457C153.142 41.2285 152.604 40.7958 152.209 40.2478C151.813 39.6853 151.595 39.0435 151.554 38.3225H153.476C153.531 38.9137 153.79 39.3969 154.253 39.7718C154.73 40.1468 155.35 40.3343 156.113 40.3343C156.822 40.3343 157.381 40.1684 157.79 39.8367C158.198 39.505 158.403 39.0868 158.403 38.582C158.403 38.0629 158.185 37.6807 157.749 37.4355C157.313 37.1759 156.638 36.9235 155.725 36.6784C154.893 36.4476 154.212 36.2169 153.681 35.9861C153.163 35.7409 152.713 35.3876 152.331 34.9261C151.963 34.4502 151.779 33.8301 151.779 33.0657C151.779 32.46 151.95 31.9047 152.29 31.4C152.631 30.8952 153.115 30.4986 153.742 30.2102C154.369 29.9073 155.084 29.7559 155.888 29.7559C157.129 29.7559 158.13 30.0876 158.893 30.751C159.657 31.4144 160.066 32.323 160.12 33.4767H158.26C158.219 32.8566 157.98 32.359 157.544 31.9841C157.122 31.6091 156.549 31.4216 155.827 31.4216C155.159 31.4216 154.628 31.573 154.232 31.8759C153.837 32.1788 153.64 32.5754 153.64 33.0657C153.64 33.4551 153.755 33.7796 153.987 34.0392C154.232 34.2843 154.532 34.4862 154.887 34.6449C155.255 34.7891 155.759 34.955 156.399 35.1424C157.203 35.3732 157.858 35.6039 158.362 35.8347C158.866 36.051 159.295 36.3827 159.65 36.8298C160.018 37.2769 160.209 37.861 160.222 38.582C160.222 39.231 160.052 39.8151 159.711 40.3343C159.37 40.8535 158.887 41.2645 158.26 41.5674C157.646 41.8558 156.938 42 156.134 42Z" fill="white"/>
</svg>
