<svg width="127" height="34" viewBox="0 0 127 34" fill="none" xmlns="http://www.w3.org/2000/svg">
<rect x="32.4386" y="0.5" width="10.5614" height="33" fill="white"/>
<path d="M2.37703 0.5H14.3333L27.9123 22.2625L21.8274 33.5L2.37703 0.5Z" fill="white"/>
<path d="M6.78947 20.4534L13.5789 33.4999H0L6.78947 20.4534Z" fill="white"/>
<path d="M71.8621 2.02338V17.3013H69.8205V5.90909L64.6602 17.3013H63.2243L58.0417 5.88701V17.3013H56V2.02338H58.1987L63.9423 14.6519L69.6859 2.02338H71.8621Z" fill="white"/>
<path d="M76.3791 3.23766C75.9902 3.23766 75.6612 3.1052 75.3919 2.84026C75.1227 2.57532 74.9881 2.25152 74.9881 1.86883C74.9881 1.48615 75.1227 1.16234 75.3919 0.897403C75.6612 0.632468 75.9902 0.5 76.3791 0.5C76.753 0.5 77.0671 0.632468 77.3214 0.897403C77.5906 1.16234 77.7253 1.48615 77.7253 1.86883C77.7253 2.25152 77.5906 2.57532 77.3214 2.84026C77.0671 3.1052 76.753 3.23766 76.3791 3.23766ZM77.3663 5.2026V17.3013H75.3246V5.2026H77.3663Z" fill="white"/>
<path d="M85.1985 17.5C84.2562 17.5 83.4111 17.3455 82.6633 17.0364C81.9154 16.7126 81.3246 16.271 80.8908 15.7117C80.4571 15.1377 80.2177 14.4827 80.1729 13.7468H82.2818C82.3417 14.3502 82.6259 14.8433 83.1344 15.226C83.6579 15.6087 84.3385 15.8 85.1761 15.8C85.9538 15.8 86.5671 15.6307 87.0158 15.2922C87.4645 14.9537 87.6889 14.5268 87.6889 14.0117C87.6889 13.4818 87.4496 13.0918 86.9709 12.8416C86.4923 12.5766 85.7519 12.319 84.7498 12.0688C83.8374 11.8333 83.0895 11.5978 82.5062 11.3623C81.9378 11.1121 81.4442 10.7515 81.0254 10.2805C80.6216 9.79481 80.4197 9.16191 80.4197 8.38182C80.4197 7.76364 80.6066 7.19697 80.9806 6.68182C81.3545 6.16667 81.8855 5.76191 82.5735 5.46753C83.2615 5.15844 84.0468 5.0039 84.9293 5.0039C86.2904 5.0039 87.3897 5.34242 88.2273 6.01948C89.0649 6.69654 89.5137 7.62381 89.5735 8.8013H87.5318C87.487 8.1684 87.2252 7.66061 86.7466 7.27792C86.2829 6.89524 85.6547 6.7039 84.862 6.7039C84.1291 6.7039 83.5457 6.85844 83.112 7.16753C82.6782 7.47662 82.4613 7.88139 82.4613 8.38182C82.4613 8.77922 82.5885 9.11039 82.8427 9.37533C83.112 9.62554 83.441 9.8316 83.8299 9.99351C84.2338 10.1407 84.7872 10.31 85.4902 10.5013C86.3726 10.7368 87.0906 10.9723 87.644 11.2078C88.1974 11.4286 88.6686 11.7671 89.0575 12.2234C89.4613 12.6797 89.6707 13.2758 89.6857 14.0117C89.6857 14.674 89.4987 15.2701 89.1248 15.8C88.7508 16.3299 88.2199 16.7494 87.5318 17.0584C86.8588 17.3528 86.081 17.5 85.1985 17.5Z" fill="white"/>
<path d="M103.472 5.2026V17.3013H101.43V15.513C101.041 16.1312 100.495 16.6169 99.7922 16.9701C99.1041 17.3087 98.3413 17.4779 97.5037 17.4779C96.5464 17.4779 95.6864 17.2866 94.9236 16.9039C94.1608 16.5065 93.555 15.9178 93.1063 15.1377C92.6725 14.3576 92.4556 13.4082 92.4556 12.2896V5.2026H94.4749V12.0247C94.4749 13.2169 94.7815 14.1368 95.3947 14.7844C96.008 15.4173 96.8456 15.7338 97.9075 15.7338C98.9994 15.7338 99.8595 15.4026 100.488 14.7403C101.116 14.0779 101.43 13.1139 101.43 11.8481V5.2026H103.472Z" fill="white"/>
<path d="M108.961 7.16753C109.319 6.47576 109.828 5.93853 110.486 5.55584C111.159 5.17316 111.974 4.98182 112.932 4.98182V7.05714H112.393C110.105 7.05714 108.961 8.27879 108.961 10.7221V17.3013H106.919V5.2026H108.961V7.16753Z" fill="white"/>
<path d="M114.526 11.2078C114.526 9.97143 114.78 8.88961 115.288 7.96234C115.797 7.02035 116.493 6.29178 117.375 5.77662C118.272 5.26147 119.267 5.0039 120.359 5.0039C121.436 5.0039 122.371 5.23203 123.163 5.68831C123.956 6.14459 124.547 6.71861 124.936 7.41039V5.2026H127V17.3013H124.936V15.0494C124.532 15.7558 123.926 16.3446 123.119 16.8156C122.326 17.2719 121.399 17.5 120.337 17.5C119.245 17.5 118.257 17.2351 117.375 16.7052C116.493 16.1753 115.797 15.432 115.288 14.4753C114.78 13.5186 114.526 12.4294 114.526 11.2078ZM124.936 11.2299C124.936 10.3173 124.749 9.52251 124.375 8.84546C124.001 8.1684 123.493 7.65325 122.849 7.3C122.221 6.93204 121.526 6.74805 120.763 6.74805C120 6.74805 119.305 6.92468 118.676 7.27792C118.048 7.63117 117.547 8.14632 117.173 8.82338C116.799 9.50043 116.612 10.2952 116.612 11.2078C116.612 12.1351 116.799 12.9446 117.173 13.6364C117.547 14.3134 118.048 14.8359 118.676 15.2039C119.305 15.5571 120 15.7338 120.763 15.7338C121.526 15.7338 122.221 15.5571 122.849 15.2039C123.493 14.8359 124.001 14.3134 124.375 13.6364C124.749 12.9446 124.936 12.1424 124.936 11.2299Z" fill="white"/>
<path d="M66.2248 21.5L61.9631 33.347H60.2617L56 21.5H57.5718L61.1205 31.7153L64.6692 21.5H66.2248Z" fill="white"/>
<path d="M75.9437 28.3329C75.9437 28.6275 75.9275 28.9391 75.8951 29.2677H68.7977C68.8517 30.1856 69.1488 30.9051 69.6889 31.4263C70.2398 31.9363 70.9042 32.1912 71.682 32.1912C72.3193 32.1912 72.8487 32.0382 73.27 31.7323C73.7021 31.415 74.0046 30.9958 74.1774 30.4745H75.7654C75.5278 31.3697 75.0524 32.1006 74.3395 32.6671C73.6265 33.2224 72.7407 33.5 71.682 33.5C70.8394 33.5 70.0832 33.3017 69.4134 32.9051C68.7545 32.5085 68.2359 31.9476 67.8578 31.2224C67.4797 30.4858 67.2907 29.636 67.2907 28.6728C67.2907 27.7096 67.4743 26.8654 67.8416 26.1402C68.2089 25.415 68.7221 24.8598 69.381 24.4745C70.0508 24.0779 70.8178 23.8796 71.682 23.8796C72.5246 23.8796 73.27 24.0722 73.9181 24.4575C74.5663 24.8428 75.0632 25.3754 75.4089 26.0552C75.7654 26.7238 75.9437 27.483 75.9437 28.3329ZM74.4205 28.0099C74.4205 27.4207 74.2962 26.9164 74.0478 26.4972C73.7993 26.0666 73.459 25.7436 73.0269 25.5283C72.6056 25.3017 72.1357 25.1884 71.6172 25.1884C70.8718 25.1884 70.2344 25.4377 69.7051 25.9363C69.1866 26.4348 68.8895 27.1261 68.8139 28.0099H74.4205Z" fill="white"/>
<path d="M82.2165 23.8626C83.2968 23.8626 84.1718 24.2082 84.8416 24.8994C85.5114 25.5793 85.8462 26.5652 85.8462 27.8569V33.347H84.3879V28.0779C84.3879 27.1487 84.1664 26.4405 83.7235 25.9533C83.2806 25.4547 82.6756 25.2054 81.9087 25.2054C81.1309 25.2054 80.5097 25.4603 80.0452 25.9703C79.5915 26.4802 79.3646 27.2224 79.3646 28.1969V33.347H77.89V24.0326H79.3646V25.3584C79.6563 24.8824 80.0506 24.5142 80.5475 24.2535C81.0552 23.9929 81.6116 23.8626 82.2165 23.8626Z" fill="white"/>
<path d="M90.0536 25.3074V30.7975C90.0536 31.2507 90.1454 31.5737 90.3291 31.7663C90.5127 31.9476 90.8314 32.0382 91.2851 32.0382H92.3708V33.347H91.042C90.221 33.347 89.6053 33.1487 89.1948 32.7521C88.7843 32.3555 88.579 31.704 88.579 30.7975V25.3074H87.4285V24.0326H88.579V21.687H90.0536V24.0326H92.3708V25.3074H90.0536Z" fill="white"/>
<path d="M102.033 24.0326V33.347H100.558V31.9703C100.277 32.4462 99.8828 32.8201 99.3751 33.0921C98.8782 33.3527 98.3273 33.483 97.7223 33.483C97.0309 33.483 96.4098 33.3357 95.8588 33.0411C95.3079 32.7351 94.8704 32.2819 94.5463 31.6813C94.233 31.0807 94.0764 30.3499 94.0764 29.4887V24.0326H95.5347V29.2847C95.5347 30.2025 95.7562 30.9108 96.1991 31.4093C96.642 31.8966 97.247 32.1402 98.014 32.1402C98.8026 32.1402 99.4237 31.8853 99.8774 31.3754C100.331 30.8654 100.558 30.1232 100.558 29.1487V24.0326H102.033Z" fill="white"/>
<path d="M105.997 25.5453C106.256 25.0127 106.623 24.5991 107.099 24.3045C107.585 24.0099 108.174 23.8626 108.865 23.8626V25.4603H108.476C106.823 25.4603 105.997 26.4008 105.997 28.2819V33.347H104.522V24.0326H105.997V25.5453Z" fill="white"/>
<path d="M118.669 28.3329C118.669 28.6275 118.653 28.9391 118.621 29.2677H111.523C111.577 30.1856 111.874 30.9051 112.414 31.4263C112.965 31.9363 113.63 32.1912 114.408 32.1912C115.045 32.1912 115.574 32.0382 115.996 31.7323C116.428 31.415 116.73 30.9958 116.903 30.4745H118.491C118.253 31.3697 117.778 32.1006 117.065 32.6671C116.352 33.2224 115.466 33.5 114.408 33.5C113.565 33.5 112.809 33.3017 112.139 32.9051C111.48 32.5085 110.961 31.9476 110.583 31.2224C110.205 30.4858 110.016 29.636 110.016 28.6728C110.016 27.7096 110.2 26.8654 110.567 26.1402C110.934 25.415 111.448 24.8598 112.107 24.4745C112.776 24.0779 113.543 23.8796 114.408 23.8796C115.25 23.8796 115.996 24.0722 116.644 24.4575C117.292 24.8428 117.789 25.3754 118.134 26.0552C118.491 26.7238 118.669 27.483 118.669 28.3329ZM117.146 28.0099C117.146 27.4207 117.022 26.9164 116.773 26.4972C116.525 26.0666 116.185 25.7436 115.752 25.5283C115.331 25.3017 114.861 25.1884 114.343 25.1884C113.597 25.1884 112.96 25.4377 112.431 25.9363C111.912 26.4348 111.615 27.1261 111.539 28.0099H117.146Z" fill="white"/>
<path d="M123.759 33.5C123.079 33.5 122.468 33.381 121.928 33.1431C121.388 32.8938 120.961 32.5538 120.648 32.1232C120.335 31.6813 120.162 31.1771 120.129 30.6105H121.653C121.696 31.0751 121.901 31.4547 122.268 31.7493C122.647 32.0439 123.138 32.1912 123.743 32.1912C124.305 32.1912 124.748 32.0609 125.072 31.8003C125.396 31.5397 125.558 31.211 125.558 30.8144C125.558 30.4065 125.385 30.1062 125.039 29.9136C124.694 29.7096 124.159 29.5113 123.435 29.3187C122.776 29.1374 122.236 28.9561 121.815 28.7748C121.404 28.5822 121.048 28.3045 120.745 27.9419C120.454 27.568 120.308 27.0807 120.308 26.4802C120.308 26.0042 120.443 25.568 120.713 25.1714C120.983 24.7748 121.366 24.4632 121.863 24.2365C122.36 23.9986 122.927 23.8796 123.565 23.8796C124.548 23.8796 125.342 24.1402 125.947 24.6615C126.552 25.1827 126.876 25.8966 126.919 26.8031H125.444C125.412 26.3159 125.223 25.9249 124.877 25.6303C124.542 25.3357 124.089 25.1884 123.516 25.1884C122.987 25.1884 122.565 25.3074 122.252 25.5453C121.939 25.7833 121.782 26.0949 121.782 26.4802C121.782 26.7861 121.874 27.0411 122.058 27.245C122.252 27.4377 122.49 27.5963 122.771 27.721C123.062 27.8343 123.462 27.9646 123.97 28.1119C124.607 28.2932 125.126 28.4745 125.525 28.6558C125.925 28.8258 126.265 29.0864 126.546 29.4377C126.838 29.789 126.989 30.2479 127 30.8144C127 31.3244 126.865 31.7833 126.595 32.1912C126.325 32.5992 125.941 32.9221 125.444 33.1601C124.958 33.3867 124.397 33.5 123.759 33.5Z" fill="white"/>
</svg>
