<svg width="60" height="60" viewBox="0 0 60 60" fill="none" xmlns="http://www.w3.org/2000/svg">
<rect x="0.25" y="0.25" width="59.5" height="59.5" rx="29.75" stroke="black" stroke-width="0.5"/>
<path d="M26.6175 36.25C25.8675 33.9688 25.3275 31.4688 25 28.75C24.5475 25 24.5475 21.25 25 17.5H35C35.3888 21.6613 35.3888 25.4113 35 28.75C34.6998 31.2949 34.1612 33.8059 33.3912 36.25H33.75C34.413 36.25 35.0489 36.5134 35.5178 36.9822C35.9866 37.4511 36.25 38.087 36.25 38.75V42.5H23.75V38.75C23.75 38.087 24.0134 37.4511 24.4822 36.9822C24.9511 36.5134 25.587 36.25 26.25 36.25H26.6175ZM27.5 37.5V40H32.5V37.5H27.5Z" fill="black"/>
</svg>
