<svg width="60" height="60" viewBox="0 0 60 60" fill="none" xmlns="http://www.w3.org/2000/svg">
<rect x="0.25" y="0.25" width="59.5" height="59.5" rx="29.75" stroke="black" stroke-width="0.5"/>
<path d="M30 42.5C23.0963 42.5 17.5 36.9037 17.5 30C17.5 23.0963 23.0963 17.5 30 17.5C36.9037 17.5 42.5 23.0963 42.5 30C42.5 36.9037 36.9037 42.5 30 42.5ZM30 40C32.6522 40 35.1957 38.9464 37.0711 37.0711C38.9464 35.1957 40 32.6522 40 30C40 27.3478 38.9464 24.8043 37.0711 22.9289C35.1957 21.0536 32.6522 20 30 20C27.3478 20 24.8043 21.0536 22.9289 22.9289C21.0536 24.8043 20 27.3478 20 30C20 32.6522 21.0536 35.1957 22.9289 37.0711C24.8043 38.9464 27.3478 40 30 40ZM30 38.75C28.8509 38.75 27.7131 38.5237 26.6515 38.0839C25.5899 37.6442 24.6253 36.9997 23.8128 36.1872C23.0003 35.3747 22.3558 34.4101 21.9161 33.3485C21.4763 32.2869 21.25 31.1491 21.25 30C21.25 28.8509 21.4763 27.7131 21.9161 26.6515C22.3558 25.5899 23.0003 24.6253 23.8128 23.8128C24.6253 23.0003 25.5899 22.3558 26.6515 21.9161C27.7131 21.4763 28.8509 21.25 30 21.25C32.3206 21.25 34.5462 22.1719 36.1872 23.8128C37.8281 25.4538 38.75 27.6794 38.75 30C38.75 32.3206 37.8281 34.5462 36.1872 36.1872C34.5462 37.8281 32.3206 38.75 30 38.75ZM30 36.25C31.6576 36.25 33.2473 35.5915 34.4194 34.4194C35.5915 33.2473 36.25 31.6576 36.25 30C36.25 28.3424 35.5915 26.7527 34.4194 25.5806C33.2473 24.4085 31.6576 23.75 30 23.75C28.3424 23.75 26.7527 24.4085 25.5806 25.5806C24.4085 26.7527 23.75 28.3424 23.75 30C23.75 31.6576 24.4085 33.2473 25.5806 34.4194C26.7527 35.5915 28.3424 36.25 30 36.25ZM30 35C28.6739 35 27.4021 34.4732 26.4645 33.5355C25.5268 32.5979 25 31.3261 25 30C25 28.6739 25.5268 27.4021 26.4645 26.4645C27.4021 25.5268 28.6739 25 30 25C31.3261 25 32.5979 25.5268 33.5355 26.4645C34.4732 27.4021 35 28.6739 35 30C35 31.3261 34.4732 32.5979 33.5355 33.5355C32.5979 34.4732 31.3261 35 30 35ZM30 32.5C30.663 32.5 31.2989 32.2366 31.7678 31.7678C32.2366 31.2989 32.5 30.663 32.5 30C32.5 29.337 32.2366 28.7011 31.7678 28.2322C31.2989 27.7634 30.663 27.5 30 27.5C29.337 27.5 28.7011 27.7634 28.2322 28.2322C27.7634 28.7011 27.5 29.337 27.5 30C27.5 30.663 27.7634 31.2989 28.2322 31.7678C28.7011 32.2366 29.337 32.5 30 32.5ZM30 31.25C29.6685 31.25 29.3505 31.1183 29.1161 30.8839C28.8817 30.6495 28.75 30.3315 28.75 30C28.75 29.6685 28.8817 29.3505 29.1161 29.1161C29.3505 28.8817 29.6685 28.75 30 28.75C30.3315 28.75 30.6495 28.8817 30.8839 29.1161C31.1183 29.3505 31.25 29.6685 31.25 30C31.25 30.3315 31.1183 30.6495 30.8839 30.8839C30.6495 31.1183 30.3315 31.25 30 31.25Z" fill="black"/>
</svg>
