<svg width="65" height="65" viewBox="0 0 65 65" fill="none" xmlns="http://www.w3.org/2000/svg">
<path opacity="0.4" d="M1 32.3513C1 49.7517 15.1032 63.8469 32.5023 63.8469C49.9015 63.8469 64.0047 49.7428 64.0047 32.3513C64.0047 14.9598 49.9015 0.846924 32.5023 0.846924C15.1032 0.846924 1 14.951 1 32.3513Z" fill="#B7B1CD"/>
<path opacity="0.4" d="M1 32.3513C1 49.7517 15.1032 63.8469 32.5023 63.8469C49.9015 63.8469 64.0047 49.7428 64.0047 32.3513C64.0047 14.9598 49.9015 0.846924 32.5023 0.846924C15.1032 0.846924 1 14.951 1 32.3513Z" stroke="#B7B1CD" stroke-miterlimit="10"/>
<path d="M6.22217 32.351C6.22217 46.8616 17.9836 58.6238 32.5021 58.6238C47.0206 58.6238 58.782 46.8616 58.782 32.351C58.782 17.8404 47.0206 6.06934 32.5021 6.06934C17.9836 6.06934 6.22217 17.8316 6.22217 32.351Z" fill="white"/>
<path opacity="0.8" d="M38.2399 25.0095H36.6972V21.6038H22.3862V38.516H27.8195V42.9115H42.9649V29.6572L38.2399 25.0095ZM37.7936 27.3673L40.3938 29.9192H37.7936V27.3673ZM24.3849 36.5172V23.5929H34.6985V25.0095H27.8195V36.5172H24.3849ZM40.9759 40.9127H29.8182V27.0083H36.4643V31.2582H40.9662V40.9127H40.9759Z" fill="#002152"/>
</svg>
