<svg width="110" height="110" viewBox="0 0 110 110" fill="none" xmlns="http://www.w3.org/2000/svg">
<rect x="0.5" y="0.5" width="109" height="109" rx="54.5" fill="white" stroke="#F4F4F4"/>
<g clip-path="url(#clip0_5053_5003)">
<path d="M51.5 43.625C51.5 43.194 51.3288 42.7807 51.024 42.476C50.7193 42.1712 50.306 42 49.875 42H43.375C42.944 42 42.5307 42.1712 42.226 42.476C41.9212 42.7807 41.75 43.194 41.75 43.625V50.125C41.75 50.556 41.9212 50.9693 42.226 51.274C42.5307 51.5788 42.944 51.75 43.375 51.75H49.875C50.306 51.75 50.7193 51.5788 51.024 51.274C51.3288 50.9693 51.5 50.556 51.5 50.125V43.625ZM48.25 48.5H45V45.25H48.25V48.5Z" fill="#7C54FA"/>
<path d="M64.5 43.625C64.5 43.194 64.3288 42.7807 64.024 42.476C63.7193 42.1712 63.306 42 62.875 42H56.375C55.944 42 55.5307 42.1712 55.226 42.476C54.9212 42.7807 54.75 43.194 54.75 43.625V50.125C54.75 50.556 54.9212 50.9693 55.226 51.274C55.5307 51.5788 55.944 51.75 56.375 51.75H62.875C63.306 51.75 63.7193 51.5788 64.024 51.274C64.3288 50.9693 64.5 50.556 64.5 50.125V43.625ZM61.25 48.5H58V45.25H61.25V48.5Z" fill="#7C54FA"/>
<path d="M49.875 55H43.375C42.944 55 42.5307 55.1712 42.226 55.476C41.9212 55.7807 41.75 56.194 41.75 56.625V63.125C41.75 63.556 41.9212 63.9693 42.226 64.274C42.5307 64.5788 42.944 64.75 43.375 64.75H49.875C50.306 64.75 50.7193 64.5788 51.024 64.274C51.3288 63.9693 51.5 63.556 51.5 63.125V56.625C51.5 56.194 51.3288 55.7807 51.024 55.476C50.7193 55.1712 50.306 55 49.875 55ZM48.25 61.5H45V58.25H48.25V61.5Z" fill="#7C54FA"/>
<path d="M62.875 55H56.375C55.944 55 55.5307 55.1712 55.226 55.476C54.9212 55.7807 54.75 56.194 54.75 56.625V63.125C54.75 63.556 54.9212 63.9693 55.226 64.274C55.5307 64.5788 55.944 64.75 56.375 64.75H62.875C63.306 64.75 63.7193 64.5788 64.024 64.274C64.3288 63.9693 64.5 63.556 64.5 63.125V56.625C64.5 56.194 64.3288 55.7807 64.024 55.476C63.7193 55.1712 63.306 55 62.875 55ZM61.25 61.5H58V58.25H61.25V61.5Z" fill="#7C54FA"/>
<path d="M72.625 77.75H71V74.9062C71 74.4753 70.8288 74.0619 70.524 73.7572C70.2193 73.4525 69.806 73.2812 69.375 73.2812C68.944 73.2812 68.5307 73.4525 68.226 73.7572C67.9212 74.0619 67.75 74.4753 67.75 74.9062V77.75H62.875V69.625C62.875 69.194 62.7038 68.7807 62.399 68.476C62.0943 68.1712 61.681 68 61.25 68H45C44.569 68 44.1557 68.1712 43.851 68.476C43.5462 68.7807 43.375 69.194 43.375 69.625V77.75H38.5V40.375C38.5 39.944 38.6712 39.5307 38.976 39.226C39.2807 38.9212 39.694 38.75 40.125 38.75H66.125C66.556 38.75 66.9693 38.9212 67.274 39.226C67.5788 39.5307 67.75 39.944 67.75 40.375V52.3188C67.75 52.7497 67.9212 53.1631 68.226 53.4678C68.5307 53.7725 68.944 53.9438 69.375 53.9438C69.806 53.9438 70.2193 53.7725 70.524 53.4678C70.8288 53.1631 71 52.7497 71 52.3188V40.375C71 39.0821 70.4864 37.8421 69.5721 36.9279C68.6579 36.0136 67.4179 35.5 66.125 35.5V33.875C66.125 32.5821 65.6114 31.3421 64.6971 30.4279C63.7829 29.5136 62.5429 29 61.25 29H45C43.7071 29 42.4671 29.5136 41.5529 30.4279C40.6386 31.3421 40.125 32.5821 40.125 33.875V35.5C38.8321 35.5 37.5921 36.0136 36.6779 36.9279C35.7636 37.8421 35.25 39.0821 35.25 40.375V77.75H33.625C33.194 77.75 32.7807 77.9212 32.476 78.226C32.1712 78.5307 32 78.944 32 79.375C32 79.806 32.1712 80.2193 32.476 80.524C32.7807 80.8288 33.194 81 33.625 81H72.625C73.056 81 73.4693 80.8288 73.774 80.524C74.0788 80.2193 74.25 79.806 74.25 79.375C74.25 78.944 74.0788 78.5307 73.774 78.226C73.4693 77.9212 73.056 77.75 72.625 77.75ZM43.375 33.875C43.375 33.444 43.5462 33.0307 43.851 32.726C44.1557 32.4212 44.569 32.25 45 32.25H61.25C61.681 32.25 62.0943 32.4212 62.399 32.726C62.7038 33.0307 62.875 33.444 62.875 33.875V35.5H43.375V33.875ZM46.625 77.75V71.25H59.625V77.75H46.625Z" fill="#7C54FA"/>
<path d="M71.3412 80.3825C70.3175 79.05 61.25 67.2687 61.25 61.5C61.25 58.4832 62.4484 55.5899 64.5817 53.4567C66.7149 51.3234 69.6082 50.125 72.625 50.125C75.6418 50.125 78.5351 51.3234 80.6683 53.4567C82.8016 55.5899 84 58.4832 84 61.5C84 67.2687 74.9325 79.05 73.9088 80.3825C73.7569 80.5782 73.5622 80.7366 73.3397 80.8456C73.1172 80.9545 72.8727 81.0112 72.625 81.0112C72.3773 81.0112 72.1328 80.9545 71.9103 80.8456C71.6878 80.7366 71.4931 80.5782 71.3412 80.3825ZM72.625 53.375C70.4701 53.375 68.4035 54.231 66.8798 55.7548C65.356 57.2785 64.5 59.3451 64.5 61.5C64.5 64.62 69.05 71.8512 72.625 76.6775C76.2 71.8025 80.75 64.62 80.75 61.5C80.75 59.3451 79.894 57.2785 78.3702 55.7548C76.8465 54.231 74.7799 53.375 72.625 53.375Z" fill="#7C54FA"/>
<path d="M72.625 66.375C71.6608 66.375 70.7183 66.0891 69.9166 65.5534C69.1149 65.0177 68.4901 64.2564 68.1211 63.3656C67.7521 62.4748 67.6556 61.4946 67.8437 60.5489C68.0318 59.6033 68.4961 58.7346 69.1779 58.0529C69.8596 57.3711 70.7283 56.9068 71.6739 56.7187C72.6196 56.5306 73.5998 56.6271 74.4906 56.9961C75.3814 57.3651 76.1427 57.9899 76.6784 58.7916C77.2141 59.5933 77.5 60.5358 77.5 61.5C77.5 62.7929 76.9864 64.0329 76.0721 64.9471C75.1579 65.8614 73.9179 66.375 72.625 66.375ZM72.625 59.875C72.3036 59.875 71.9894 59.9703 71.7222 60.1489C71.455 60.3274 71.2467 60.5812 71.1237 60.8781C71.0007 61.1751 70.9685 61.5018 71.0312 61.817C71.0939 62.1322 71.2487 62.4218 71.4759 62.6491C71.7032 62.8763 71.9928 63.0311 72.308 63.0938C72.6232 63.1565 72.9499 63.1243 73.2469 63.0013C73.5438 62.8783 73.7976 62.67 73.9761 62.4028C74.1547 62.1356 74.25 61.8214 74.25 61.5C74.25 61.069 74.0788 60.6557 73.774 60.351C73.4693 60.0462 73.056 59.875 72.625 59.875Z" fill="#7C54FA"/>
</g>
<defs>
<clipPath id="clip0_5053_5003">
<rect width="52" height="52" fill="white" transform="translate(32 29)"/>
</clipPath>
</defs>
</svg>
