<svg width="52" height="52" viewBox="0 0 52 52" fill="none" xmlns="http://www.w3.org/2000/svg">
<g clip-path="url(#clip0_5302_1108)">
<path d="M50.375 48.75H48.75V43.875C48.75 43.444 48.5788 43.0307 48.274 42.7259C47.9693 42.4212 47.556 42.25 47.125 42.25V34.125C47.125 33.694 46.9538 33.2807 46.649 32.9759C46.3443 32.6712 45.931 32.5 45.5 32.5C45.069 32.5 44.6557 32.6712 44.351 32.9759C44.0462 33.2807 43.875 33.694 43.875 34.125V42.25H40.625V29.25H47.125C47.556 29.25 47.9693 29.0788 48.274 28.774C48.5788 28.4693 48.75 28.0559 48.75 27.625V22.75H50.375C50.7107 22.748 51.0376 22.6422 51.3107 22.4469C51.5839 22.2516 51.7898 21.9766 51.9002 21.6595C52.0107 21.3425 52.0202 20.999 51.9275 20.6763C51.8348 20.3536 51.6444 20.0676 51.3825 19.8575L27.0075 0.357468C26.7206 0.130766 26.3656 0.00744629 26 0.00744629C25.6344 0.00744629 25.2794 0.130766 24.9925 0.357468L0.6175 19.8575C0.355619 20.0676 0.165241 20.3536 0.0725352 20.6763C-0.0201702 20.999 -0.0106513 21.3425 0.0997836 21.6595C0.210218 21.9766 0.416147 22.2516 0.689262 22.4469C0.962376 22.6422 1.28927 22.748 1.625 22.75H3.25V27.625C3.25 28.0559 3.4212 28.4693 3.72595 28.774C4.0307 29.0788 4.44402 29.25 4.875 29.25V42.25C4.44402 42.25 4.0307 42.4212 3.72595 42.7259C3.4212 43.0307 3.25 43.444 3.25 43.875V48.75H1.625C1.19402 48.75 0.780698 48.9212 0.475951 49.2259C0.171205 49.5307 0 49.944 0 50.375C0 50.8059 0.171205 51.2193 0.475951 51.524C0.780698 51.8288 1.19402 52 1.625 52H50.375C50.806 52 51.2193 51.8288 51.524 51.524C51.8288 51.2193 52 50.8059 52 50.375C52 49.944 51.8288 49.5307 51.524 49.2259C51.2193 48.9212 50.806 48.75 50.375 48.75ZM37.375 42.25C36.944 42.25 36.5307 42.4212 36.226 42.7259C35.9212 43.0307 35.75 43.444 35.75 43.875V48.75H16.25V43.875C16.25 43.444 16.0788 43.0307 15.774 42.7259C15.4693 42.4212 15.056 42.25 14.625 42.25V29.25C15.056 29.25 15.4693 29.0788 15.774 28.774C16.0788 28.4693 16.25 28.0559 16.25 27.625V22.75H35.75V27.625C35.75 28.0559 35.9212 28.4693 36.226 28.774C36.5307 29.0788 36.944 29.25 37.375 29.25V42.25ZM45.5 26H39V22.75H45.5V26ZM26 3.78622L45.7275 19.5H6.2725L26 3.78622ZM13 22.75V26H6.5V22.75H13ZM8.125 29.25H11.375V42.25H8.125V29.25ZM6.5 48.75V45.5H13V48.75H6.5ZM39 48.75V45.5H45.5V48.75H39Z" fill="#7C54FA"/>
<path d="M26 43.875H22.75C22.319 43.875 21.9057 43.7038 21.601 43.399C21.2962 43.0943 21.125 42.6809 21.125 42.25C21.125 41.819 21.2962 41.4057 21.601 41.1009C21.9057 40.7962 22.319 40.625 22.75 40.625H26C26.431 40.625 26.8443 40.4538 27.149 40.149C27.4538 39.8443 27.625 39.4309 27.625 39C27.625 38.569 27.4538 38.1557 27.149 37.8509C26.8443 37.5462 26.431 37.375 26 37.375C24.7071 37.375 23.4671 36.8614 22.5529 35.9471C21.6386 35.0329 21.125 33.7929 21.125 32.5C21.125 31.207 21.6386 29.9671 22.5529 29.0528C23.4671 28.1386 24.7071 27.625 26 27.625H29.25C29.681 27.625 30.0943 27.7962 30.399 28.1009C30.7038 28.4057 30.875 28.819 30.875 29.25C30.875 29.6809 30.7038 30.0943 30.399 30.399C30.0943 30.7038 29.681 30.875 29.25 30.875H26C25.569 30.875 25.1557 31.0462 24.851 31.3509C24.5462 31.6557 24.375 32.069 24.375 32.5C24.375 32.9309 24.5462 33.3443 24.851 33.649C25.1557 33.9538 25.569 34.125 26 34.125C27.2929 34.125 28.5329 34.6386 29.4471 35.5528C30.3614 36.4671 30.875 37.707 30.875 39C30.875 40.2929 30.3614 41.5329 29.4471 42.4471C28.5329 43.3614 27.2929 43.875 26 43.875Z" fill="#7C54FA"/>
<path d="M26 30.875C25.569 30.875 25.1557 30.7038 24.851 30.399C24.5462 30.0943 24.375 29.6809 24.375 29.25V27.625C24.375 27.194 24.5462 26.7807 24.851 26.4759C25.1557 26.1712 25.569 26 26 26C26.431 26 26.8443 26.1712 27.149 26.4759C27.4538 26.7807 27.625 27.194 27.625 27.625V29.25C27.625 29.6809 27.4538 30.0943 27.149 30.399C26.8443 30.7038 26.431 30.875 26 30.875Z" fill="#7C54FA"/>
<path d="M26 45.5C25.569 45.5 25.1557 45.3288 24.851 45.024C24.5462 44.7193 24.375 44.3059 24.375 43.875V42.25C24.375 41.819 24.5462 41.4057 24.851 41.1009C25.1557 40.7962 25.569 40.625 26 40.625C26.431 40.625 26.8443 40.7962 27.149 41.1009C27.4538 41.4057 27.625 41.819 27.625 42.25V43.875C27.625 44.3059 27.4538 44.7193 27.149 45.024C26.8443 45.3288 26.431 45.5 26 45.5Z" fill="#7C54FA"/>
<path d="M26 16.25C25.569 16.25 25.1557 16.0788 24.851 15.774C24.5462 15.4693 24.375 15.0559 24.375 14.625V11.375C24.375 10.944 24.5462 10.5307 24.851 10.2259C25.1557 9.92117 25.569 9.74997 26 9.74997C26.431 9.74997 26.8443 9.92117 27.149 10.2259C27.4538 10.5307 27.625 10.944 27.625 11.375V14.625C27.625 15.0559 27.4538 15.4693 27.149 15.774C26.8443 16.0788 26.431 16.25 26 16.25Z" fill="#7C54FA"/>
</g>
<defs>
<clipPath id="clip0_5302_1108">
<rect width="52" height="52" fill="white"/>
</clipPath>
</defs>
</svg>
