<svg width="52" height="52" viewBox="0 0 52 52" fill="none" xmlns="http://www.w3.org/2000/svg">
<g clip-path="url(#clip0_5038_296)">
<path d="M52 6.5V3.25C52 2.38805 51.6576 1.5614 51.0481 0.951903C50.4386 0.34241 49.612 0 48.75 0H3.25C2.38805 0 1.5614 0.34241 0.951903 0.951903C0.34241 1.5614 0 2.38805 0 3.25V6.5C0 7.36195 0.34241 8.1886 0.951903 8.7981C1.5614 9.40759 2.38805 9.75 3.25 9.75V16.25C3.25 16.681 3.4212 17.0943 3.72595 17.399C4.0307 17.7038 4.44402 17.875 4.875 17.875C5.30598 17.875 5.7193 17.7038 6.02405 17.399C6.3288 17.0943 6.5 16.681 6.5 16.25V9.75H45.5V45.5H6.5V22.75C6.5 22.319 6.3288 21.9057 6.02405 21.601C5.7193 21.2962 5.30598 21.125 4.875 21.125C4.44402 21.125 4.0307 21.2962 3.72595 21.601C3.4212 21.9057 3.25 22.319 3.25 22.75V45.5H1.625C1.19402 45.5 0.780698 45.6712 0.475951 45.976C0.171205 46.2807 0 46.694 0 47.125C0 47.556 0.171205 47.9693 0.475951 48.274C0.780698 48.5788 1.19402 48.75 1.625 48.75H24.375V50.375C24.375 50.806 24.5462 51.2193 24.851 51.524C25.1557 51.8288 25.569 52 26 52C26.431 52 26.8443 51.8288 27.149 51.524C27.4538 51.2193 27.625 50.806 27.625 50.375V48.75H50.375C50.806 48.75 51.2193 48.5788 51.524 48.274C51.8288 47.9693 52 47.556 52 47.125C52 46.694 51.8288 46.2807 51.524 45.976C51.2193 45.6712 50.806 45.5 50.375 45.5H48.75V9.75C49.612 9.75 50.4386 9.40759 51.0481 8.7981C51.6576 8.1886 52 7.36195 52 6.5ZM3.25 6.5V3.25H48.75V6.5H3.25Z" fill="#002152"/>
<path d="M22.75 42.25C19.7332 42.25 16.8399 41.0516 14.7067 38.9183C12.5734 36.7851 11.375 33.8918 11.375 30.875C11.375 27.8582 12.5734 24.9649 14.7067 22.8317C16.8399 20.6984 19.7332 19.5 22.75 19.5C23.181 19.5 23.5943 19.6712 23.899 19.976C24.2038 20.2807 24.375 20.694 24.375 21.125V29.25H32.5C32.931 29.25 33.3443 29.4212 33.649 29.726C33.9538 30.0307 34.125 30.444 34.125 30.875C34.125 33.8918 32.9266 36.7851 30.7933 38.9183C28.6601 41.0516 25.7668 42.25 22.75 42.25ZM21.125 22.9125C19.687 23.2064 18.3555 23.8844 17.2719 24.8743C16.1883 25.8642 15.3931 27.1292 14.9708 28.5349C14.5484 29.9405 14.5147 31.4343 14.8732 32.8575C15.2317 34.2808 15.969 35.5803 17.0068 36.6182C18.0447 37.656 19.3442 38.3933 20.7675 38.7518C22.1907 39.1103 23.6845 39.0766 25.0902 38.6542C26.4958 38.2319 27.7608 37.4367 28.7507 36.3531C29.7406 35.2695 30.4186 33.938 30.7125 32.5H22.75C22.319 32.5 21.9057 32.3288 21.601 32.024C21.2962 31.7193 21.125 31.306 21.125 30.875V22.9125Z" fill="#002152"/>
<path d="M39 26H29.25C28.819 26 28.4057 25.8288 28.101 25.524C27.7962 25.2193 27.625 24.806 27.625 24.375V14.625C27.625 14.194 27.7962 13.7807 28.101 13.476C28.4057 13.1712 28.819 13 29.25 13C32.2668 13 35.1601 14.1984 37.2933 16.3317C39.4266 18.4649 40.625 21.3582 40.625 24.375C40.625 24.806 40.4538 25.2193 40.149 25.524C39.8443 25.8288 39.431 26 39 26ZM30.875 22.75H37.2125C36.8941 21.1885 36.1235 19.7552 34.9966 18.6284C33.8698 17.5015 32.4365 16.7309 30.875 16.4125V22.75Z" fill="#002152"/>
</g>
<defs>
<clipPath id="clip0_5038_296">
<rect width="52" height="52" fill="white"/>
</clipPath>
</defs>
</svg>
