<svg width="9" height="6" viewBox="0 0 9 6" fill="none" xmlns="http://www.w3.org/2000/svg">
<path fill-rule="evenodd" clip-rule="evenodd" d="M0.416586 1.35335C0.419006 1.38865 0.418715 1.39763 0.424724 1.43257C0.438287 1.51115 0.468067 1.58673 0.511819 1.6534C0.533928 1.68712 0.559654 1.71655 0.587101 1.74595L4.08725 5.2461C4.11312 5.27026 4.11901 5.27699 4.14728 5.29843C4.17901 5.3225 4.21323 5.34329 4.24922 5.36041C4.40646 5.4352 4.59305 5.4352 4.7503 5.36041C4.78629 5.34329 4.8205 5.3225 4.85224 5.29843C4.88047 5.27699 4.88639 5.27026 4.91224 5.2461L8.41239 1.74595C8.43654 1.72008 8.4433 1.71416 8.46471 1.68593C8.52098 1.61178 8.55896 1.52428 8.57479 1.43257C8.58605 1.36709 8.58605 1.2998 8.57479 1.23432C8.56575 1.18196 8.54953 1.13089 8.52672 1.08291C8.44007 0.900668 8.2603 0.773788 8.05957 0.753137C7.98023 0.744999 7.89944 0.753312 7.82343 0.777434C7.7601 0.797531 7.70034 0.828478 7.64743 0.868613C7.61916 0.890051 7.61327 0.896789 7.5874 0.92094L4.49974 4.0086L1.41209 0.92094L1.38298 0.893756C1.35556 0.871442 1.34917 0.865084 1.31954 0.845658C1.264 0.809227 1.20225 0.782393 1.13773 0.766671C1.08611 0.754099 1.03279 0.748616 0.979702 0.750424C0.778005 0.757308 0.590018 0.871646 0.49111 1.04753C0.458558 1.10543 0.436011 1.16887 0.424724 1.23432C0.418715 1.26926 0.419006 1.27825 0.416586 1.31354C0.416586 1.32681 0.416586 1.34008 0.416586 1.35335Z" fill="#0E0E0E"/>
</svg>
