<svg width="215" height="75" viewBox="0 0 215 75" fill="none" xmlns="http://www.w3.org/2000/svg">
<g clip-path="url(#clip0_5402_216)">
<path d="M150.092 23.4249C156.487 29.9269 160.376 38.9194 160.767 48.1114C161.159 57.3035 158.05 66.6055 152.231 73.6455C159.004 72.0336 164.804 66.5863 167.009 59.8697C169.215 53.1542 168.297 45.5911 165.209 39.2471C162.12 32.903 156.718 26.9497 150.092 23.4238V23.4249Z" fill="white"/>
<path d="M170.826 74.967C179.493 66.3557 175.727 44.5022 169.075 36.146C190.753 51.7451 183.703 76.027 170.826 74.967Z" fill="white"/>
<path d="M214.995 54.9857C215.259 36.7255 205.376 21.5182 191.294 14.4226C200.448 16.4284 210.946 22.8771 214.783 25.6856C202.271 9.62751 181.963 -0.702484 161.842 0.037279C156.856 0.220885 148.75 1.55417 147.284 5.46221L148.432 7.52137C146.867 7.29827 139.293 7.16804 135.979 8.7383C129.308 11.9002 131.173 19.8209 135.841 22.9262C132.803 10.4281 187.894 24.6021 194.882 63.9846C198.315 57.4708 197.289 39.5564 194.215 31.9923C209.93 39.7326 214.996 54.9857 214.996 54.9857H214.995ZM159.735 7.7765C158.34 7.38474 158.254 6.47097 155.376 6.60654C158.657 4.5335 163.293 4.7043 167.368 6.47951C164.553 6.30338 162.537 8.56217 159.735 7.7765Z" fill="white"/>
</g>
<path d="M2.77663 69.668H10.8551V72.3516H0V55.793H10.7409V58.4766H2.77663V62.6836H9.96386V65.3672H2.77663V69.668Z" fill="white"/>
<path d="M24.544 55.793H27.3321V72.3516H24.4983L16.4198 60.6445V72.3516H13.6432V55.793H16.4655L24.544 67.5V55.793Z" fill="white"/>
<path d="M42.2664 55.793V58.4766H37.3988V72.3516H34.6107V58.4766H29.7202V55.793H42.2664Z" fill="white"/>
<path d="M47.4312 69.668H55.5097V72.3516H44.6545V55.793H55.3954V58.4766H47.4312V62.6836H54.6184V65.3672H47.4312V69.668Z" fill="white"/>
<path d="M67.3475 72.3516L63.1882 66.1875H61.0743V72.3516H58.2977V55.793H65.005C66.5133 55.793 67.7741 56.293 68.7872 57.293C69.808 58.293 70.3183 59.543 70.3183 61.043C70.3183 62.293 69.9489 63.3711 69.21 64.2773C68.4787 65.1836 67.5227 65.7695 66.3419 66.0352L70.6954 72.3516H67.3475ZM61.0743 58.4766V63.6914H64.9593C65.6754 63.6914 66.2696 63.4414 66.7419 62.9414C67.2218 62.4336 67.4617 61.8086 67.4617 61.0664C67.4617 60.3242 67.2218 59.707 66.7419 59.2148C66.2696 58.7227 65.6754 58.4766 64.9593 58.4766H61.0743Z" fill="white"/>
<path d="M79.8251 55.793C80.8307 55.793 81.7448 56.0273 82.5675 56.4961C83.3978 56.957 84.0491 57.6016 84.5214 58.4297C84.9937 59.2578 85.2299 60.1797 85.2299 61.1953C85.2299 62.7266 84.7119 64.0039 83.6759 65.0273C82.6399 66.0508 81.3563 66.5625 79.8251 66.5625H75.7459V72.3516H72.9693V55.793H79.8251ZM79.7794 63.8789C80.5183 63.8789 81.1354 63.625 81.6305 63.1172C82.1257 62.6016 82.3732 61.9609 82.3732 61.1953C82.3732 60.4141 82.1257 59.7656 81.6305 59.25C81.1354 58.7344 80.5183 58.4766 79.7794 58.4766H75.7459V63.8789H79.7794Z" fill="white"/>
<path d="M96.622 72.3516L92.4628 66.1875H90.3489V72.3516H87.5723V55.793H94.2796C95.7879 55.793 97.0486 56.293 98.0618 57.293C99.0825 58.293 99.5929 59.543 99.5929 61.043C99.5929 62.293 99.2234 63.3711 98.4845 64.2773C97.7532 65.1836 96.7972 65.7695 95.6165 66.0352L99.97 72.3516H96.622ZM90.3489 58.4766V63.6914H94.2339C94.95 63.6914 95.5441 63.4414 96.0164 62.9414C96.4963 62.4336 96.7363 61.8086 96.7363 61.0664C96.7363 60.3242 96.4963 59.707 96.0164 59.2148C95.5441 58.7227 94.95 58.4766 94.2339 58.4766H90.3489Z" fill="white"/>
<path d="M102.244 72.3516V55.793H105.02V72.3516H102.244Z" fill="white"/>
<path d="M113.956 72.6445C112.737 72.6445 111.537 72.4102 110.357 71.9414C109.176 71.4648 108.189 70.832 107.397 70.043L108.848 67.8633C109.496 68.5273 110.273 69.0625 111.179 69.4688C112.093 69.8672 113.019 70.0664 113.956 70.0664C114.893 70.0664 115.681 69.8594 116.321 69.4453C116.961 69.0312 117.281 68.4961 117.281 67.8398C117.281 67.582 117.228 67.3438 117.121 67.125C117.014 66.8984 116.854 66.7031 116.641 66.5391C116.428 66.375 116.215 66.2344 116.001 66.1172C115.788 65.9922 115.51 65.8789 115.167 65.7773C114.832 65.668 114.554 65.5859 114.333 65.5312C114.12 65.4688 113.838 65.3984 113.487 65.3203C112.71 65.1328 112.006 64.9062 111.374 64.6406C110.741 64.3672 110.159 64.0312 109.625 63.6328C109.092 63.2344 108.677 62.75 108.38 62.1797C108.083 61.6016 107.934 60.9609 107.934 60.2578C107.934 58.8359 108.49 57.6875 109.602 56.8125C110.715 55.9375 112.158 55.5 113.933 55.5C115.068 55.5 116.112 55.6875 117.064 56.0625C118.016 56.4375 118.797 56.9375 119.406 57.5625L118.092 59.7305C117.635 59.2461 117.022 58.8477 116.253 58.5352C115.491 58.2227 114.702 58.0664 113.887 58.0664C112.988 58.0664 112.25 58.2617 111.671 58.6523C111.099 59.043 110.814 59.5469 110.814 60.1641C110.814 61.2969 111.968 62.1016 114.276 62.5781C114.565 62.6406 114.836 62.707 115.087 62.7773C115.339 62.8477 115.674 62.957 116.093 63.1055C116.512 63.2539 116.889 63.4141 117.224 63.5859C117.559 63.7578 117.913 63.9844 118.287 64.2656C118.667 64.5391 118.984 64.8359 119.235 65.1562C119.494 65.4688 119.707 65.8477 119.875 66.293C120.042 66.7383 120.126 67.2148 120.126 67.7227C120.126 69.168 119.54 70.3516 118.367 71.2734C117.193 72.1875 115.723 72.6445 113.956 72.6445Z" fill="white"/>
<path d="M125.268 69.668H133.347V72.3516H122.491V55.793H133.232V58.4766H125.268V62.6836H132.455V65.3672H125.268V69.668Z" fill="white"/>
<path d="M141.608 72.6445C140.389 72.6445 139.189 72.4102 138.009 71.9414C136.828 71.4648 135.841 70.832 135.049 70.043L136.5 67.8633C137.148 68.5273 137.925 69.0625 138.831 69.4688C139.745 69.8672 140.671 70.0664 141.608 70.0664C142.545 70.0664 143.333 69.8594 143.973 69.4453C144.613 69.0312 144.933 68.4961 144.933 67.8398C144.933 67.582 144.88 67.3438 144.773 67.125C144.666 66.8984 144.506 66.7031 144.293 66.5391C144.08 66.375 143.867 66.2344 143.653 66.1172C143.44 65.9922 143.162 65.8789 142.819 65.7773C142.484 65.668 142.206 65.5859 141.985 65.5312C141.772 65.4688 141.49 65.3984 141.139 65.3203C140.362 65.1328 139.658 64.9062 139.026 64.6406C138.393 64.3672 137.811 64.0312 137.277 63.6328C136.744 63.2344 136.329 62.75 136.032 62.1797C135.735 61.6016 135.586 60.9609 135.586 60.2578C135.586 58.8359 136.142 57.6875 137.254 56.8125C138.367 55.9375 139.81 55.5 141.585 55.5C142.72 55.5 143.764 55.6875 144.716 56.0625C145.668 56.4375 146.449 56.9375 147.058 57.5625L145.744 59.7305C145.287 59.2461 144.674 58.8477 143.905 58.5352C143.143 58.2227 142.354 58.0664 141.539 58.0664C140.64 58.0664 139.902 58.2617 139.323 58.6523C138.751 59.043 138.466 59.5469 138.466 60.1641C138.466 61.2969 139.62 62.1016 141.928 62.5781C142.217 62.6406 142.488 62.707 142.739 62.7773C142.991 62.8477 143.326 62.957 143.745 63.1055C144.164 63.2539 144.541 63.4141 144.876 63.5859C145.211 63.7578 145.565 63.9844 145.939 64.2656C146.319 64.5391 146.636 64.8359 146.887 65.1562C147.146 65.4688 147.359 65.8477 147.527 66.293C147.694 66.7383 147.778 67.2148 147.778 67.7227C147.778 69.168 147.192 70.3516 146.019 71.2734C144.845 72.1875 143.375 72.6445 141.608 72.6445Z" fill="white"/>
<path d="M22.8252 17.0383H26.8694L15.3483 47.4617H11.4816L0 17.0383H4.12313L13.4939 42.2081L22.8252 17.0383Z" fill="white"/>
<path d="M30.9925 47.4617V17.0383H34.7014V47.4617H30.9925Z" fill="white"/>
<path d="M57.3687 47.4617L49.0435 35.3828H44.9599V47.4617H41.251V17.0383H52.5551C55.0277 17.0383 57.0925 17.9211 58.7497 19.6866C60.42 21.4522 61.2551 23.6555 61.2551 26.2967C61.2551 28.7512 60.5054 30.8325 59.0061 32.5407C57.52 34.2344 55.6392 35.1675 53.3639 35.3397L61.8469 47.4617H57.3687ZM44.9599 20.8278V31.8517H52.4762C53.8966 31.8517 55.0803 31.3278 56.0272 30.2799C56.9741 29.2321 57.4476 27.9187 57.4476 26.3397C57.4476 24.7608 56.9741 23.4474 56.0272 22.3995C55.0803 21.3517 53.8966 20.8278 52.4762 20.8278H44.9599Z" fill="white"/>
<path d="M84.8299 17.0383V20.8278H75.8932V47.4617H72.2238V20.8278H63.2871V17.0383H84.8299Z" fill="white"/>
<path d="M89.3082 47.4617V17.0383H93.017V47.4617H89.3082Z" fill="white"/>
<path d="M112.646 48C110.595 48 108.668 47.5981 106.866 46.7943C105.064 45.9761 103.519 44.8708 102.23 43.4785C100.941 42.0861 99.9218 40.4211 99.1721 38.4833C98.4356 36.5311 98.0673 34.4498 98.0673 32.2392C98.0673 29.2967 98.6986 26.6268 99.9612 24.2297C101.224 21.8182 102.966 19.9306 105.189 18.567C107.425 17.189 109.911 16.5 112.646 16.5C115.382 16.5 117.861 17.189 120.084 18.567C122.319 19.9306 124.069 21.8182 125.331 24.2297C126.607 26.6268 127.245 29.2967 127.245 32.2392C127.245 35.1818 126.607 37.8589 125.331 40.2703C124.069 42.6818 122.319 44.5766 120.084 45.9545C117.861 47.3182 115.382 48 112.646 48ZM107.142 42.5526C108.799 43.5861 110.634 44.1029 112.646 44.1029C114.659 44.1029 116.487 43.5861 118.131 42.5526C119.788 41.5191 121.083 40.0981 122.017 38.2895C122.964 36.4665 123.437 34.4498 123.437 32.2392C123.437 30.0287 122.964 28.0191 122.017 26.2105C121.083 24.3876 119.788 22.9665 118.131 21.9474C116.487 20.9139 114.659 20.3971 112.646 20.3971C111.134 20.3971 109.707 20.6986 108.365 21.3014C107.037 21.9043 105.899 22.7297 104.952 23.7775C104.005 24.8254 103.256 26.0813 102.703 27.5455C102.151 29.0096 101.875 30.5742 101.875 32.2392C101.875 34.4498 102.342 36.4665 103.276 38.2895C104.209 40.0981 105.498 41.5191 107.142 42.5526Z" fill="white"/>
<defs>
<clipPath id="clip0_5402_216">
<rect width="83.3673" height="75" fill="white" transform="translate(131.633)"/>
</clipPath>
</defs>
</svg>
