<svg width="52" height="52" viewBox="0 0 52 52" fill="none" xmlns="http://www.w3.org/2000/svg">
<g clip-path="url(#clip0_5038_263)">
<path d="M50.5213 43.3387L41.2913 34.125C40.6823 33.5197 39.8586 33.1799 39 33.1799C38.1414 33.1799 37.3177 33.5197 36.7088 34.125L36.5625 34.2713L34.3688 32.0775C37.036 28.9215 38.6318 24.9997 38.9258 20.878C39.2198 16.7563 38.1969 12.6478 36.0047 9.14507C33.8124 5.64238 30.5641 2.92664 26.7284 1.38964C22.8927 -0.147359 18.668 -0.426156 14.6636 0.59347C10.6592 1.6131 7.08217 3.87843 4.44863 7.06266C1.81509 10.2469 0.261153 14.1854 0.0109972 18.31C-0.239159 22.4346 0.827398 26.532 3.0568 30.0112C5.2862 33.4904 8.56319 36.1714 12.415 37.6675C12.6169 37.7634 12.8365 37.8167 13.0599 37.8239C13.2833 37.8311 13.5059 37.7922 13.7136 37.7095C13.9213 37.6268 14.1096 37.5021 14.267 37.3433C14.4243 37.1844 14.5471 36.9948 14.6278 36.7864C14.7085 36.5779 14.7453 36.355 14.736 36.1316C14.7266 35.9083 14.6713 35.6893 14.5734 35.4883C14.4755 35.2873 14.3372 35.1087 14.1671 34.9636C13.9971 34.8185 13.7989 34.71 13.585 34.645C9.81209 33.1777 6.72271 30.3549 4.92172 26.7294C3.12073 23.1039 2.73783 18.9367 3.848 15.0437C4.95817 11.1507 7.48145 7.81221 10.9238 5.68193C14.3662 3.55166 18.4797 2.78297 22.4591 3.52636C26.4385 4.26976 29.9971 6.47171 32.4382 9.7011C34.8793 12.9305 36.0271 16.9548 35.6569 20.986C35.2867 25.0172 33.4252 28.7652 30.4368 31.496C27.4483 34.2268 23.5482 35.7438 19.5 35.75C19.069 35.75 18.6557 35.9212 18.351 36.2259C18.0462 36.5307 17.875 36.944 17.875 37.375C17.875 37.806 18.0462 38.2193 18.351 38.524C18.6557 38.8288 19.069 39 19.5 39C24.1108 39.0064 28.5719 37.3638 32.0775 34.3687L34.2713 36.5625L34.125 36.7088C33.5197 37.3177 33.1799 38.1414 33.1799 39C33.1799 39.8586 33.5197 40.6823 34.125 41.2912L43.3388 50.5213C44.3074 51.3903 45.5722 51.855 46.8731 51.8197C48.1739 51.7845 49.4117 51.252 50.3319 50.3319C51.252 49.4117 51.7845 48.1739 51.8197 46.873C51.855 45.5722 51.3903 44.3074 50.5213 43.3387ZM46.93 48.75C46.6911 48.751 46.4543 48.704 46.2338 48.6119C46.0133 48.5198 45.8135 48.3844 45.6463 48.2137L36.4163 39L39 36.4162L48.2138 45.6463C48.467 45.9008 48.6393 46.2245 48.709 46.5767C48.7787 46.9289 48.7427 47.2938 48.6055 47.6256C48.4683 47.9574 48.236 48.2412 47.9378 48.4413C47.6397 48.6413 47.2891 48.7487 46.93 48.75Z" fill="#002152"/>
<path d="M19.5 17.875C19.069 17.875 18.6557 17.7038 18.351 17.399C18.0462 17.0943 17.875 16.681 17.875 16.25C17.875 15.819 18.0462 15.4057 18.351 15.101C18.6557 14.7962 19.069 14.625 19.5 14.625H22.75C23.181 14.625 23.5943 14.4538 23.8991 14.149C24.2038 13.8443 24.375 13.431 24.375 13C24.375 12.569 24.2038 12.1557 23.8991 11.851C23.5943 11.5462 23.181 11.375 22.75 11.375H21.125C21.125 10.944 20.9538 10.5307 20.6491 10.226C20.3443 9.92121 19.931 9.75 19.5 9.75C19.069 9.75 18.6557 9.92121 18.351 10.226C18.0462 10.5307 17.875 10.944 17.875 11.375V11.6675C16.8003 12.0575 15.8968 12.8128 15.3225 13.8013C14.7482 14.7899 14.5396 15.9489 14.7332 17.0757C14.9268 18.2025 15.5103 19.2253 16.3817 19.9655C17.253 20.7057 18.3568 21.1161 19.5 21.125C19.931 21.125 20.3443 21.2962 20.6491 21.601C20.9538 21.9057 21.125 22.319 21.125 22.75C21.125 23.181 20.9538 23.5943 20.6491 23.899C20.3443 24.2038 19.931 24.375 19.5 24.375H16.25C15.819 24.375 15.4057 24.5462 15.101 24.851C14.7962 25.1557 14.625 25.569 14.625 26C14.625 26.431 14.7962 26.8443 15.101 27.149C15.4057 27.4538 15.819 27.625 16.25 27.625H17.875C17.875 28.056 18.0462 28.4693 18.351 28.774C18.6557 29.0788 19.069 29.25 19.5 29.25C19.931 29.25 20.3443 29.0788 20.6491 28.774C20.9538 28.4693 21.125 28.056 21.125 27.625V27.3325C22.1997 26.9425 23.1032 26.1872 23.6775 25.1987C24.2518 24.2101 24.4604 23.0511 24.2668 21.9243C24.0732 20.7975 23.4897 19.7747 22.6184 19.0345C21.747 18.2943 20.6433 17.8839 19.5 17.875Z" fill="#002152"/>
</g>
<defs>
<clipPath id="clip0_5038_263">
<rect width="52" height="52" fill="white"/>
</clipPath>
</defs>
</svg>
