<svg width="52" height="52" viewBox="0 0 52 52" fill="none" xmlns="http://www.w3.org/2000/svg">
<g clip-path="url(#clip0_5038_288)">
<path d="M16.25 40.0887C17.0969 39.1569 17.655 37.9992 17.8564 36.7562C18.0577 35.5132 17.8937 34.2385 17.3842 33.0869C16.8748 31.9354 16.0418 30.9566 14.9865 30.2696C13.9313 29.5826 12.6992 29.2168 11.44 29.2168C10.1808 29.2168 8.94871 29.5826 7.89346 30.2696C6.83821 30.9566 6.00524 31.9354 5.49577 33.0869C4.98631 34.2385 4.82229 35.5132 5.02364 36.7562C5.22499 37.9992 5.78305 39.1569 6.63 40.0887C4.65948 40.9932 2.98848 42.4419 1.81384 44.2643C0.639214 46.0867 0.00988678 48.2069 0 50.375C0 50.806 0.171205 51.2193 0.475951 51.524C0.780698 51.8288 1.19402 52 1.625 52H21.125C21.556 52 21.9693 51.8288 22.274 51.524C22.5788 51.2193 22.75 50.806 22.75 50.375C22.7517 48.2209 22.1417 46.1107 20.991 44.2897C19.8403 42.4687 18.1962 41.0119 16.25 40.0887ZM8.125 35.75C8.125 35.1072 8.31561 34.4789 8.67272 33.9444C9.02984 33.4099 9.53742 32.9934 10.1313 32.7474C10.7251 32.5014 11.3786 32.437 12.009 32.5624C12.6395 32.6878 13.2186 32.9974 13.6731 33.4519C14.1276 33.9064 14.4371 34.4855 14.5626 35.116C14.688 35.7464 14.6236 36.3999 14.3776 36.9937C14.1316 37.5876 13.7151 38.0952 13.1806 38.4523C12.6461 38.8094 12.0178 39 11.375 39C10.513 39 9.6864 38.6576 9.0769 38.0481C8.46741 37.4386 8.125 36.612 8.125 35.75ZM3.4125 48.75C3.78546 46.9133 4.78193 45.262 6.23308 44.0759C7.68422 42.8898 9.5008 42.2419 11.375 42.2419C13.2492 42.2419 15.0658 42.8898 16.5169 44.0759C17.9681 45.262 18.9645 46.9133 19.3375 48.75H3.4125Z" fill="#002152"/>
<path d="M45.5 40.0887C46.3469 39.1569 46.905 37.9992 47.1064 36.7562C47.3077 35.5132 47.1437 34.2385 46.6342 33.0869C46.1248 31.9354 45.2918 30.9566 44.2365 30.2696C43.1813 29.5826 41.9492 29.2168 40.69 29.2168C39.4308 29.2168 38.1987 29.5826 37.1435 30.2696C36.0882 30.9566 35.2552 31.9354 34.7458 33.0869C34.2363 34.2385 34.0723 35.5132 34.2736 36.7562C34.475 37.9992 35.0331 39.1569 35.88 40.0887C33.9095 40.9932 32.2385 42.4419 31.0638 44.2643C29.8892 46.0867 29.2599 48.2069 29.25 50.375C29.25 50.806 29.4212 51.2193 29.726 51.524C30.0307 51.8288 30.444 52 30.875 52H50.375C50.806 52 51.2193 51.8288 51.524 51.524C51.8288 51.2193 52 50.806 52 50.375C52.0017 48.2209 51.3917 46.1107 50.241 44.2897C49.0903 42.4687 47.4462 41.0119 45.5 40.0887ZM37.375 35.75C37.375 35.1072 37.5656 34.4789 37.9227 33.9444C38.2798 33.4099 38.7874 32.9934 39.3813 32.7474C39.9751 32.5014 40.6286 32.437 41.259 32.5624C41.8895 32.6878 42.4686 32.9974 42.9231 33.4519C43.3776 33.9064 43.6871 34.4855 43.8126 35.116C43.938 35.7464 43.8736 36.3999 43.6276 36.9937C43.3816 37.5876 42.9651 38.0952 42.4306 38.4523C41.8961 38.8094 41.2678 39 40.625 39C39.763 39 38.9364 38.6576 38.3269 38.0481C37.7174 37.4386 37.375 36.612 37.375 35.75ZM32.6625 48.75C33.0355 46.9133 34.0319 45.262 35.4831 44.0759C36.9342 42.8898 38.7508 42.2419 40.625 42.2419C42.4992 42.2419 44.3158 42.8898 45.7669 44.0759C47.2181 45.262 48.2145 46.9133 48.5875 48.75H32.6625Z" fill="#002152"/>
<path d="M11.375 22.75H13V24.375C13.0015 24.6676 13.082 24.9544 13.233 25.2051C13.384 25.4558 13.5999 25.661 13.8579 25.7992C14.1159 25.9373 14.4064 26.0032 14.6987 25.9899C14.991 25.9767 15.2744 25.8847 15.5188 25.7237L19.9875 22.75H32.0125C36.79 26 36.7087 26 37.375 26C37.806 26 38.2193 25.8288 38.524 25.524C38.8288 25.2193 39 24.806 39 24.375V22.75H40.625C41.9179 22.75 43.1579 22.2364 44.0721 21.3221C44.9864 20.4079 45.5 19.1679 45.5 17.875V13C45.5 12.569 45.3288 12.1557 45.024 11.851C44.7193 11.5462 44.306 11.375 43.875 11.375C43.444 11.375 43.0307 11.5462 42.726 11.851C42.4212 12.1557 42.25 12.569 42.25 13V17.875C42.25 18.306 42.0788 18.7193 41.774 19.024C41.4693 19.3288 41.056 19.5 40.625 19.5H37.375C36.944 19.5 36.5307 19.6712 36.226 19.976C35.9212 20.2807 35.75 20.694 35.75 21.125V21.3363L33.3937 19.7113C32.8087 19.3213 33.54 19.435 19.5 19.435C18.85 19.435 18.7362 19.6138 16.25 21.2712C16.2704 21.0459 16.2434 20.8187 16.1709 20.6044C16.0985 20.39 15.982 20.1932 15.829 20.0264C15.676 19.8597 15.4899 19.7267 15.2826 19.6361C15.0753 19.5454 14.8513 19.4991 14.625 19.5H11.375C10.944 19.5 10.5307 19.3288 10.226 19.024C9.92121 18.7193 9.75 18.306 9.75 17.875V4.875C9.75 4.44402 9.92121 4.0307 10.226 3.72595C10.5307 3.4212 10.944 3.25 11.375 3.25H40.625C41.056 3.25 41.4693 3.4212 41.774 3.72595C42.0788 4.0307 42.25 4.44402 42.25 4.875V6.5C42.25 6.93098 42.4212 7.3443 42.726 7.64905C43.0307 7.95379 43.444 8.125 43.875 8.125C44.306 8.125 44.7193 7.95379 45.024 7.64905C45.3288 7.3443 45.5 6.93098 45.5 6.5V4.875C45.5 3.58207 44.9864 2.34209 44.0721 1.42785C43.1579 0.513615 41.9179 0 40.625 0H11.375C10.0821 0 8.84209 0.513615 7.92785 1.42785C7.01361 2.34209 6.5 3.58207 6.5 4.875V17.875C6.5 19.1679 7.01361 20.4079 7.92785 21.3221C8.84209 22.2364 10.0821 22.75 11.375 22.75Z" fill="#002152"/>
<path d="M26 9.75H14.625C14.194 9.75 13.7807 9.57879 13.476 9.27405C13.1712 8.9693 13 8.55598 13 8.125C13 7.69402 13.1712 7.2807 13.476 6.97595C13.7807 6.67121 14.194 6.5 14.625 6.5H26C26.431 6.5 26.8443 6.67121 27.149 6.97595C27.4538 7.2807 27.625 7.69402 27.625 8.125C27.625 8.55598 27.4538 8.9693 27.149 9.27405C26.8443 9.57879 26.431 9.75 26 9.75Z" fill="#002152"/>
<path d="M37.375 9.75H32.5C32.069 9.75 31.6557 9.57879 31.351 9.27405C31.0462 8.9693 30.875 8.55598 30.875 8.125C30.875 7.69402 31.0462 7.2807 31.351 6.97595C31.6557 6.67121 32.069 6.5 32.5 6.5H37.375C37.806 6.5 38.2193 6.67121 38.524 6.97595C38.8288 7.2807 39 7.69402 39 8.125C39 8.55598 38.8288 8.9693 38.524 9.27405C38.2193 9.57879 37.806 9.75 37.375 9.75Z" fill="#002152"/>
<path d="M37.375 16.25H26C25.569 16.25 25.1557 16.0788 24.851 15.774C24.5462 15.4693 24.375 15.056 24.375 14.625C24.375 14.194 24.5462 13.7807 24.851 13.476C25.1557 13.1712 25.569 13 26 13H37.375C37.806 13 38.2193 13.1712 38.524 13.476C38.8288 13.7807 39 14.194 39 14.625C39 15.056 38.8288 15.4693 38.524 15.774C38.2193 16.0788 37.806 16.25 37.375 16.25Z" fill="#002152"/>
<path d="M19.5 16.25H14.625C14.194 16.25 13.7807 16.0788 13.476 15.774C13.1712 15.4693 13 15.056 13 14.625C13 14.194 13.1712 13.7807 13.476 13.476C13.7807 13.1712 14.194 13 14.625 13H19.5C19.931 13 20.3443 13.1712 20.649 13.476C20.9538 13.7807 21.125 14.194 21.125 14.625C21.125 15.056 20.9538 15.4693 20.649 15.774C20.3443 16.0788 19.931 16.25 19.5 16.25Z" fill="#002152"/>
</g>
<defs>
<clipPath id="clip0_5038_288">
<rect width="52" height="52" fill="white"/>
</clipPath>
</defs>
</svg>
