<svg width="52" height="52" viewBox="0 0 52 52" fill="none" xmlns="http://www.w3.org/2000/svg">
<g clip-path="url(#clip0_5038_265)">
<path d="M50.3752 43.875C50.8062 43.875 51.2195 43.7038 51.5243 43.399C51.829 43.0943 52.0002 42.681 52.0002 42.25V6.5C52.0002 4.77609 51.3154 3.12279 50.0964 1.90381C48.8774 0.68482 47.2241 0 45.5002 0H6.50022C4.77631 0 3.12301 0.68482 1.90403 1.90381C0.685041 3.12279 0.000221676 4.77609 0.000221676 6.5V27.625C-0.00647297 27.8738 0.0440857 28.1209 0.147997 28.3471C0.251908 28.5733 0.406394 28.7726 0.599535 28.9296C0.792676 29.0866 1.01931 29.1972 1.26195 29.2527C1.50459 29.3083 1.75675 29.3073 1.99897 29.25C2.43772 29.1362 2.09647 29.25 6.50022 26.3737L9.75022 28.5513V50.375C9.75106 50.652 9.82269 50.9242 9.95832 51.1657C10.094 51.4073 10.2891 51.6101 10.5252 51.755C10.7612 51.8999 11.0304 51.9821 11.3072 51.9937C11.584 52.0053 11.8591 51.9459 12.1065 51.8213L17.8752 48.945L23.644 51.8213C23.8708 51.9355 24.1212 51.9951 24.3752 51.9951C24.6292 51.9951 24.8797 51.9355 25.1065 51.8213L30.8752 48.945L36.644 51.8213C36.8708 51.9355 37.1212 51.9951 37.3752 51.9951C37.6292 51.9951 37.8797 51.9355 38.1065 51.8213L43.8752 48.945L49.644 51.8213C49.8354 51.9365 50.0486 52.0109 50.2702 52.04C50.4917 52.0691 50.7169 52.0522 50.9316 51.9904C51.1464 51.9285 51.346 51.823 51.5181 51.6805C51.6903 51.538 51.8311 51.3615 51.932 51.1621C52.0328 50.9627 52.0914 50.7446 52.1041 50.5215C52.1169 50.2984 52.0835 50.0751 52.006 49.8655C51.9285 49.6559 51.8087 49.4645 51.6539 49.3034C51.4991 49.1422 51.3128 49.0147 51.1065 48.9287L44.6065 45.6787C44.3797 45.5645 44.1292 45.5049 43.8752 45.5049C43.6212 45.5049 43.3708 45.5645 43.144 45.6787L37.3752 48.555L31.6065 45.6787C31.3797 45.5645 31.1292 45.5049 30.8752 45.5049C30.6212 45.5049 30.3708 45.5645 30.144 45.6787L24.3752 48.555L18.6065 45.6787C18.3797 45.5645 18.1292 45.5049 17.8752 45.5049C17.6212 45.5049 17.3708 45.5645 17.144 45.6787L13.0002 47.7425V6.5C12.9954 5.35444 12.681 4.23149 12.0902 3.25H45.5002C46.3622 3.25 47.1888 3.59241 47.7983 4.2019C48.4078 4.8114 48.7502 5.63805 48.7502 6.5V42.25C48.7502 42.681 48.9214 43.0943 49.2262 43.399C49.5309 43.7038 49.9442 43.875 50.3752 43.875ZM9.75022 6.5V24.5863L7.39397 22.9613C7.12864 22.7865 6.81792 22.6934 6.50022 22.6934C6.18253 22.6934 5.8718 22.7865 5.60647 22.9613L3.25022 24.5863V6.5C3.25022 5.63805 3.59263 4.8114 4.20212 4.2019C4.81162 3.59241 5.63827 3.25 6.50022 3.25C7.36217 3.25 8.18883 3.59241 8.79832 4.2019C9.40781 4.8114 9.75022 5.63805 9.75022 6.5Z" fill="#002152"/>
<path d="M30.875 14.625C30.444 14.625 30.0307 14.4538 29.7259 14.149C29.4212 13.8443 29.25 13.431 29.25 13C29.25 12.569 29.4212 12.1557 29.7259 11.851C30.0307 11.5462 30.444 11.375 30.875 11.375H34.125C34.556 11.375 34.9693 11.2038 35.274 10.899C35.5788 10.5943 35.75 10.181 35.75 9.75C35.75 9.31902 35.5788 8.9057 35.274 8.60095C34.9693 8.29621 34.556 8.125 34.125 8.125H32.5C32.5 7.69402 32.3288 7.2807 32.024 6.97595C31.7193 6.67121 31.306 6.5 30.875 6.5C30.444 6.5 30.0307 6.67121 29.7259 6.97595C29.4212 7.2807 29.25 7.69402 29.25 8.125V8.4175C28.1753 8.80747 27.2718 9.56276 26.6975 10.5513C26.1232 11.5399 25.9146 12.6989 26.1082 13.8257C26.3018 14.9525 26.8853 15.9753 27.7566 16.7155C28.628 17.4557 29.7317 17.8661 30.875 17.875C31.306 17.875 31.7193 18.0462 32.024 18.351C32.3288 18.6557 32.5 19.069 32.5 19.5C32.5 19.931 32.3288 20.3443 32.024 20.649C31.7193 20.9538 31.306 21.125 30.875 21.125H27.625C27.194 21.125 26.7807 21.2962 26.4759 21.601C26.1712 21.9057 26 22.319 26 22.75C26 23.181 26.1712 23.5943 26.4759 23.899C26.7807 24.2038 27.194 24.375 27.625 24.375H29.25C29.25 24.806 29.4212 25.2193 29.7259 25.524C30.0307 25.8288 30.444 26 30.875 26C31.306 26 31.7193 25.8288 32.024 25.524C32.3288 25.2193 32.5 24.806 32.5 24.375V24.0825C33.5747 23.6925 34.4782 22.9372 35.0525 21.9487C35.6268 20.9601 35.8354 19.8011 35.6418 18.6743C35.4482 17.5475 34.8647 16.5247 33.9934 15.7845C33.122 15.0443 32.0182 14.6339 30.875 14.625Z" fill="#002152"/>
<path d="M42.25 32.5H19.5C19.069 32.5 18.6557 32.3288 18.3509 32.024C18.0462 31.7193 17.875 31.306 17.875 30.875C17.875 30.444 18.0462 30.0307 18.3509 29.726C18.6557 29.4212 19.069 29.25 19.5 29.25H42.25C42.681 29.25 43.0943 29.4212 43.399 29.726C43.7038 30.0307 43.875 30.444 43.875 30.875C43.875 31.306 43.7038 31.7193 43.399 32.024C43.0943 32.3288 42.681 32.5 42.25 32.5Z" fill="#002152"/>
<path d="M39 39H22.75C22.319 39 21.9057 38.8288 21.6009 38.524C21.2962 38.2193 21.125 37.806 21.125 37.375C21.125 36.944 21.2962 36.5307 21.6009 36.226C21.9057 35.9212 22.319 35.75 22.75 35.75H39C39.431 35.75 39.8443 35.9212 40.149 36.226C40.4538 36.5307 40.625 36.944 40.625 37.375C40.625 37.806 40.4538 38.2193 40.149 38.524C39.8443 38.8288 39.431 39 39 39Z" fill="#002152"/>
</g>
<defs>
<clipPath id="clip0_5038_265">
<rect width="52" height="52" fill="white"/>
</clipPath>
</defs>
</svg>
