<svg width="52" height="52" viewBox="0 0 52 52" fill="none" xmlns="http://www.w3.org/2000/svg">
<g clip-path="url(#clip0_5302_1208)">
<path d="M50.3751 43.875C50.8061 43.875 51.2194 43.7038 51.5241 43.399C51.8289 43.0943 52.0001 42.681 52.0001 42.25V6.5C52.0001 4.77609 51.3153 3.12279 50.0963 1.90381C48.8773 0.68482 47.224 0 45.5001 0H6.5001C4.77619 0 3.12289 0.68482 1.90391 1.90381C0.684919 3.12279 9.96056e-05 4.77609 9.96056e-05 6.5V27.625C-0.00659504 27.8738 0.0439637 28.1209 0.147875 28.3471C0.251786 28.5733 0.406272 28.7726 0.599413 28.9296C0.792554 29.0866 1.01919 29.1972 1.26183 29.2527C1.50447 29.3083 1.75663 29.3073 1.99885 29.25C2.4376 29.1362 2.09635 29.25 6.5001 26.3737L9.7501 28.5513V50.375C9.75094 50.652 9.82257 50.9242 9.9582 51.1657C10.0938 51.4073 10.289 51.6101 10.525 51.755C10.7611 51.8999 11.0303 51.9821 11.3071 51.9937C11.5838 52.0053 11.859 51.9459 12.1063 51.8213L17.8751 48.945L23.6438 51.8213C23.8707 51.9355 24.1211 51.9951 24.3751 51.9951C24.6291 51.9951 24.8795 51.9355 25.1063 51.8213L30.8751 48.945L36.6438 51.8213C36.8707 51.9355 37.1211 51.9951 37.3751 51.9951C37.6291 51.9951 37.8795 51.9355 38.1063 51.8213L43.8751 48.945L49.6438 51.8213C49.8353 51.9365 50.0485 52.0109 50.27 52.04C50.4916 52.0691 50.7168 52.0522 50.9315 51.9904C51.1462 51.9285 51.3459 51.823 51.518 51.6805C51.6901 51.538 51.831 51.3615 51.9318 51.1621C52.0327 50.9627 52.0913 50.7446 52.104 50.5215C52.1168 50.2984 52.0834 50.0751 52.0059 49.8655C51.9284 49.6559 51.8085 49.4645 51.6538 49.3034C51.499 49.1422 51.3126 49.0147 51.1063 48.9287L44.6063 45.6787C44.3795 45.5645 44.1291 45.5049 43.8751 45.5049C43.6211 45.5049 43.3707 45.5645 43.1438 45.6787L37.3751 48.555L31.6063 45.6787C31.3795 45.5645 31.1291 45.5049 30.8751 45.5049C30.6211 45.5049 30.3707 45.5645 30.1438 45.6787L24.3751 48.555L18.6063 45.6787C18.3795 45.5645 18.1291 45.5049 17.8751 45.5049C17.6211 45.5049 17.3707 45.5645 17.1438 45.6787L13.0001 47.7425V6.5C12.9953 5.35444 12.6809 4.23149 12.0901 3.25H45.5001C46.362 3.25 47.1887 3.59241 47.7982 4.2019C48.4077 4.8114 48.7501 5.63805 48.7501 6.5V42.25C48.7501 42.681 48.9213 43.0943 49.226 43.399C49.5308 43.7038 49.9441 43.875 50.3751 43.875ZM9.7501 6.5V24.5863L7.39385 22.9613C7.12852 22.7865 6.81779 22.6934 6.5001 22.6934C6.1824 22.6934 5.87168 22.7865 5.60635 22.9613L3.2501 24.5863V6.5C3.2501 5.63805 3.59251 4.8114 4.202 4.2019C4.8115 3.59241 5.63815 3.25 6.5001 3.25C7.36205 3.25 8.1887 3.59241 8.7982 4.2019C9.40769 4.8114 9.7501 5.63805 9.7501 6.5Z" fill="#7C54FA"/>
<path d="M30.8749 14.625C30.4439 14.625 30.0306 14.4538 29.7258 14.149C29.4211 13.8443 29.2499 13.431 29.2499 13C29.2499 12.569 29.4211 12.1557 29.7258 11.851C30.0306 11.5462 30.4439 11.375 30.8749 11.375H34.1249C34.5559 11.375 34.9692 11.2038 35.2739 10.899C35.5787 10.5943 35.7499 10.181 35.7499 9.75C35.7499 9.31902 35.5787 8.9057 35.2739 8.60095C34.9692 8.29621 34.5559 8.125 34.1249 8.125H32.4999C32.4999 7.69402 32.3287 7.2807 32.0239 6.97595C31.7192 6.67121 31.3059 6.5 30.8749 6.5C30.4439 6.5 30.0306 6.67121 29.7258 6.97595C29.4211 7.2807 29.2499 7.69402 29.2499 8.125V8.4175C28.1751 8.80747 27.2717 9.56276 26.6974 10.5513C26.1231 11.5399 25.9145 12.6989 26.1081 13.8257C26.3017 14.9525 26.8852 15.9753 27.7565 16.7155C28.6278 17.4557 29.7316 17.8661 30.8749 17.875C31.3059 17.875 31.7192 18.0462 32.0239 18.351C32.3287 18.6557 32.4999 19.069 32.4999 19.5C32.4999 19.931 32.3287 20.3443 32.0239 20.649C31.7192 20.9538 31.3059 21.125 30.8749 21.125H27.6249C27.1939 21.125 26.7806 21.2962 26.4758 21.601C26.1711 21.9057 25.9999 22.319 25.9999 22.75C25.9999 23.181 26.1711 23.5943 26.4758 23.899C26.7806 24.2038 27.1939 24.375 27.6249 24.375H29.2499C29.2499 24.806 29.4211 25.2193 29.7258 25.524C30.0306 25.8288 30.4439 26 30.8749 26C31.3059 26 31.7192 25.8288 32.0239 25.524C32.3287 25.2193 32.4999 24.806 32.4999 24.375V24.0825C33.5746 23.6925 34.4781 22.9372 35.0524 21.9487C35.6267 20.9601 35.8353 19.8011 35.6416 18.6743C35.448 17.5475 34.8646 16.5247 33.9932 15.7845C33.1219 15.0443 32.0181 14.6339 30.8749 14.625Z" fill="#7C54FA"/>
<path d="M42.2499 32.5H19.4999C19.0689 32.5 18.6556 32.3288 18.3508 32.024C18.0461 31.7193 17.8749 31.306 17.8749 30.875C17.8749 30.444 18.0461 30.0307 18.3508 29.726C18.6556 29.4212 19.0689 29.25 19.4999 29.25H42.2499C42.6808 29.25 43.0942 29.4212 43.3989 29.726C43.7037 30.0307 43.8749 30.444 43.8749 30.875C43.8749 31.306 43.7037 31.7193 43.3989 32.024C43.0942 32.3288 42.6808 32.5 42.2499 32.5Z" fill="#7C54FA"/>
<path d="M38.9999 39H22.7499C22.3189 39 21.9056 38.8288 21.6008 38.524C21.2961 38.2193 21.1249 37.806 21.1249 37.375C21.1249 36.944 21.2961 36.5307 21.6008 36.226C21.9056 35.9212 22.3189 35.75 22.7499 35.75H38.9999C39.4308 35.75 39.8442 35.9212 40.1489 36.226C40.4537 36.5307 40.6249 36.944 40.6249 37.375C40.6249 37.806 40.4537 38.2193 40.1489 38.524C39.8442 38.8288 39.4308 39 38.9999 39Z" fill="#7C54FA"/>
</g>
<defs>
<clipPath id="clip0_5302_1208">
<rect width="52" height="52" fill="white"/>
</clipPath>
</defs>
</svg>
