<svg width="63" height="64" viewBox="0 0 63 64" fill="none" xmlns="http://www.w3.org/2000/svg">
<rect x="0.5" y="1.34692" width="62" height="62" rx="31" fill="white" stroke="#F4F4F4"/>
<g clip-path="url(#clip0_5066_14863)">
<path d="M37.0843 17.4561H25.9161C24.6819 17.4561 23.4983 17.9463 22.6256 18.819C21.753 19.6917 21.2627 20.8753 21.2627 22.1095V36.0697C21.2627 36.3165 21.3607 36.5532 21.5353 36.7278C21.7098 36.9023 21.9465 37.0004 22.1934 37.0004C22.4402 37.0004 22.6769 36.9023 22.8515 36.7278C23.026 36.5532 23.1241 36.3165 23.1241 36.0697V22.1095C23.1257 21.5334 23.3054 20.972 23.6387 20.5021C23.9719 20.0322 24.4423 19.677 24.9854 19.4849V20.2481C24.9854 20.9886 25.2796 21.6988 25.8032 22.2224C26.3268 22.746 27.037 23.0401 27.7775 23.0401H35.2229C35.9634 23.0401 36.6736 22.746 37.1972 22.2224C37.7208 21.6988 38.015 20.9886 38.015 20.2481V19.4849C38.5581 19.677 39.0285 20.0322 39.3617 20.5021C39.695 20.972 39.8747 21.5334 39.8763 22.1095V42.5845C39.8763 43.325 39.5822 44.0351 39.0586 44.5587C38.535 45.0823 37.8248 45.3765 37.0843 45.3765H25.9161C25.1756 45.3765 24.4654 45.0823 23.9418 44.5587C23.4182 44.0351 23.1241 43.325 23.1241 42.5845V39.7924C23.1241 39.5456 23.026 39.3089 22.8515 39.1343C22.6769 38.9598 22.4402 38.8617 22.1934 38.8617C21.9465 38.8617 21.7098 38.9598 21.5353 39.1343C21.3607 39.3089 21.2627 39.5456 21.2627 39.7924V42.5845C21.2627 43.8186 21.753 45.0022 22.6256 45.8749C23.4983 46.7476 24.6819 47.2379 25.9161 47.2379H37.0843C38.3184 47.2379 39.5021 46.7476 40.3747 45.8749C41.2474 45.0022 41.7377 43.8186 41.7377 42.5845V22.1095C41.7377 20.8753 41.2474 19.6917 40.3747 18.819C39.5021 17.9463 38.3184 17.4561 37.0843 17.4561ZM36.1536 20.2481C36.1536 20.4949 36.0556 20.7317 35.881 20.9062C35.7065 21.0807 35.4698 21.1788 35.2229 21.1788H27.7775C27.5306 21.1788 27.2939 21.0807 27.1194 20.9062C26.9448 20.7317 26.8468 20.4949 26.8468 20.2481V19.3174H36.1536V20.2481Z" fill="#7C54FA"/>
<path fill-rule="evenodd" clip-rule="evenodd" d="M28.7051 31.3717C29.5298 32.9925 30.8586 34.3155 32.4794 35.146L33.7394 33.886C33.894 33.7313 34.1231 33.6798 34.3236 33.7485C34.965 33.9604 35.658 34.075 36.3682 34.075C36.6832 34.075 36.9409 34.3327 36.9409 34.6477V36.6465C36.9409 36.9615 36.6832 37.2192 36.3682 37.2192C30.9903 37.2192 26.6318 32.8608 26.6318 27.4829C26.6318 27.1679 26.8896 26.9102 27.2046 26.9102H29.2091C29.5241 26.9102 29.7818 27.1679 29.7818 27.4829C29.7818 28.1988 29.8964 28.8861 30.1083 29.5275C30.1713 29.728 30.1255 29.9513 29.9651 30.1117L28.7051 31.3717Z" fill="#7C54FA"/>
<path d="M36.1535 43.5152H26.8467C26.5999 43.5152 26.3631 43.4171 26.1886 43.2426C26.0141 43.068 25.916 42.8313 25.916 42.5845C25.916 42.3377 26.0141 42.1009 26.1886 41.9264C26.3631 41.7519 26.5999 41.6538 26.8467 41.6538H36.1535C36.4003 41.6538 36.6371 41.7519 36.8116 41.9264C36.9861 42.1009 37.0842 42.3377 37.0842 42.5845C37.0842 42.8313 36.9861 43.068 36.8116 43.2426C36.6371 43.4171 36.4003 43.5152 36.1535 43.5152Z" fill="#7C54FA"/>
</g>
<defs>
<clipPath id="clip0_5066_14863">
<rect width="29.7818" height="29.7818" fill="white" transform="translate(16.6094 17.4561)"/>
</clipPath>
</defs>
</svg>
