<svg width="25" height="24" viewBox="0 0 25 24" fill="none" xmlns="http://www.w3.org/2000/svg">
<path fill-rule="evenodd" clip-rule="evenodd" d="M7.12 10.7971C8.56 13.6271 10.88 15.9371 13.71 17.3871L15.91 15.1871C16.18 14.9171 16.58 14.8271 16.93 14.9471C18.05 15.3171 19.26 15.5171 20.5 15.5171C21.05 15.5171 21.5 15.9671 21.5 16.5171V20.0071C21.5 20.5571 21.05 21.0071 20.5 21.0071C11.11 21.0071 3.5 13.3971 3.5 4.00708C3.5 3.45708 3.95 3.00708 4.5 3.00708H8C8.55 3.00708 9 3.45708 9 4.00708C9 5.25708 9.2 6.45708 9.57 7.57708C9.68 7.92708 9.6 8.31708 9.32 8.59708L7.12 10.7971Z" fill="white"/>
</svg>
