<svg width="52" height="52" viewBox="0 0 52 52" fill="none" xmlns="http://www.w3.org/2000/svg">
<g clip-path="url(#clip0_5038_306)">
<path d="M17.4037 50.9925C14.0213 49.9857 10.8978 48.2564 8.24917 45.9241C5.60055 43.5918 3.48996 40.7122 2.0633 37.4843C0.636626 34.2564 -0.0720999 30.7572 -0.0138964 27.2286C0.0443072 23.6999 0.868052 20.226 2.4004 17.0469C3.93275 13.8678 6.13716 11.0594 8.86126 8.81572C11.5854 6.57206 14.7642 4.94669 18.178 4.05195C21.5918 3.15721 25.1592 3.01445 28.6336 3.63352C32.108 4.25259 35.4065 5.61873 38.3012 7.63753C38.4886 7.75381 38.6503 7.90701 38.7766 8.08779C38.9028 8.26858 38.991 8.47317 39.0356 8.6891C39.0803 8.90504 39.0805 9.12781 39.0363 9.34385C38.9922 9.55988 38.9045 9.76466 38.7786 9.94573C38.6527 10.1268 38.4914 10.2803 38.3043 10.397C38.1172 10.5137 37.9083 10.5911 37.6903 10.6245C37.4723 10.6579 37.2498 10.6465 37.0364 10.5912C36.8229 10.5358 36.623 10.4376 36.4487 10.3025C33.9401 8.54926 31.0804 7.36202 28.0677 6.823C25.0549 6.28398 21.961 6.40604 19.0001 7.18073C16.0391 7.95542 13.2819 9.36425 10.9192 11.3097C8.55646 13.2552 6.64468 15.6908 5.31616 18.448C3.98763 21.2052 3.2741 24.2182 3.22492 27.2784C3.17575 30.3386 3.79212 33.3729 5.03137 36.1714C6.27062 38.9699 8.10316 41.4657 10.4022 43.4861C12.7012 45.5064 15.4117 47.0031 18.3462 47.8725C18.76 47.9975 19.1071 48.2817 19.3113 48.6627C19.5155 49.0436 19.56 49.49 19.435 49.9038C19.31 50.3175 19.0258 50.6647 18.6448 50.8688C18.2639 51.073 17.8175 51.1175 17.4037 50.9925Z" fill="#002152"/>
<path d="M24.375 52C23.944 52 23.5307 51.8288 23.2259 51.5241C22.9212 51.2193 22.75 50.806 22.75 50.375C22.75 49.944 22.9212 49.5307 23.2259 49.226C23.5307 48.9212 23.944 48.75 24.375 48.75C28.2341 48.7478 32.0189 47.6885 35.3185 45.6871C38.6181 43.6857 41.3064 40.8187 43.0916 37.3974C44.8768 33.976 45.6907 30.1309 45.4449 26.2797C45.1992 22.4284 43.9031 18.718 41.6975 15.5513C41.5624 15.377 41.4642 15.177 41.4088 14.9636C41.3535 14.7502 41.3421 14.5277 41.3755 14.3097C41.4089 14.0917 41.4863 13.8828 41.603 13.6957C41.7197 13.5086 41.8732 13.3473 42.0543 13.2214C42.2353 13.0955 42.4401 13.0078 42.6562 12.9637C42.8722 12.9195 43.095 12.9197 43.3109 12.9644C43.5268 13.009 43.7314 13.0972 43.9122 13.2234C44.093 13.3497 44.2462 13.5114 44.3625 13.6988C46.9061 17.3526 48.4004 21.6333 48.6832 26.0764C48.9661 30.5194 48.0267 34.955 45.967 38.902C43.9073 42.8489 40.806 46.1563 36.9995 48.4653C33.1931 50.7744 28.827 51.9968 24.375 52Z" fill="#002152"/>
<path d="M24.375 43.875C21.161 43.875 18.0193 42.922 15.347 41.1364C12.6747 39.3508 10.5919 36.8129 9.36193 33.8436C8.13201 30.8743 7.8102 27.607 8.43721 24.4548C9.06422 21.3026 10.6119 18.4071 12.8845 16.1345C15.1571 13.8619 18.0526 12.3143 21.2048 11.6873C24.3569 11.0603 27.6243 11.3821 30.5936 12.612C33.5629 13.8419 36.1008 15.9247 37.8864 18.597C39.6719 21.2693 40.625 24.4111 40.625 27.625C40.625 31.9348 38.9129 36.068 35.8655 39.1155C32.818 42.163 28.6847 43.875 24.375 43.875ZM24.375 14.625C21.8038 14.625 19.2904 15.3875 17.1526 16.8159C15.0147 18.2444 13.3485 20.2747 12.3645 22.6501C11.3806 25.0256 11.1232 27.6394 11.6248 30.1612C12.1264 32.683 13.3645 34.9993 15.1826 36.8174C17.0007 38.6355 19.317 39.8736 21.8388 40.3752C24.3606 40.8768 26.9744 40.6194 29.3499 39.6355C31.7253 38.6515 33.7556 36.9853 35.1841 34.8474C36.6125 32.7096 37.375 30.1962 37.375 27.625C37.375 24.1772 36.0053 20.8706 33.5674 18.4326C31.1294 15.9947 27.8228 14.625 24.375 14.625Z" fill="#002152"/>
<path d="M24.375 35.75C22.768 35.75 21.1971 35.2735 19.861 34.3807C18.5248 33.4879 17.4834 32.219 16.8685 30.7343C16.2535 29.2497 16.0926 27.616 16.4061 26.0399C16.7196 24.4638 17.4934 23.0161 18.6297 21.8798C19.766 20.7435 21.2138 19.9697 22.7899 19.6561C24.366 19.3426 25.9996 19.5035 27.4843 20.1185C28.9689 20.7335 30.2379 21.7749 31.1307 23.111C32.0235 24.4472 32.5 26.0181 32.5 27.625C32.5 29.7799 31.644 31.8465 30.1202 33.3703C28.5965 34.894 26.5299 35.75 24.375 35.75ZM24.375 22.75C23.4108 22.75 22.4683 23.0359 21.6666 23.5716C20.8649 24.1073 20.24 24.8687 19.8711 25.7594C19.5021 26.6502 19.4055 27.6304 19.5936 28.5761C19.7817 29.5218 20.246 30.3904 20.9278 31.0722C21.6096 31.754 22.4783 32.2183 23.4239 32.4064C24.3696 32.5945 25.3498 32.4979 26.2406 32.1289C27.1313 31.76 27.8927 31.1351 28.4284 30.3334C28.9641 29.5317 29.25 28.5892 29.25 27.625C29.25 26.3321 28.7364 25.0921 27.8221 24.1779C26.9079 23.2636 25.6679 22.75 24.375 22.75Z" fill="#002152"/>
<path d="M50.765 8.12503L47.125 7.24753L49.9687 4.40378C50.1202 4.25227 50.2404 4.07239 50.3224 3.87443C50.4044 3.67647 50.4466 3.4643 50.4466 3.25003C50.4466 3.03576 50.4044 2.82358 50.3224 2.62562C50.2404 2.42766 50.1202 2.24779 49.9687 2.09628C49.8172 1.94477 49.6373 1.82458 49.4394 1.74258C49.2414 1.66058 49.0292 1.61838 48.815 1.61838C48.6007 1.61838 48.3885 1.66058 48.1906 1.74258C47.9926 1.82458 47.8127 1.94477 47.6612 2.09628L44.7525 4.87503L43.875 1.23503C43.8123 0.944607 43.6713 0.676913 43.4672 0.461051C43.263 0.245189 43.0036 0.0894216 42.7172 0.0106834C42.4307 -0.0680548 42.1281 -0.0667497 41.8423 0.0144567C41.5565 0.0956632 41.2985 0.253663 41.0962 0.471278L36.2212 5.34628C36.0706 5.49812 35.9515 5.67819 35.8706 5.87618C35.7897 6.07417 35.7487 6.28617 35.75 6.50003V13.9588L23.2212 26.4713C22.9152 26.7773 22.7433 27.1923 22.7433 27.625C22.7433 28.0578 22.9152 28.4728 23.2212 28.7788C23.5272 29.0848 23.9422 29.2567 24.375 29.2567C24.8077 29.2567 25.2227 29.0848 25.5287 28.7788L38.0412 16.25H45.5C45.7138 16.2513 45.9258 16.2103 46.1238 16.1294C46.3218 16.0485 46.5019 15.9294 46.6537 15.7788L51.5287 10.9038C51.7463 10.7015 51.9043 10.4435 51.9855 10.1577C52.0668 9.8719 52.0681 9.56932 51.9893 9.28285C51.9106 8.99637 51.7548 8.73697 51.539 8.53284C51.3231 8.3287 51.0554 8.18766 50.765 8.12503ZM39 7.16628L41.3725 4.87503L42.0712 7.68628L39 10.7088V7.16628ZM44.8337 13H41.2912L44.3787 9.92878L47.125 10.6275L44.8337 13Z" fill="#002152"/>
</g>
<defs>
<clipPath id="clip0_5038_306">
<rect width="52" height="52" fill="white"/>
</clipPath>
</defs>
</svg>
