<svg width="52" height="52" viewBox="0 0 52 52" fill="none" xmlns="http://www.w3.org/2000/svg">
<path d="M48.75 29.25C49.181 29.25 49.5943 29.0788 49.899 28.774C50.2038 28.4693 50.375 28.056 50.375 27.625V4.875C50.375 3.58207 49.8614 2.34209 48.9471 1.42785C48.0329 0.513615 46.7929 0 45.5 0H6.5C5.20707 0 3.96709 0.513615 3.05285 1.42785C2.13861 2.34209 1.625 3.58207 1.625 4.875V37.375C1.625 38.6679 2.13861 39.9079 3.05285 40.8221C3.96709 41.7364 5.20707 42.25 6.5 42.25H17.7288C17.286 44.7964 15.9492 47.1012 13.9587 48.75H11.375C10.944 48.75 10.5307 48.9212 10.226 49.226C9.92121 49.5307 9.75 49.944 9.75 50.375C9.75 50.806 9.92121 51.2193 10.226 51.524C10.5307 51.8288 10.944 52 11.375 52H40.95C41.381 52 41.7943 51.8288 42.099 51.524C42.4038 51.2193 42.575 50.806 42.575 50.375C42.575 49.944 42.4038 49.5307 42.099 49.226C41.7943 48.9212 41.381 48.75 40.95 48.75H38.0412C36.0464 47.105 34.7085 44.7984 34.2713 42.25H45.5C46.7929 42.25 48.0329 41.7364 48.9471 40.8221C49.8614 39.9079 50.375 38.6679 50.375 37.375V34.125C50.375 33.694 50.2038 33.2807 49.899 32.976C49.5943 32.6712 49.181 32.5 48.75 32.5H4.875V4.875C4.875 4.44402 5.0462 4.0307 5.35095 3.72595C5.6557 3.4212 6.06902 3.25 6.5 3.25H45.5C45.931 3.25 46.3443 3.4212 46.649 3.72595C46.9538 4.0307 47.125 4.44402 47.125 4.875V27.625C47.125 28.056 47.2962 28.4693 47.601 28.774C47.9057 29.0788 48.319 29.25 48.75 29.25ZM33.6213 48.75H18.3787C19.8137 46.8547 20.7168 44.6109 20.995 42.25H31.005C31.2832 44.6109 32.1863 46.8547 33.6213 48.75ZM47.125 35.75V37.375C47.125 37.806 46.9538 38.2193 46.649 38.524C46.3443 38.8288 45.931 39 45.5 39H6.5C6.06902 39 5.6557 38.8288 5.35095 38.524C5.0462 38.2193 4.875 37.806 4.875 37.375V35.75H47.125Z" fill="#7C54FA"/>
<path d="M14.625 29.25H11.375C10.513 29.25 9.6864 28.9076 9.0769 28.2981C8.46741 27.6886 8.125 26.862 8.125 26V19.5C8.125 18.638 8.46741 17.8114 9.0769 17.2019C9.6864 16.5924 10.513 16.25 11.375 16.25H14.625C15.487 16.25 16.3136 16.5924 16.9231 17.2019C17.5326 17.8114 17.875 18.638 17.875 19.5V26C17.875 26.862 17.5326 27.6886 16.9231 28.2981C16.3136 28.9076 15.487 29.25 14.625 29.25ZM11.375 19.5V26H14.625V19.5H11.375Z" fill="#7C54FA"/>
<path d="M27.625 29.25H24.375C23.513 29.25 22.6864 28.9076 22.0769 28.2981C21.4674 27.6886 21.125 26.862 21.125 26V14.625C21.125 13.763 21.4674 12.9364 22.0769 12.3269C22.6864 11.7174 23.513 11.375 24.375 11.375H27.625C28.487 11.375 29.3136 11.7174 29.9231 12.3269C30.5326 12.9364 30.875 13.763 30.875 14.625V26C30.875 26.862 30.5326 27.6886 29.9231 28.2981C29.3136 28.9076 28.487 29.25 27.625 29.25ZM24.375 14.625V26H27.625V14.625H24.375Z" fill="#7C54FA"/>
<path d="M40.625 29.25H37.375C36.513 29.25 35.6864 28.9076 35.0769 28.2981C34.4674 27.6886 34.125 26.862 34.125 26V9.75C34.125 8.88805 34.4674 8.0614 35.0769 7.4519C35.6864 6.84241 36.513 6.5 37.375 6.5H40.625C41.487 6.5 42.3136 6.84241 42.9231 7.4519C43.5326 8.0614 43.875 8.88805 43.875 9.75V26C43.875 26.862 43.5326 27.6886 42.9231 28.2981C42.3136 28.9076 41.487 29.25 40.625 29.25ZM37.375 9.75V26H40.625V9.75H37.375Z" fill="#7C54FA"/>
</svg>
