<svg width="147" height="50" viewBox="0 0 147 50" fill="none" xmlns="http://www.w3.org/2000/svg">
<g clip-path="url(#clip0_5402_807)">
<path d="M102.621 15.6164C106.994 19.9511 109.653 25.9461 109.92 32.0741C110.187 38.2022 108.062 44.4035 104.084 49.0968C108.714 48.0222 112.68 44.3907 114.188 39.913C115.695 35.436 115.068 30.3939 112.957 26.1645C110.845 21.9352 107.151 17.9663 102.621 15.6157V15.6164Z" fill="white"/>
<path d="M116.797 49.9778C122.723 44.2369 120.148 29.668 115.6 24.0972C130.421 34.4965 125.602 50.6845 116.797 49.9778Z" fill="white"/>
<path d="M146.996 36.6572C147.177 24.4836 140.42 14.3454 130.791 9.61508C137.051 10.9523 144.228 15.2514 146.852 17.1237C138.297 6.41834 124.412 -0.468323 110.655 0.0248527C107.246 0.147257 101.704 1.03611 100.701 3.64147L101.486 5.01425C100.416 4.86551 95.2378 4.77869 92.9716 5.82553C88.4106 7.93345 89.686 13.2139 92.877 15.2841C90.8001 6.95208 128.467 16.4014 133.245 42.6564C135.592 38.3139 134.891 26.3709 132.789 21.3282C143.534 26.4884 146.997 36.6572 146.997 36.6572H146.996ZM109.214 5.18433C108.26 4.92316 108.202 4.31398 106.234 4.40436C108.477 3.02233 111.647 3.1362 114.433 4.31968C112.508 4.20225 111.13 5.70811 109.214 5.18433Z" fill="white"/>
</g>
<path d="M1.89844 46.4453H7.42188V48.2344H0V37.1953H7.34375V38.9844H1.89844V41.7891H6.8125V43.5781H1.89844V46.4453Z" fill="white"/>
<path d="M16.7812 37.1953H18.6875V48.2344H16.75L11.2266 40.4297V48.2344H9.32812V37.1953H11.2578L16.7812 45V37.1953Z" fill="white"/>
<path d="M28.8984 37.1953V38.9844H25.5703V48.2344H23.6641V38.9844H20.3203V37.1953H28.8984Z" fill="white"/>
<path d="M32.4297 46.4453H37.9531V48.2344H30.5312V37.1953H37.875V38.9844H32.4297V41.7891H37.3438V43.5781H32.4297V46.4453Z" fill="white"/>
<path d="M46.0469 48.2344L43.2031 44.125H41.7578V48.2344H39.8594V37.1953H44.4453C45.4766 37.1953 46.3385 37.5286 47.0312 38.1953C47.7292 38.862 48.0781 39.6953 48.0781 40.6953C48.0781 41.5286 47.8255 42.2474 47.3203 42.8516C46.8203 43.4557 46.1667 43.8464 45.3594 44.0234L48.3359 48.2344H46.0469ZM41.7578 38.9844V42.4609H44.4141C44.9036 42.4609 45.3099 42.2943 45.6328 41.9609C45.9609 41.6224 46.125 41.2057 46.125 40.7109C46.125 40.2161 45.9609 39.8047 45.6328 39.4766C45.3099 39.1484 44.9036 38.9844 44.4141 38.9844H41.7578Z" fill="white"/>
<path d="M54.5781 37.1953C55.2656 37.1953 55.8906 37.3516 56.4531 37.6641C57.0208 37.9714 57.4661 38.401 57.7891 38.9531C58.112 39.5052 58.2734 40.1198 58.2734 40.7969C58.2734 41.8177 57.9193 42.6693 57.2109 43.3516C56.5026 44.0339 55.625 44.375 54.5781 44.375H51.7891V48.2344H49.8906V37.1953H54.5781ZM54.5469 42.5859C55.0521 42.5859 55.474 42.4167 55.8125 42.0781C56.151 41.7344 56.3203 41.3073 56.3203 40.7969C56.3203 40.276 56.151 39.8438 55.8125 39.5C55.474 39.1562 55.0521 38.9844 54.5469 38.9844H51.7891V42.5859H54.5469Z" fill="white"/>
<path d="M66.0625 48.2344L63.2188 44.125H61.7734V48.2344H59.875V37.1953H64.4609C65.4922 37.1953 66.3542 37.5286 67.0469 38.1953C67.7448 38.862 68.0938 39.6953 68.0938 40.6953C68.0938 41.5286 67.8411 42.2474 67.3359 42.8516C66.8359 43.4557 66.1823 43.8464 65.375 44.0234L68.3516 48.2344H66.0625ZM61.7734 38.9844V42.4609H64.4297C64.9193 42.4609 65.3255 42.2943 65.6484 41.9609C65.9766 41.6224 66.1406 41.2057 66.1406 40.7109C66.1406 40.2161 65.9766 39.8047 65.6484 39.4766C65.3255 39.1484 64.9193 38.9844 64.4297 38.9844H61.7734Z" fill="white"/>
<path d="M69.9062 48.2344V37.1953H71.8047V48.2344H69.9062Z" fill="white"/>
<path d="M77.9141 48.4297C77.0807 48.4297 76.2604 48.2734 75.4531 47.9609C74.6458 47.6432 73.9714 47.2214 73.4297 46.6953L74.4219 45.2422C74.8646 45.6849 75.3958 46.0417 76.0156 46.3125C76.6406 46.5781 77.2734 46.7109 77.9141 46.7109C78.5547 46.7109 79.0938 46.5729 79.5312 46.2969C79.9688 46.0208 80.1875 45.6641 80.1875 45.2266C80.1875 45.0547 80.151 44.8958 80.0781 44.75C80.0052 44.599 79.8958 44.4688 79.75 44.3594C79.6042 44.25 79.4583 44.1562 79.3125 44.0781C79.1667 43.9948 78.9766 43.9193 78.7422 43.8516C78.513 43.7786 78.3229 43.724 78.1719 43.6875C78.026 43.6458 77.8333 43.599 77.5938 43.5469C77.0625 43.4219 76.5807 43.2708 76.1484 43.0938C75.7161 42.9115 75.3177 42.6875 74.9531 42.4219C74.5885 42.1562 74.3047 41.8333 74.1016 41.4531C73.8984 41.0677 73.7969 40.6406 73.7969 40.1719C73.7969 39.224 74.1771 38.4583 74.9375 37.875C75.6979 37.2917 76.6849 37 77.8984 37C78.6745 37 79.388 37.125 80.0391 37.375C80.6901 37.625 81.224 37.9583 81.6406 38.375L80.7422 39.8203C80.4297 39.4974 80.0104 39.2318 79.4844 39.0234C78.9635 38.8151 78.4245 38.7109 77.8672 38.7109C77.2526 38.7109 76.7474 38.8411 76.3516 39.1016C75.9609 39.362 75.7656 39.6979 75.7656 40.1094C75.7656 40.8646 76.5547 41.401 78.1328 41.7188C78.3307 41.7604 78.5156 41.8047 78.6875 41.8516C78.8594 41.8984 79.0885 41.9714 79.375 42.0703C79.6615 42.1693 79.9193 42.276 80.1484 42.3906C80.3776 42.5052 80.6198 42.6562 80.875 42.8438C81.1354 43.026 81.3516 43.224 81.5234 43.4375C81.7005 43.6458 81.8464 43.8984 81.9609 44.1953C82.0755 44.4922 82.1328 44.8099 82.1328 45.1484C82.1328 46.112 81.7318 46.901 80.9297 47.5156C80.1276 48.125 79.1224 48.4297 77.9141 48.4297Z" fill="white"/>
<path d="M85.6484 46.4453H91.1719V48.2344H83.75V37.1953H91.0938V38.9844H85.6484V41.7891H90.5625V43.5781H85.6484V46.4453Z" fill="white"/>
<path d="M96.8203 48.4297C95.987 48.4297 95.1667 48.2734 94.3594 47.9609C93.5521 47.6432 92.8776 47.2214 92.3359 46.6953L93.3281 45.2422C93.7708 45.6849 94.3021 46.0417 94.9219 46.3125C95.5469 46.5781 96.1797 46.7109 96.8203 46.7109C97.4609 46.7109 98 46.5729 98.4375 46.2969C98.875 46.0208 99.0938 45.6641 99.0938 45.2266C99.0938 45.0547 99.0573 44.8958 98.9844 44.75C98.9115 44.599 98.8021 44.4688 98.6562 44.3594C98.5104 44.25 98.3646 44.1562 98.2188 44.0781C98.0729 43.9948 97.8828 43.9193 97.6484 43.8516C97.4193 43.7786 97.2292 43.724 97.0781 43.6875C96.9323 43.6458 96.7396 43.599 96.5 43.5469C95.9688 43.4219 95.487 43.2708 95.0547 43.0938C94.6224 42.9115 94.224 42.6875 93.8594 42.4219C93.4948 42.1562 93.2109 41.8333 93.0078 41.4531C92.8047 41.0677 92.7031 40.6406 92.7031 40.1719C92.7031 39.224 93.0833 38.4583 93.8438 37.875C94.6042 37.2917 95.5911 37 96.8047 37C97.5807 37 98.2943 37.125 98.9453 37.375C99.5964 37.625 100.13 37.9583 100.547 38.375L99.6484 39.8203C99.3359 39.4974 98.9167 39.2318 98.3906 39.0234C97.8698 38.8151 97.3307 38.7109 96.7734 38.7109C96.1589 38.7109 95.6536 38.8411 95.2578 39.1016C94.8672 39.362 94.6719 39.6979 94.6719 40.1094C94.6719 40.8646 95.4609 41.401 97.0391 41.7188C97.237 41.7604 97.4219 41.8047 97.5938 41.8516C97.7656 41.8984 97.9948 41.9714 98.2812 42.0703C98.5677 42.1693 98.8255 42.276 99.0547 42.3906C99.2839 42.5052 99.526 42.6562 99.7812 42.8438C100.042 43.026 100.258 43.224 100.43 43.4375C100.607 43.6458 100.753 43.8984 100.867 44.1953C100.982 44.4922 101.039 44.8099 101.039 45.1484C101.039 46.112 100.638 46.901 99.8359 47.5156C99.0339 48.125 98.0286 48.4297 96.8203 48.4297Z" fill="white"/>
<path d="M15.606 11.3589H18.3712L10.494 31.6411H7.85023L0 11.3589H2.81907L9.22605 28.1388L15.606 11.3589Z" fill="white"/>
<path d="M21.1902 31.6411V11.3589H23.726V31.6411H21.1902Z" fill="white"/>
<path d="M39.2242 31.6411L33.5321 23.5885H30.74V31.6411H28.2042V11.3589H35.933C37.6236 11.3589 39.0354 11.9474 40.1684 13.1244C41.3104 14.3014 41.8814 15.7703 41.8814 17.5311C41.8814 19.1675 41.3688 20.555 40.3437 21.6938C39.3276 22.823 38.0417 23.445 36.486 23.5598L42.286 31.6411H39.2242ZM30.74 13.8852V21.2344H35.8791C36.8502 21.2344 37.6595 20.8852 38.307 20.1866C38.9544 19.488 39.2781 18.6124 39.2781 17.5598C39.2781 16.5072 38.9544 15.6316 38.307 14.933C37.6595 14.2344 36.8502 13.8852 35.8791 13.8852H30.74Z" fill="white"/>
<path d="M58 11.3589V13.8852H51.8898V31.6411H49.3809V13.8852H43.2707V11.3589H58Z" fill="white"/>
<path d="M61.0619 31.6411V11.3589H63.5977V31.6411H61.0619Z" fill="white"/>
<path d="M77.0186 32C75.6158 32 74.2985 31.7321 73.0665 31.1962C71.8346 30.6507 70.778 29.9139 69.8967 28.9856C69.0155 28.0574 68.3186 26.9474 67.806 25.6555C67.3025 24.3541 67.0507 22.9665 67.0507 21.4928C67.0507 19.5311 67.4823 17.7512 68.3456 16.1531C69.2088 14.5455 70.4003 13.2871 71.92 12.378C73.4487 11.4593 75.1482 11 77.0186 11C78.889 11 80.584 11.4593 82.1037 12.378C83.6324 13.2871 84.8284 14.5455 85.6916 16.1531C86.5639 17.7512 87 19.5311 87 21.4928C87 23.4545 86.5639 25.2392 85.6916 26.8469C84.8284 28.4545 83.6324 29.7177 82.1037 30.6364C80.584 31.5455 78.889 32 77.0186 32ZM73.2553 28.3684C74.3884 29.0574 75.6428 29.4019 77.0186 29.4019C78.3944 29.4019 79.6443 29.0574 80.7684 28.3684C81.9014 27.6794 82.7871 26.7321 83.4256 25.5263C84.073 24.311 84.3967 22.9665 84.3967 21.4928C84.3967 20.0191 84.073 18.6794 83.4256 17.4737C82.7871 16.2584 81.9014 15.311 80.7684 14.6316C79.6443 13.9426 78.3944 13.5981 77.0186 13.5981C75.9845 13.5981 75.0088 13.799 74.0916 14.201C73.1834 14.6029 72.4056 15.1531 71.7581 15.8517C71.1107 16.5502 70.5981 17.3876 70.2205 18.3636C69.8428 19.3397 69.654 20.3828 69.654 21.4928C69.654 22.9665 69.9732 24.311 70.6116 25.5263C71.2501 26.7321 72.1313 27.6794 73.2553 28.3684Z" fill="white"/>
<defs>
<clipPath id="clip0_5402_807">
<rect width="57" height="50" fill="white" transform="translate(90)"/>
</clipPath>
</defs>
</svg>
